G04*
G04 #@! TF.GenerationSoftware,Altium Limited,Altium Designer,21.0.8 (223)*
G04*
G04 Layer_Color=16711935*
%FSLAX25Y25*%
%MOIN*%
G70*
G04*
G04 #@! TF.SameCoordinates,8E059B7F-88B0-49DF-8ED0-AD27087E488A*
G04*
G04*
G04 #@! TF.FilePolarity,Negative*
G04*
G01*
G75*
G04:AMPARAMS|DCode=39|XSize=26mil|YSize=26mil|CornerRadius=8mil|HoleSize=0mil|Usage=FLASHONLY|Rotation=270.000|XOffset=0mil|YOffset=0mil|HoleType=Round|Shape=RoundedRectangle|*
%AMROUNDEDRECTD39*
21,1,0.02600,0.01000,0,0,270.0*
21,1,0.01000,0.02600,0,0,270.0*
1,1,0.01600,-0.00500,-0.00500*
1,1,0.01600,-0.00500,0.00500*
1,1,0.01600,0.00500,0.00500*
1,1,0.01600,0.00500,-0.00500*
%
%ADD39ROUNDEDRECTD39*%
%ADD53O,0.08868X0.04537*%
%ADD54O,0.06899X0.04537*%
%ADD55C,0.03159*%
G04:AMPARAMS|DCode=69|XSize=37.5mil|YSize=65.06mil|CornerRadius=10.87mil|HoleSize=0mil|Usage=FLASHONLY|Rotation=90.000|XOffset=0mil|YOffset=0mil|HoleType=Round|Shape=RoundedRectangle|*
%AMROUNDEDRECTD69*
21,1,0.03750,0.04331,0,0,90.0*
21,1,0.01575,0.06506,0,0,90.0*
1,1,0.02175,0.02165,0.00787*
1,1,0.02175,0.02165,-0.00787*
1,1,0.02175,-0.02165,-0.00787*
1,1,0.02175,-0.02165,0.00787*
%
%ADD69ROUNDEDRECTD69*%
G04:AMPARAMS|DCode=70|XSize=37.5mil|YSize=61.12mil|CornerRadius=10.87mil|HoleSize=0mil|Usage=FLASHONLY|Rotation=90.000|XOffset=0mil|YOffset=0mil|HoleType=Round|Shape=RoundedRectangle|*
%AMROUNDEDRECTD70*
21,1,0.03750,0.03937,0,0,90.0*
21,1,0.01575,0.06112,0,0,90.0*
1,1,0.02175,0.01968,0.00787*
1,1,0.02175,0.01968,-0.00787*
1,1,0.02175,-0.01968,-0.00787*
1,1,0.02175,-0.01968,0.00787*
%
%ADD70ROUNDEDRECTD70*%
G04:AMPARAMS|DCode=71|XSize=46mil|YSize=65.06mil|CornerRadius=13mil|HoleSize=0mil|Usage=FLASHONLY|Rotation=90.000|XOffset=0mil|YOffset=0mil|HoleType=Round|Shape=RoundedRectangle|*
%AMROUNDEDRECTD71*
21,1,0.04600,0.03906,0,0,90.0*
21,1,0.02000,0.06506,0,0,90.0*
1,1,0.02600,0.01953,0.01000*
1,1,0.02600,0.01953,-0.01000*
1,1,0.02600,-0.01953,-0.01000*
1,1,0.02600,-0.01953,0.01000*
%
%ADD71ROUNDEDRECTD71*%
G04:AMPARAMS|DCode=72|XSize=65.06mil|YSize=65.06mil|CornerRadius=17.76mil|HoleSize=0mil|Usage=FLASHONLY|Rotation=90.000|XOffset=0mil|YOffset=0mil|HoleType=Round|Shape=RoundedRectangle|*
%AMROUNDEDRECTD72*
21,1,0.06506,0.02953,0,0,90.0*
21,1,0.02953,0.06506,0,0,90.0*
1,1,0.03553,0.01476,0.01476*
1,1,0.03553,0.01476,-0.01476*
1,1,0.03553,-0.01476,-0.01476*
1,1,0.03553,-0.01476,0.01476*
%
%ADD72ROUNDEDRECTD72*%
G04:AMPARAMS|DCode=73|XSize=63.09mil|YSize=45.37mil|CornerRadius=12.84mil|HoleSize=0mil|Usage=FLASHONLY|Rotation=90.000|XOffset=0mil|YOffset=0mil|HoleType=Round|Shape=RoundedRectangle|*
%AMROUNDEDRECTD73*
21,1,0.06309,0.01968,0,0,90.0*
21,1,0.03740,0.04537,0,0,90.0*
1,1,0.02568,0.00984,0.01870*
1,1,0.02568,0.00984,-0.01870*
1,1,0.02568,-0.00984,-0.01870*
1,1,0.02568,-0.00984,0.01870*
%
%ADD73ROUNDEDRECTD73*%
G04:AMPARAMS|DCode=74|XSize=45.37mil|YSize=67.02mil|CornerRadius=12.84mil|HoleSize=0mil|Usage=FLASHONLY|Rotation=90.000|XOffset=0mil|YOffset=0mil|HoleType=Round|Shape=RoundedRectangle|*
%AMROUNDEDRECTD74*
21,1,0.04537,0.04134,0,0,90.0*
21,1,0.01968,0.06702,0,0,90.0*
1,1,0.02568,0.02067,0.00984*
1,1,0.02568,0.02067,-0.00984*
1,1,0.02568,-0.02067,-0.00984*
1,1,0.02568,-0.02067,0.00984*
%
%ADD74ROUNDEDRECTD74*%
G04:AMPARAMS|DCode=75|XSize=33.56mil|YSize=74.9mil|CornerRadius=9.89mil|HoleSize=0mil|Usage=FLASHONLY|Rotation=90.000|XOffset=0mil|YOffset=0mil|HoleType=Round|Shape=RoundedRectangle|*
%AMROUNDEDRECTD75*
21,1,0.03356,0.05512,0,0,90.0*
21,1,0.01378,0.07490,0,0,90.0*
1,1,0.01978,0.02756,0.00689*
1,1,0.01978,0.02756,-0.00689*
1,1,0.01978,-0.02756,-0.00689*
1,1,0.01978,-0.02756,0.00689*
%
%ADD75ROUNDEDRECTD75*%
D39*
X41100Y70400D02*
D03*
X37100D02*
D03*
X41100Y73900D02*
D03*
X37100D02*
D03*
X41100Y66900D02*
D03*
X37100D02*
D03*
X41100Y63400D02*
D03*
X37100D02*
D03*
D53*
X93373Y34772D02*
D03*
Y68828D02*
D03*
D54*
X109121Y34772D02*
D03*
Y68828D02*
D03*
D55*
X95342Y63178D02*
D03*
Y40422D02*
D03*
D69*
X80413Y27130D02*
D03*
D70*
X82972Y74079D02*
D03*
D71*
X50492Y27614D02*
D03*
D72*
Y72799D02*
D03*
D73*
X86319Y28409D02*
D03*
D74*
X92520Y72504D02*
D03*
D75*
X50000Y32839D02*
D03*
Y37169D02*
D03*
Y41500D02*
D03*
Y45831D02*
D03*
Y50161D02*
D03*
Y54492D02*
D03*
Y58823D02*
D03*
Y63153D02*
D03*
M02*
