G04*
G04 #@! TF.GenerationSoftware,Altium Limited,Altium Designer,21.0.8 (223)*
G04*
G04 Layer_Color=8388736*
%FSLAX25Y25*%
%MOIN*%
G70*
G04*
G04 #@! TF.SameCoordinates,8E059B7F-88B0-49DF-8ED0-AD27087E488A*
G04*
G04*
G04 #@! TF.FilePolarity,Negative*
G04*
G01*
G75*
G04:AMPARAMS|DCode=24|XSize=21.65mil|YSize=9.84mil|CornerRadius=2.46mil|HoleSize=0mil|Usage=FLASHONLY|Rotation=270.000|XOffset=0mil|YOffset=0mil|HoleType=Round|Shape=RoundedRectangle|*
%AMROUNDEDRECTD24*
21,1,0.02165,0.00492,0,0,270.0*
21,1,0.01673,0.00984,0,0,270.0*
1,1,0.00492,-0.00246,-0.00837*
1,1,0.00492,-0.00246,0.00837*
1,1,0.00492,0.00246,0.00837*
1,1,0.00492,0.00246,-0.00837*
%
%ADD24ROUNDEDRECTD24*%
G04:AMPARAMS|DCode=36|XSize=166mil|YSize=166mil|CornerRadius=19mil|HoleSize=0mil|Usage=FLASHONLY|Rotation=90.000|XOffset=0mil|YOffset=0mil|HoleType=Round|Shape=RoundedRectangle|*
%AMROUNDEDRECTD36*
21,1,0.16600,0.12800,0,0,90.0*
21,1,0.12800,0.16600,0,0,90.0*
1,1,0.03800,0.06400,0.06400*
1,1,0.03800,0.06400,-0.06400*
1,1,0.03800,-0.06400,-0.06400*
1,1,0.03800,-0.06400,0.06400*
%
%ADD36ROUNDEDRECTD36*%
G04:AMPARAMS|DCode=37|XSize=32.58mil|YSize=15.84mil|CornerRadius=5.46mil|HoleSize=0mil|Usage=FLASHONLY|Rotation=90.000|XOffset=0mil|YOffset=0mil|HoleType=Round|Shape=RoundedRectangle|*
%AMROUNDEDRECTD37*
21,1,0.03258,0.00492,0,0,90.0*
21,1,0.02165,0.01584,0,0,90.0*
1,1,0.01092,0.00246,0.01083*
1,1,0.01092,0.00246,-0.01083*
1,1,0.01092,-0.00246,-0.01083*
1,1,0.01092,-0.00246,0.01083*
%
%ADD37ROUNDEDRECTD37*%
G04:AMPARAMS|DCode=38|XSize=32.58mil|YSize=15.84mil|CornerRadius=5.46mil|HoleSize=0mil|Usage=FLASHONLY|Rotation=180.000|XOffset=0mil|YOffset=0mil|HoleType=Round|Shape=RoundedRectangle|*
%AMROUNDEDRECTD38*
21,1,0.03258,0.00492,0,0,180.0*
21,1,0.02165,0.01584,0,0,180.0*
1,1,0.01092,-0.01083,0.00246*
1,1,0.01092,0.01083,0.00246*
1,1,0.01092,0.01083,-0.00246*
1,1,0.01092,-0.01083,-0.00246*
%
%ADD38ROUNDEDRECTD38*%
G04:AMPARAMS|DCode=39|XSize=26mil|YSize=26mil|CornerRadius=8mil|HoleSize=0mil|Usage=FLASHONLY|Rotation=270.000|XOffset=0mil|YOffset=0mil|HoleType=Round|Shape=RoundedRectangle|*
%AMROUNDEDRECTD39*
21,1,0.02600,0.01000,0,0,270.0*
21,1,0.01000,0.02600,0,0,270.0*
1,1,0.01600,-0.00500,-0.00500*
1,1,0.01600,-0.00500,0.00500*
1,1,0.01600,0.00500,0.00500*
1,1,0.01600,0.00500,-0.00500*
%
%ADD39ROUNDEDRECTD39*%
G04:AMPARAMS|DCode=40|XSize=65.06mil|YSize=17.81mil|CornerRadius=5.95mil|HoleSize=0mil|Usage=FLASHONLY|Rotation=180.000|XOffset=0mil|YOffset=0mil|HoleType=Round|Shape=RoundedRectangle|*
%AMROUNDEDRECTD40*
21,1,0.06506,0.00591,0,0,180.0*
21,1,0.05315,0.01781,0,0,180.0*
1,1,0.01191,-0.02657,0.00295*
1,1,0.01191,0.02657,0.00295*
1,1,0.01191,0.02657,-0.00295*
1,1,0.01191,-0.02657,-0.00295*
%
%ADD40ROUNDEDRECTD40*%
G04:AMPARAMS|DCode=41|XSize=50mil|YSize=46mil|CornerRadius=13mil|HoleSize=0mil|Usage=FLASHONLY|Rotation=0.000|XOffset=0mil|YOffset=0mil|HoleType=Round|Shape=RoundedRectangle|*
%AMROUNDEDRECTD41*
21,1,0.05000,0.02000,0,0,0.0*
21,1,0.02400,0.04600,0,0,0.0*
1,1,0.02600,0.01200,-0.01000*
1,1,0.02600,-0.01200,-0.01000*
1,1,0.02600,-0.01200,0.01000*
1,1,0.02600,0.01200,0.01000*
%
%ADD41ROUNDEDRECTD41*%
G04:AMPARAMS|DCode=42|XSize=92mil|YSize=56mil|CornerRadius=15.5mil|HoleSize=0mil|Usage=FLASHONLY|Rotation=0.000|XOffset=0mil|YOffset=0mil|HoleType=Round|Shape=RoundedRectangle|*
%AMROUNDEDRECTD42*
21,1,0.09200,0.02500,0,0,0.0*
21,1,0.06100,0.05600,0,0,0.0*
1,1,0.03100,0.03050,-0.01250*
1,1,0.03100,-0.03050,-0.01250*
1,1,0.03100,-0.03050,0.01250*
1,1,0.03100,0.03050,0.01250*
%
%ADD42ROUNDEDRECTD42*%
G04:AMPARAMS|DCode=43|XSize=56mil|YSize=16mil|CornerRadius=5.5mil|HoleSize=0mil|Usage=FLASHONLY|Rotation=180.000|XOffset=0mil|YOffset=0mil|HoleType=Round|Shape=RoundedRectangle|*
%AMROUNDEDRECTD43*
21,1,0.05600,0.00500,0,0,180.0*
21,1,0.04500,0.01600,0,0,180.0*
1,1,0.01100,-0.02250,0.00250*
1,1,0.01100,0.02250,0.00250*
1,1,0.01100,0.02250,-0.00250*
1,1,0.01100,-0.02250,-0.00250*
%
%ADD43ROUNDEDRECTD43*%
G04:AMPARAMS|DCode=44|XSize=22mil|YSize=48mil|CornerRadius=8mil|HoleSize=0mil|Usage=FLASHONLY|Rotation=0.000|XOffset=0mil|YOffset=0mil|HoleType=Round|Shape=RoundedRectangle|*
%AMROUNDEDRECTD44*
21,1,0.02200,0.03200,0,0,0.0*
21,1,0.00600,0.04800,0,0,0.0*
1,1,0.01600,0.00300,-0.01600*
1,1,0.01600,-0.00300,-0.01600*
1,1,0.01600,-0.00300,0.01600*
1,1,0.01600,0.00300,0.01600*
%
%ADD44ROUNDEDRECTD44*%
G04:AMPARAMS|DCode=45|XSize=22mil|YSize=48mil|CornerRadius=8mil|HoleSize=0mil|Usage=FLASHONLY|Rotation=270.000|XOffset=0mil|YOffset=0mil|HoleType=Round|Shape=RoundedRectangle|*
%AMROUNDEDRECTD45*
21,1,0.02200,0.03200,0,0,270.0*
21,1,0.00600,0.04800,0,0,270.0*
1,1,0.01600,-0.01600,-0.00300*
1,1,0.01600,-0.01600,0.00300*
1,1,0.01600,0.01600,0.00300*
1,1,0.01600,0.01600,-0.00300*
%
%ADD45ROUNDEDRECTD45*%
%ADD46R,0.11624X0.11230*%
G04:AMPARAMS|DCode=47|XSize=26mil|YSize=26mil|CornerRadius=8mil|HoleSize=0mil|Usage=FLASHONLY|Rotation=180.000|XOffset=0mil|YOffset=0mil|HoleType=Round|Shape=RoundedRectangle|*
%AMROUNDEDRECTD47*
21,1,0.02600,0.01000,0,0,180.0*
21,1,0.01000,0.02600,0,0,180.0*
1,1,0.01600,-0.00500,0.00500*
1,1,0.01600,0.00500,0.00500*
1,1,0.01600,0.00500,-0.00500*
1,1,0.01600,-0.00500,-0.00500*
%
%ADD47ROUNDEDRECTD47*%
G04:AMPARAMS|DCode=48|XSize=29.62mil|YSize=41mil|CornerRadius=8.91mil|HoleSize=0mil|Usage=FLASHONLY|Rotation=270.000|XOffset=0mil|YOffset=0mil|HoleType=Round|Shape=RoundedRectangle|*
%AMROUNDEDRECTD48*
21,1,0.02962,0.02319,0,0,270.0*
21,1,0.01181,0.04100,0,0,270.0*
1,1,0.01781,-0.01159,-0.00591*
1,1,0.01781,-0.01159,0.00591*
1,1,0.01781,0.01159,0.00591*
1,1,0.01781,0.01159,-0.00591*
%
%ADD48ROUNDEDRECTD48*%
G04:AMPARAMS|DCode=49|XSize=43.4mil|YSize=45.37mil|CornerRadius=12.35mil|HoleSize=0mil|Usage=FLASHONLY|Rotation=0.000|XOffset=0mil|YOffset=0mil|HoleType=Round|Shape=RoundedRectangle|*
%AMROUNDEDRECTD49*
21,1,0.04340,0.02067,0,0,0.0*
21,1,0.01870,0.04537,0,0,0.0*
1,1,0.02470,0.00935,-0.01034*
1,1,0.02470,-0.00935,-0.01034*
1,1,0.02470,-0.00935,0.01034*
1,1,0.02470,0.00935,0.01034*
%
%ADD49ROUNDEDRECTD49*%
G04:AMPARAMS|DCode=50|XSize=37.5mil|YSize=76.87mil|CornerRadius=10.87mil|HoleSize=0mil|Usage=FLASHONLY|Rotation=180.000|XOffset=0mil|YOffset=0mil|HoleType=Round|Shape=RoundedRectangle|*
%AMROUNDEDRECTD50*
21,1,0.03750,0.05512,0,0,180.0*
21,1,0.01575,0.07687,0,0,180.0*
1,1,0.02175,-0.00787,0.02756*
1,1,0.02175,0.00787,0.02756*
1,1,0.02175,0.00787,-0.02756*
1,1,0.02175,-0.00787,-0.02756*
%
%ADD50ROUNDEDRECTD50*%
%ADD51O,0.01584X0.03356*%
%ADD52O,0.03356X0.01584*%
%ADD53O,0.08868X0.04537*%
%ADD54O,0.06899X0.04537*%
%ADD55C,0.03159*%
D24*
X93468Y75087D02*
D03*
X91500D02*
D03*
X89531D02*
D03*
Y85913D02*
D03*
X91500D02*
D03*
X93468D02*
D03*
D36*
X71200Y23400D02*
D03*
D37*
X60373Y10162D02*
D03*
X62342D02*
D03*
X64310D02*
D03*
X66279D02*
D03*
X68247D02*
D03*
X70216D02*
D03*
X72184D02*
D03*
X74153D02*
D03*
X76121D02*
D03*
X78090D02*
D03*
X80058D02*
D03*
X82027D02*
D03*
Y36638D02*
D03*
X80058D02*
D03*
X78090D02*
D03*
X76121D02*
D03*
X74153D02*
D03*
X72184D02*
D03*
X70216D02*
D03*
X68247D02*
D03*
X66279D02*
D03*
X64310D02*
D03*
X62342D02*
D03*
X60373D02*
D03*
D38*
X84438Y12573D02*
D03*
Y14542D02*
D03*
Y16510D02*
D03*
Y18479D02*
D03*
Y20447D02*
D03*
Y22416D02*
D03*
Y24384D02*
D03*
Y26353D02*
D03*
Y28321D02*
D03*
Y30290D02*
D03*
Y32258D02*
D03*
Y34227D02*
D03*
X57962D02*
D03*
Y32258D02*
D03*
Y30290D02*
D03*
Y28321D02*
D03*
Y26353D02*
D03*
Y24384D02*
D03*
Y22416D02*
D03*
Y20447D02*
D03*
Y18479D02*
D03*
Y16510D02*
D03*
Y14542D02*
D03*
Y12573D02*
D03*
D39*
X89000Y8600D02*
D03*
X93000D02*
D03*
X89000Y90000D02*
D03*
X93000D02*
D03*
X103000Y75500D02*
D03*
X99000D02*
D03*
X96300Y12100D02*
D03*
X100300D02*
D03*
X96300Y8600D02*
D03*
X100300D02*
D03*
X89000Y12100D02*
D03*
X93000D02*
D03*
X100000Y31000D02*
D03*
X104000D02*
D03*
X53000Y26000D02*
D03*
X49000D02*
D03*
X48150Y78100D02*
D03*
X52150D02*
D03*
X44650D02*
D03*
X40650D02*
D03*
X42000Y26000D02*
D03*
X46000D02*
D03*
X35000D02*
D03*
X39000D02*
D03*
X78850Y65400D02*
D03*
X74850D02*
D03*
X67850D02*
D03*
X71850D02*
D03*
X64850D02*
D03*
X60850D02*
D03*
D40*
X89279Y38611D02*
D03*
Y39792D02*
D03*
Y41761D02*
D03*
Y42942D02*
D03*
Y44910D02*
D03*
Y46879D02*
D03*
Y48847D02*
D03*
Y50816D02*
D03*
Y52784D02*
D03*
Y54753D02*
D03*
Y56721D02*
D03*
Y58690D02*
D03*
Y60658D02*
D03*
Y61839D02*
D03*
Y63808D02*
D03*
Y64989D02*
D03*
D41*
X7500Y58200D02*
D03*
Y45200D02*
D03*
X25500D02*
D03*
Y58200D02*
D03*
D42*
X45200Y70263D02*
D03*
Y33137D02*
D03*
D43*
X32800Y58590D02*
D03*
Y56621D02*
D03*
Y54653D02*
D03*
Y52684D02*
D03*
Y50716D02*
D03*
Y48747D02*
D03*
Y46779D02*
D03*
Y44810D02*
D03*
D44*
X67094Y75850D02*
D03*
X69063D02*
D03*
X71031D02*
D03*
X73000D02*
D03*
X74968D02*
D03*
X76937D02*
D03*
X78905D02*
D03*
Y94150D02*
D03*
X76937D02*
D03*
X74968D02*
D03*
X73000D02*
D03*
X71031D02*
D03*
X69063D02*
D03*
X67094D02*
D03*
D45*
X82150Y79094D02*
D03*
Y81063D02*
D03*
Y83031D02*
D03*
Y85000D02*
D03*
Y86968D02*
D03*
Y88937D02*
D03*
Y90905D02*
D03*
X63850D02*
D03*
Y88937D02*
D03*
Y86968D02*
D03*
Y85000D02*
D03*
Y83031D02*
D03*
Y81063D02*
D03*
Y79094D02*
D03*
D46*
X73000Y85000D02*
D03*
X70000Y51500D02*
D03*
D47*
X84500Y75000D02*
D03*
Y71000D02*
D03*
X58000Y78000D02*
D03*
Y74000D02*
D03*
X57000Y42000D02*
D03*
Y46000D02*
D03*
D48*
X102406Y25240D02*
D03*
Y21500D02*
D03*
Y17760D02*
D03*
X91005D02*
D03*
Y25240D02*
D03*
D49*
X35910Y83171D02*
D03*
X43390Y83171D02*
D03*
X39650Y92029D02*
D03*
X49410Y83171D02*
D03*
X56890Y83171D02*
D03*
X53150Y92029D02*
D03*
D50*
X29909Y11000D02*
D03*
X50000D02*
D03*
D51*
X74921Y43232D02*
D03*
X72953D02*
D03*
X70984D02*
D03*
X69016D02*
D03*
X67047D02*
D03*
X65079D02*
D03*
Y59768D02*
D03*
X67047D02*
D03*
X69016D02*
D03*
X70984D02*
D03*
X72953D02*
D03*
X74921D02*
D03*
D52*
X61732Y46579D02*
D03*
Y48547D02*
D03*
Y50516D02*
D03*
Y52484D02*
D03*
Y54453D02*
D03*
Y56421D02*
D03*
X78268D02*
D03*
Y54453D02*
D03*
Y52484D02*
D03*
Y50516D02*
D03*
Y48547D02*
D03*
Y46579D02*
D03*
D53*
X93373Y34772D02*
D03*
Y68828D02*
D03*
D54*
X109121Y34772D02*
D03*
Y68828D02*
D03*
D55*
X95342Y63178D02*
D03*
Y40422D02*
D03*
M02*
