G04*
G04 #@! TF.GenerationSoftware,Altium Limited,Altium Designer,21.0.8 (223)*
G04*
G04 Layer_Color=128*
%FSLAX25Y25*%
%MOIN*%
G70*
G04*
G04 #@! TF.SameCoordinates,8E059B7F-88B0-49DF-8ED0-AD27087E488A*
G04*
G04*
G04 #@! TF.FilePolarity,Positive*
G04*
G01*
G75*
%ADD14C,0.00200*%
D14*
X92192Y34772D02*
X94554D01*
X93373Y33591D02*
Y35954D01*
X92192Y68828D02*
X94554D01*
X93373Y67646D02*
Y70009D01*
X107940Y34772D02*
X110302D01*
X109121Y33591D02*
Y35954D01*
X107940Y68828D02*
X110302D01*
X109121Y67646D02*
Y70009D01*
X94062Y63178D02*
X96621D01*
X95342Y61898D02*
Y64457D01*
X94062Y40422D02*
X96621D01*
X95342Y39143D02*
Y41702D01*
X24900Y49300D02*
X25900D01*
X25400Y48800D02*
Y49800D01*
X28800Y54700D02*
X29800D01*
X29300Y54200D02*
Y55200D01*
X53500Y66400D02*
X54500D01*
X54000Y65900D02*
Y66900D01*
X48300Y70900D02*
X49300D01*
X48800Y70400D02*
Y71400D01*
X85500Y84100D02*
X86500D01*
X86000Y83600D02*
Y84600D01*
X86600Y73300D02*
X87600D01*
X87100Y72800D02*
Y73800D01*
X80400Y27600D02*
X81400D01*
X80900Y27100D02*
Y28100D01*
X72500Y72000D02*
X73500D01*
X73000Y71500D02*
Y72500D01*
X80000Y71600D02*
X81000D01*
X80500Y71100D02*
Y72100D01*
X96700Y43400D02*
X97700D01*
X97200Y42900D02*
Y43900D01*
X50800Y41500D02*
X51800D01*
X51300Y41000D02*
Y42000D01*
X82900Y45900D02*
X83900D01*
X83400Y45400D02*
Y46400D01*
X48500Y41600D02*
X49500D01*
X49000Y41100D02*
Y42100D01*
X54800Y26900D02*
X55800D01*
X55300Y26400D02*
Y27400D01*
X41100Y32000D02*
X42100D01*
X41600Y31500D02*
Y32500D01*
X62600Y33200D02*
X63600D01*
X63100Y32700D02*
Y33700D01*
X81600Y42200D02*
X82600D01*
X82100Y41700D02*
Y42700D01*
X55700Y48800D02*
X56700D01*
X56200Y48300D02*
Y49300D01*
X57400Y53600D02*
X58400D01*
X57900Y53100D02*
Y54100D01*
X63300Y26500D02*
X64300D01*
X63800Y26000D02*
Y27000D01*
X79800Y14100D02*
X80800D01*
X80300Y13600D02*
Y14600D01*
X96000Y25000D02*
X97000D01*
X96500Y24500D02*
Y25500D01*
X91800Y29400D02*
X92800D01*
X92300Y28900D02*
Y29900D01*
X72600Y33800D02*
X73600D01*
X73100Y33300D02*
Y34300D01*
X69200Y33000D02*
X70200D01*
X69700Y32500D02*
Y33500D01*
X68700Y13400D02*
X69700D01*
X69200Y12900D02*
Y13900D01*
X54400Y34900D02*
X55400D01*
X54900Y34400D02*
Y35400D01*
X40500Y45800D02*
X41500D01*
X41000Y45300D02*
Y46300D01*
X38600Y50800D02*
X39600D01*
X39100Y50300D02*
Y51300D01*
X63300Y22500D02*
X64300D01*
X63800Y22000D02*
Y23000D01*
X63300Y18500D02*
X64300D01*
X63800Y18000D02*
Y19000D01*
X68500Y26500D02*
X69500D01*
X69000Y26000D02*
Y27000D01*
X97000Y72200D02*
X98000D01*
X97500Y71700D02*
Y72700D01*
X90000Y79500D02*
X91000D01*
X90500Y79000D02*
Y80000D01*
X85800Y87800D02*
X86800D01*
X86300Y87300D02*
Y88300D01*
X98700Y15200D02*
X99700D01*
X99200Y14700D02*
Y15700D01*
X84100Y56900D02*
X85100D01*
X84600Y56400D02*
Y57400D01*
X84100Y59800D02*
X85100D01*
X84600Y59300D02*
Y60300D01*
X77300Y66500D02*
X78300D01*
X77800Y66000D02*
Y67000D01*
X66600Y62600D02*
X67600D01*
X67100Y62100D02*
Y63100D01*
X59200Y59200D02*
X60200D01*
X59700Y58700D02*
Y59700D01*
X59400Y62400D02*
X60400D01*
X59900Y61900D02*
Y62900D01*
X46000Y89500D02*
X47000D01*
X46500Y89000D02*
Y90000D01*
X46000Y92000D02*
X47000D01*
X46500Y91500D02*
Y92500D01*
X46000Y94500D02*
X47000D01*
X46500Y94000D02*
Y95000D01*
X11900Y49200D02*
X12900D01*
X12400Y48700D02*
Y49700D01*
X11900Y51700D02*
X12900D01*
X12400Y51200D02*
Y52200D01*
X11900Y54200D02*
X12900D01*
X12400Y53700D02*
Y54700D01*
X103000Y14500D02*
X104000D01*
X103500Y14000D02*
Y15000D01*
X54000Y12900D02*
X55000D01*
X54500Y12400D02*
Y13400D01*
X54000Y15600D02*
X55000D01*
X54500Y15100D02*
Y16100D01*
X52900Y18200D02*
X53900D01*
X53400Y17700D02*
Y18700D01*
X57000Y10000D02*
X58000D01*
X57500Y9500D02*
Y10500D01*
X51000Y20000D02*
X52000D01*
X51500Y19500D02*
Y20500D01*
X48500Y20000D02*
X49500D01*
X49000Y19500D02*
Y20500D01*
X46000Y20000D02*
X47000D01*
X46500Y19500D02*
Y20500D01*
X43500Y20000D02*
X44500D01*
X44000Y19500D02*
Y20500D01*
X41000Y20000D02*
X42000D01*
X41500Y19500D02*
Y20500D01*
X38000Y21000D02*
X39000D01*
X38500Y20500D02*
Y21500D01*
X35500Y21000D02*
X36500D01*
X36000Y20500D02*
Y21500D01*
X33000Y21000D02*
X34000D01*
X33500Y20500D02*
Y21500D01*
X30500Y21000D02*
X31500D01*
X31000Y20500D02*
Y21500D01*
X28000Y21000D02*
X29000D01*
X28500Y20500D02*
Y21500D01*
X103000Y47500D02*
X104000D01*
X103500Y47000D02*
Y48000D01*
X103000Y50000D02*
X104000D01*
X103500Y49500D02*
Y50500D01*
X103000Y52500D02*
X104000D01*
X103500Y52000D02*
Y53000D01*
X91500Y21500D02*
X92500D01*
X92000Y21000D02*
Y22000D01*
X94500Y21500D02*
X95500D01*
X95000Y21000D02*
Y22000D01*
X103000Y12000D02*
X104000D01*
X103500Y11500D02*
Y12500D01*
X68500Y18500D02*
X69500D01*
X69000Y18000D02*
Y19000D01*
X65900Y18500D02*
X66900D01*
X66400Y18000D02*
Y19000D01*
X65900Y22500D02*
X66900D01*
X66400Y22000D02*
Y23000D01*
X68500Y22500D02*
X69500D01*
X69000Y22000D02*
Y23000D01*
X65900Y26500D02*
X66900D01*
X66400Y26000D02*
Y27000D01*
X66000Y51000D02*
X67000D01*
X66500Y50500D02*
Y51500D01*
X69500Y51000D02*
X70500D01*
X70000Y50500D02*
Y51500D01*
X73000Y51000D02*
X74000D01*
X73500Y50500D02*
Y51500D01*
X73000Y54500D02*
X74000D01*
X73500Y54000D02*
Y55000D01*
X69500Y54500D02*
X70500D01*
X70000Y54000D02*
Y55000D01*
X66000Y54500D02*
X67000D01*
X66500Y54000D02*
Y55000D01*
X60000Y70500D02*
X61000D01*
X60500Y70000D02*
Y71000D01*
X63000Y72500D02*
X64000D01*
X63500Y72000D02*
Y73000D01*
X69500Y85000D02*
X70500D01*
X70000Y84500D02*
Y85500D01*
X72500Y85000D02*
X73500D01*
X73000Y84500D02*
Y85500D01*
X72500Y88000D02*
X73500D01*
X73000Y87500D02*
Y88500D01*
X69500Y88000D02*
X70500D01*
X70000Y87500D02*
Y88500D01*
X101000Y87500D02*
X102000D01*
X101500Y87000D02*
Y88000D01*
X101000Y90500D02*
X102000D01*
X101500Y90000D02*
Y91000D01*
X98000Y90500D02*
X99000D01*
X98500Y90000D02*
Y91000D01*
X98000Y93500D02*
X99000D01*
X98500Y93000D02*
Y94000D01*
X38300Y35500D02*
X39300D01*
X38800Y35000D02*
Y36000D01*
X39150Y88350D02*
X40150D01*
X39650Y87850D02*
Y88850D01*
X56700Y92000D02*
X57700D01*
X57200Y91500D02*
Y92500D01*
X78100Y61400D02*
X79100D01*
X78600Y60900D02*
Y61900D01*
X81200Y64100D02*
X82200D01*
X81700Y63600D02*
Y64600D01*
X96600Y81400D02*
X97600D01*
X97100Y80900D02*
Y81900D01*
X90500Y14100D02*
X91500D01*
X91000Y13600D02*
Y14600D01*
X80900Y67900D02*
X81900D01*
X81400Y67400D02*
Y68400D01*
X95871Y58829D02*
X96871D01*
X96371Y58329D02*
Y59329D01*
X25000Y54200D02*
X26000D01*
X25500Y53700D02*
Y54700D01*
X81679Y18479D02*
X82679D01*
X82179Y17979D02*
Y18979D01*
X75400Y71400D02*
X76400D01*
X75900Y70900D02*
Y71900D01*
X93800Y49500D02*
X94800D01*
X94300Y49000D02*
Y50000D01*
X84199Y53799D02*
X85199D01*
X84699Y53299D02*
Y54299D01*
X75300Y40500D02*
X76300D01*
X75800Y40000D02*
Y41000D01*
X72500Y40500D02*
X73500D01*
X73000Y40000D02*
Y41000D01*
X84000Y9300D02*
X85000D01*
X84500Y8800D02*
Y9800D01*
X85511Y11000D02*
X86511D01*
X86011Y10500D02*
Y11500D01*
X36800Y52700D02*
X37800D01*
X37300Y52200D02*
Y53200D01*
X36000Y41800D02*
X37000D01*
X36500Y41300D02*
Y42300D01*
X36290Y44810D02*
X37290D01*
X36790Y44310D02*
Y45310D01*
X55700Y70600D02*
X56700D01*
X56200Y70100D02*
Y71100D01*
X52600Y82700D02*
X53600D01*
X53100Y82200D02*
Y83200D01*
X55200Y78000D02*
X56200D01*
X55700Y77500D02*
Y78500D01*
X60369Y83031D02*
X61369D01*
X60869Y82531D02*
Y83531D01*
X41500Y23800D02*
X42500D01*
X42000Y23300D02*
Y24300D01*
X75621Y12679D02*
X76621D01*
X76121Y12179D02*
Y13179D01*
M02*
