G04*
G04 #@! TF.GenerationSoftware,Altium Limited,Altium Designer,21.0.8 (223)*
G04*
G04 Layer_Color=16711935*
%FSLAX25Y25*%
%MOIN*%
G70*
G04*
G04 #@! TF.SameCoordinates,8E059B7F-88B0-49DF-8ED0-AD27087E488A*
G04*
G04*
G04 #@! TF.FilePolarity,Positive*
G04*
G01*
G75*
%ADD16C,0.01000*%
D16*
X23240Y64940D02*
G03*
X26500Y68200I0J3260D01*
G01*
Y34700D02*
G03*
X23240Y37960I-3260J0D01*
G01*
X110300Y31500D02*
G03*
X107040Y28240I0J-3260D01*
G01*
X106990Y75250D02*
G03*
X110250Y71990I3260J0D01*
G01*
X107000Y90000D02*
G03*
X99000Y98000I-8000J0D01*
G01*
Y5500D02*
G03*
X107000Y13500I0J8000D01*
G01*
X26500Y7207D02*
G03*
X28207Y5500I1707J0D01*
G01*
X34500Y98000D02*
G03*
X26500Y90000I0J-8000D01*
G01*
X3500Y64982D02*
X23240D01*
X26482Y68200D02*
Y90000D01*
X3500Y38000D02*
X23240D01*
X26500Y7207D02*
Y34700D01*
X28207Y5500D02*
X99000Y5500D01*
X107000Y13500D02*
Y28240D01*
X110300Y31500D02*
X115700D01*
X110250Y72000D02*
X115700D01*
X107000Y75250D02*
Y90000D01*
X34500Y98000D02*
X99000Y98000D01*
X115700Y31500D02*
Y72000D01*
X3500Y38000D02*
Y64982D01*
M02*
