M48
;Layer_Color=9474304
;FILE_FORMAT=2:5
INCH,TZ
;TYPE=PLATED
T1F00S00C0.01000
T3F00S00C0.02559
%
T01
X28500Y21000
X31000
X33500
X36000
X38500
X41500Y20000
X44000
X46500
X49000
X51500
X53400Y18200
X54500Y15600
Y12900
X57500Y10000
X63800Y18500
X66400
X69000
Y22500
X66400
X63800
Y26500
X66400
X69000
X69700Y33000
X73100Y33800
X73000Y40500
X75800
X82100Y42200
X83400Y45900
X84699Y53799
X84600Y56900
Y59800
X81700Y64100
X78600Y61400
X73500Y54500
Y51000
X70000
X66500
Y54500
X70000
X67100Y62600
X59900Y62400
X59700Y59200
X57900Y53600
X56200Y48800
X51300Y41500
X49000Y41600
X41000Y45800
X36790Y44810
X36500Y41800
X38800Y35500
X41600Y32000
X42000Y23800
X55300Y26900
X54900Y34900
X63100Y33200
X80900Y27600
X82179Y18479
X80300Y14100
X76121Y12679
X69200Y13400
X86011Y11000
X84500Y9300
X39100Y50800
X37300Y52700
X29300Y54700
X25500Y54200
X25400Y49300
X12400Y49200
Y51700
Y54200
X54000Y66400
X96371Y58829
X94300Y49500
X97200Y43400
X103500Y47500
Y50000
Y52500
X92300Y29400
X92000Y21500
X95000
X96500Y25000
X99200Y15200
X103500Y14500
Y12000
X91000Y14100
X97500Y72200
X97100Y81400
X90500Y79500
X101500Y87500
Y90500
X98500
Y93500
X86300Y87800
X86000Y84100
X87100Y73300
X80500Y71600
X81400Y67900
X77800Y66500
X75900Y71400
X73000Y72000
X63500Y72500
X60500Y70500
X56200Y70600
X48800Y70900
X55700Y78000
X53100Y82700
X60869Y83031
X70000Y85000
X73000
Y88000
X70000
X57200Y92000
X46500
Y89500
Y94500
X39650Y88350
T03
X95342Y40422
Y63178
M30
