G04*
G04 #@! TF.GenerationSoftware,Altium Limited,Altium Designer,21.0.8 (223)*
G04*
G04 Layer_Physical_Order=2*
G04 Layer_Color=16711680*
%FSLAX25Y25*%
%MOIN*%
G70*
G04*
G04 #@! TF.SameCoordinates,8E059B7F-88B0-49DF-8ED0-AD27087E488A*
G04*
G04*
G04 #@! TF.FilePolarity,Positive*
G04*
G01*
G75*
%ADD16C,0.01000*%
G04:AMPARAMS|DCode=21|XSize=20mil|YSize=20mil|CornerRadius=5mil|HoleSize=0mil|Usage=FLASHONLY|Rotation=270.000|XOffset=0mil|YOffset=0mil|HoleType=Round|Shape=RoundedRectangle|*
%AMROUNDEDRECTD21*
21,1,0.02000,0.01000,0,0,270.0*
21,1,0.01000,0.02000,0,0,270.0*
1,1,0.01000,-0.00500,-0.00500*
1,1,0.01000,-0.00500,0.00500*
1,1,0.01000,0.00500,0.00500*
1,1,0.01000,0.00500,-0.00500*
%
%ADD21ROUNDEDRECTD21*%
%ADD56C,0.00400*%
%ADD57O,0.08268X0.03937*%
%ADD58O,0.06299X0.03937*%
%ADD59C,0.02559*%
%ADD60C,0.01800*%
%ADD61C,0.01600*%
G04:AMPARAMS|DCode=62|XSize=31.5mil|YSize=59.06mil|CornerRadius=7.87mil|HoleSize=0mil|Usage=FLASHONLY|Rotation=90.000|XOffset=0mil|YOffset=0mil|HoleType=Round|Shape=RoundedRectangle|*
%AMROUNDEDRECTD62*
21,1,0.03150,0.04331,0,0,90.0*
21,1,0.01575,0.05906,0,0,90.0*
1,1,0.01575,0.02165,0.00787*
1,1,0.01575,0.02165,-0.00787*
1,1,0.01575,-0.02165,-0.00787*
1,1,0.01575,-0.02165,0.00787*
%
%ADD62ROUNDEDRECTD62*%
G04:AMPARAMS|DCode=63|XSize=31.5mil|YSize=55.12mil|CornerRadius=7.87mil|HoleSize=0mil|Usage=FLASHONLY|Rotation=90.000|XOffset=0mil|YOffset=0mil|HoleType=Round|Shape=RoundedRectangle|*
%AMROUNDEDRECTD63*
21,1,0.03150,0.03937,0,0,90.0*
21,1,0.01575,0.05512,0,0,90.0*
1,1,0.01575,0.01968,0.00787*
1,1,0.01575,0.01968,-0.00787*
1,1,0.01575,-0.01968,-0.00787*
1,1,0.01575,-0.01968,0.00787*
%
%ADD63ROUNDEDRECTD63*%
G04:AMPARAMS|DCode=64|XSize=40mil|YSize=59.06mil|CornerRadius=10mil|HoleSize=0mil|Usage=FLASHONLY|Rotation=90.000|XOffset=0mil|YOffset=0mil|HoleType=Round|Shape=RoundedRectangle|*
%AMROUNDEDRECTD64*
21,1,0.04000,0.03906,0,0,90.0*
21,1,0.02000,0.05906,0,0,90.0*
1,1,0.02000,0.01953,0.01000*
1,1,0.02000,0.01953,-0.01000*
1,1,0.02000,-0.01953,-0.01000*
1,1,0.02000,-0.01953,0.01000*
%
%ADD64ROUNDEDRECTD64*%
G04:AMPARAMS|DCode=65|XSize=59.06mil|YSize=59.06mil|CornerRadius=14.76mil|HoleSize=0mil|Usage=FLASHONLY|Rotation=90.000|XOffset=0mil|YOffset=0mil|HoleType=Round|Shape=RoundedRectangle|*
%AMROUNDEDRECTD65*
21,1,0.05906,0.02953,0,0,90.0*
21,1,0.02953,0.05906,0,0,90.0*
1,1,0.02953,0.01476,0.01476*
1,1,0.02953,0.01476,-0.01476*
1,1,0.02953,-0.01476,-0.01476*
1,1,0.02953,-0.01476,0.01476*
%
%ADD65ROUNDEDRECTD65*%
G04:AMPARAMS|DCode=66|XSize=57.09mil|YSize=39.37mil|CornerRadius=9.84mil|HoleSize=0mil|Usage=FLASHONLY|Rotation=90.000|XOffset=0mil|YOffset=0mil|HoleType=Round|Shape=RoundedRectangle|*
%AMROUNDEDRECTD66*
21,1,0.05709,0.01968,0,0,90.0*
21,1,0.03740,0.03937,0,0,90.0*
1,1,0.01968,0.00984,0.01870*
1,1,0.01968,0.00984,-0.01870*
1,1,0.01968,-0.00984,-0.01870*
1,1,0.01968,-0.00984,0.01870*
%
%ADD66ROUNDEDRECTD66*%
G04:AMPARAMS|DCode=67|XSize=39.37mil|YSize=61.02mil|CornerRadius=9.84mil|HoleSize=0mil|Usage=FLASHONLY|Rotation=90.000|XOffset=0mil|YOffset=0mil|HoleType=Round|Shape=RoundedRectangle|*
%AMROUNDEDRECTD67*
21,1,0.03937,0.04134,0,0,90.0*
21,1,0.01968,0.06102,0,0,90.0*
1,1,0.01968,0.02067,0.00984*
1,1,0.01968,0.02067,-0.00984*
1,1,0.01968,-0.02067,-0.00984*
1,1,0.01968,-0.02067,0.00984*
%
%ADD67ROUNDEDRECTD67*%
G04:AMPARAMS|DCode=68|XSize=27.56mil|YSize=68.9mil|CornerRadius=6.89mil|HoleSize=0mil|Usage=FLASHONLY|Rotation=90.000|XOffset=0mil|YOffset=0mil|HoleType=Round|Shape=RoundedRectangle|*
%AMROUNDEDRECTD68*
21,1,0.02756,0.05512,0,0,90.0*
21,1,0.01378,0.06890,0,0,90.0*
1,1,0.01378,0.02756,0.00689*
1,1,0.01378,0.02756,-0.00689*
1,1,0.01378,-0.02756,-0.00689*
1,1,0.01378,-0.02756,0.00689*
%
%ADD68ROUNDEDRECTD68*%
G36*
X100362Y96849D02*
X101672Y96452D01*
X102880Y95807D01*
X103938Y94938D01*
X104807Y93880D01*
X105452Y92672D01*
X105849Y91362D01*
X105983Y90011D01*
X105980Y90000D01*
Y75298D01*
X105971Y75250D01*
X105954D01*
X106100Y74138D01*
X106529Y73102D01*
X107212Y72212D01*
X108102Y71529D01*
X109138Y71100D01*
X110250Y70954D01*
Y70971D01*
X110298Y70980D01*
X114680D01*
Y32520D01*
X110300D01*
Y32537D01*
X109188Y32390D01*
X108152Y31961D01*
X107262Y31278D01*
X106579Y30389D01*
X106150Y29352D01*
X106049Y28586D01*
X105980Y28240D01*
Y13500D01*
X105983Y13489D01*
X105849Y12138D01*
X105452Y10827D01*
X104807Y9620D01*
X103938Y8562D01*
X102880Y7693D01*
X101672Y7048D01*
X100362Y6651D01*
X99486Y6564D01*
X99000Y6520D01*
X99000Y6520D01*
X98509Y6520D01*
X54500Y6520D01*
Y17000D01*
X51625Y20000D01*
X27520Y20000D01*
Y34700D01*
X27537D01*
X27390Y35812D01*
X26961Y36848D01*
X26278Y37738D01*
X25389Y38421D01*
X24352Y38850D01*
X23586Y38951D01*
X23240Y39020D01*
X4520D01*
Y63963D01*
X23030D01*
X23240Y63921D01*
Y63904D01*
X24352Y64050D01*
X25389Y64479D01*
X26278Y65162D01*
X26961Y66052D01*
X27390Y67088D01*
X27537Y68200D01*
X27520D01*
X27502Y68290D01*
Y89911D01*
X27520Y90000D01*
X27520D01*
X27517Y90003D01*
X27651Y91362D01*
X28048Y92672D01*
X28693Y93880D01*
X29562Y94938D01*
X30620Y95807D01*
X31828Y96452D01*
X33138Y96849D01*
X34489Y96983D01*
X34500Y96980D01*
X99000Y96980D01*
X99011Y96983D01*
X100362Y96849D01*
D02*
G37*
%LPC*%
G36*
X57200Y93326D02*
X56693Y93225D01*
X56263Y92937D01*
X55975Y92507D01*
X55875Y92000D01*
X55975Y91493D01*
X56263Y91063D01*
X56693Y90775D01*
X57200Y90675D01*
X57707Y90775D01*
X58081Y91025D01*
X58149Y91052D01*
X58209Y91111D01*
X58256Y91152D01*
X58299Y91186D01*
X58338Y91211D01*
X58371Y91231D01*
X58398Y91243D01*
X58419Y91251D01*
X58435Y91256D01*
X58446Y91258D01*
X58484Y91260D01*
X58540Y91286D01*
X91504D01*
X100286Y82504D01*
Y75976D01*
X99824Y75785D01*
X97605Y78005D01*
X97373Y78159D01*
X97100Y78214D01*
X79500D01*
X79227Y78159D01*
X78995Y78005D01*
X75395Y74405D01*
X75241Y74173D01*
X75186Y73900D01*
Y72740D01*
X75160Y72684D01*
X75158Y72646D01*
X75156Y72635D01*
X75151Y72619D01*
X75143Y72598D01*
X75131Y72571D01*
X75112Y72538D01*
X75090Y72506D01*
X75005Y72403D01*
X74952Y72349D01*
X74925Y72281D01*
X74813Y72113D01*
X74282Y72218D01*
X74225Y72507D01*
X73937Y72937D01*
X73507Y73225D01*
X73000Y73326D01*
X72493Y73225D01*
X72063Y72937D01*
X71775Y72507D01*
X71675Y72000D01*
X71775Y71493D01*
X72025Y71119D01*
X72052Y71051D01*
X72111Y70991D01*
X72152Y70944D01*
X72186Y70901D01*
X72211Y70862D01*
X72231Y70829D01*
X72243Y70802D01*
X72251Y70781D01*
X72256Y70765D01*
X72258Y70754D01*
X72260Y70716D01*
X72286Y70660D01*
Y70400D01*
X72341Y70127D01*
X72495Y69895D01*
X73395Y68995D01*
X73627Y68841D01*
X73900Y68786D01*
X76600D01*
X76873Y68841D01*
X77105Y68995D01*
X78705Y70595D01*
X78859Y70827D01*
X78914Y71100D01*
Y74504D01*
X80196Y75786D01*
X96104D01*
X97944Y73947D01*
X97697Y73486D01*
X97500Y73526D01*
X96993Y73425D01*
X96563Y73137D01*
X96275Y72707D01*
X96175Y72200D01*
X96275Y71693D01*
X96563Y71263D01*
X96993Y70975D01*
X97500Y70875D01*
X97986Y70971D01*
X98011Y70973D01*
X98486Y70694D01*
Y57196D01*
X95803Y54513D01*
X86039D01*
X85983Y54539D01*
X85945Y54541D01*
X85934Y54543D01*
X85918Y54548D01*
X85897Y54555D01*
X85869Y54568D01*
X85837Y54587D01*
X85805Y54609D01*
X85702Y54694D01*
X85647Y54747D01*
X85580Y54774D01*
X85206Y55023D01*
X84699Y55124D01*
X84192Y55023D01*
X84114Y54971D01*
X83614Y55239D01*
Y62404D01*
X84205Y62995D01*
X84359Y63227D01*
X84414Y63500D01*
Y64800D01*
X84359Y65073D01*
X84205Y65305D01*
X83129Y66380D01*
X83301Y66871D01*
X83309Y66880D01*
X84878D01*
X93650Y58108D01*
X93981Y57887D01*
X94371Y57810D01*
X95206D01*
X95254Y57788D01*
X95487Y57783D01*
X95580Y57776D01*
X95599Y57773D01*
X95604Y57772D01*
X95615Y57769D01*
X95617Y57769D01*
X95864Y57605D01*
X96371Y57504D01*
X96878Y57605D01*
X97308Y57892D01*
X97595Y58322D01*
X97696Y58829D01*
X97595Y59336D01*
X97308Y59766D01*
X96878Y60054D01*
X96371Y60155D01*
X95864Y60054D01*
X95617Y59889D01*
X95615Y59889D01*
X95612Y59888D01*
X95338Y59871D01*
X95263Y59870D01*
X95212Y59849D01*
X94793D01*
X86021Y68621D01*
X85690Y68842D01*
X85300Y68920D01*
X82565D01*
X82516Y68941D01*
X82284Y68946D01*
X82191Y68953D01*
X82172Y68956D01*
X82167Y68957D01*
X82156Y68960D01*
X82154Y68960D01*
X81907Y69125D01*
X81400Y69226D01*
X80893Y69125D01*
X80463Y68837D01*
X80175Y68407D01*
X80075Y67900D01*
X80175Y67393D01*
X80463Y66963D01*
X80396Y66406D01*
X79195Y65205D01*
X79041Y64973D01*
X78986Y64700D01*
Y63200D01*
X78995Y63157D01*
X78635Y62735D01*
X78610Y62723D01*
X78600Y62726D01*
X78093Y62625D01*
X77846Y62460D01*
X77844Y62460D01*
X77841Y62459D01*
X77567Y62442D01*
X77492Y62441D01*
X77441Y62420D01*
X76522D01*
X69720Y69222D01*
Y72327D01*
X69741Y72373D01*
X69747Y72550D01*
X69764Y72701D01*
X69791Y72844D01*
X69829Y72981D01*
X69877Y73112D01*
X69936Y73240D01*
X70006Y73363D01*
X70088Y73484D01*
X70183Y73602D01*
X70303Y73731D01*
X70321Y73779D01*
X76922Y80380D01*
X95935D01*
X95984Y80359D01*
X96216Y80354D01*
X96309Y80347D01*
X96328Y80344D01*
X96333Y80343D01*
X96344Y80340D01*
X96346Y80340D01*
X96593Y80175D01*
X97100Y80075D01*
X97607Y80175D01*
X98037Y80463D01*
X98325Y80893D01*
X98426Y81400D01*
X98325Y81907D01*
X98037Y82337D01*
X97607Y82625D01*
X97100Y82726D01*
X96593Y82625D01*
X96346Y82460D01*
X96344Y82460D01*
X96341Y82459D01*
X96067Y82442D01*
X95992Y82441D01*
X95941Y82420D01*
X76500D01*
X76110Y82342D01*
X75779Y82121D01*
X69091Y75433D01*
X69045Y75416D01*
X68928Y75311D01*
X68847Y75254D01*
X68783Y75222D01*
X68736Y75208D01*
X68700Y75205D01*
X68664Y75208D01*
X68617Y75222D01*
X68553Y75254D01*
X68472Y75311D01*
X68355Y75416D01*
X68309Y75433D01*
X67721Y76021D01*
X67390Y76242D01*
X67000Y76320D01*
X56357D01*
X56279Y76557D01*
X56273Y76820D01*
X56637Y77063D01*
X56925Y77493D01*
X57012Y77933D01*
X57041Y78000D01*
X57042Y78084D01*
X57047Y78147D01*
X57053Y78201D01*
X57062Y78247D01*
X57072Y78284D01*
X57082Y78312D01*
X57091Y78333D01*
X57100Y78347D01*
X57106Y78356D01*
X57131Y78384D01*
X57152Y78443D01*
X60328Y81618D01*
X60373Y81631D01*
X60383Y81648D01*
X60402Y81655D01*
X60430Y81680D01*
X60436Y81684D01*
X60444Y81689D01*
X60457Y81694D01*
X60475Y81699D01*
X60501Y81705D01*
X60536Y81709D01*
X60580Y81710D01*
X60632Y81708D01*
X60708Y81700D01*
X60785Y81723D01*
X60869Y81706D01*
X61376Y81807D01*
X61806Y82094D01*
X62093Y82524D01*
X62194Y83031D01*
X62093Y83539D01*
X61806Y83969D01*
X61376Y84256D01*
X60869Y84357D01*
X60361Y84256D01*
X59931Y83969D01*
X59644Y83539D01*
X59595Y83291D01*
X59537Y83191D01*
X59526Y83106D01*
X59497Y82959D01*
X59483Y82910D01*
X59468Y82864D01*
X59452Y82827D01*
X59438Y82799D01*
X59426Y82779D01*
X59417Y82767D01*
X59392Y82739D01*
X59371Y82680D01*
X56143Y79452D01*
X56084Y79431D01*
X56056Y79406D01*
X56047Y79400D01*
X56033Y79391D01*
X56012Y79382D01*
X55984Y79372D01*
X55947Y79362D01*
X55909Y79355D01*
X55777Y79342D01*
X55700Y79341D01*
X55633Y79312D01*
X55193Y79225D01*
X54763Y78937D01*
X54475Y78507D01*
X54420Y78229D01*
X53894Y78048D01*
X52221Y79721D01*
X51890Y79942D01*
X51500Y80020D01*
X39500D01*
X39110Y79942D01*
X38779Y79721D01*
X36379Y77321D01*
X36158Y76990D01*
X36080Y76600D01*
Y75311D01*
X36059Y75263D01*
X36059Y75256D01*
X36027Y75242D01*
X36014Y75211D01*
X35879Y75121D01*
X35658Y74790D01*
X35580Y74400D01*
Y73400D01*
X35658Y73010D01*
X35879Y72679D01*
X36014Y72589D01*
X36027Y72558D01*
X36059Y72544D01*
X36059Y72537D01*
X36080Y72489D01*
Y71811D01*
X36059Y71763D01*
X36059Y71756D01*
X36027Y71742D01*
X36014Y71711D01*
X35879Y71621D01*
X35658Y71290D01*
X35580Y70900D01*
Y69900D01*
X35658Y69510D01*
X35879Y69179D01*
X36014Y69089D01*
X36027Y69058D01*
X36059Y69044D01*
X36059Y69037D01*
X36080Y68989D01*
Y68311D01*
X36059Y68263D01*
X36059Y68256D01*
X36027Y68242D01*
X36014Y68211D01*
X35879Y68121D01*
X35658Y67790D01*
X35580Y67400D01*
Y66400D01*
X35658Y66010D01*
X35879Y65679D01*
X36014Y65589D01*
X36027Y65558D01*
X36059Y65544D01*
X36059Y65537D01*
X36080Y65489D01*
Y64811D01*
X36059Y64763D01*
X36059Y64756D01*
X36027Y64742D01*
X36014Y64711D01*
X35879Y64621D01*
X35658Y64290D01*
X35580Y63900D01*
Y62900D01*
X35658Y62510D01*
X35879Y62179D01*
X36210Y61958D01*
X36600Y61880D01*
X37600D01*
X37886Y61937D01*
X38238Y61747D01*
X38386Y61621D01*
Y58176D01*
X37924Y57985D01*
X33114Y62796D01*
Y76804D01*
X38296Y81986D01*
X51760D01*
X51816Y81960D01*
X51854Y81958D01*
X51865Y81956D01*
X51881Y81951D01*
X51902Y81944D01*
X51929Y81931D01*
X51962Y81911D01*
X51994Y81890D01*
X52097Y81805D01*
X52151Y81752D01*
X52219Y81725D01*
X52593Y81475D01*
X53100Y81375D01*
X53607Y81475D01*
X54037Y81763D01*
X54325Y82193D01*
X54426Y82700D01*
X54325Y83207D01*
X54037Y83637D01*
X53607Y83925D01*
X53100Y84026D01*
X52593Y83925D01*
X52219Y83675D01*
X52151Y83648D01*
X52091Y83589D01*
X52044Y83548D01*
X52001Y83514D01*
X51962Y83489D01*
X51929Y83469D01*
X51902Y83456D01*
X51881Y83448D01*
X51865Y83444D01*
X51854Y83442D01*
X51816Y83440D01*
X51760Y83414D01*
X38000D01*
X37727Y83359D01*
X37495Y83205D01*
X32576Y78285D01*
X32114Y78476D01*
Y79804D01*
X39207Y86898D01*
X39266Y86919D01*
X39294Y86944D01*
X39303Y86950D01*
X39317Y86959D01*
X39338Y86968D01*
X39366Y86978D01*
X39403Y86988D01*
X39441Y86995D01*
X39573Y87008D01*
X39650Y87009D01*
X39717Y87038D01*
X40157Y87125D01*
X40587Y87413D01*
X40875Y87843D01*
X40975Y88350D01*
X40875Y88857D01*
X40587Y89287D01*
X40157Y89575D01*
X39650Y89675D01*
X39143Y89575D01*
X38713Y89287D01*
X38425Y88857D01*
X38338Y88417D01*
X38309Y88350D01*
X38308Y88266D01*
X38304Y88203D01*
X38297Y88149D01*
X38288Y88103D01*
X38278Y88066D01*
X38268Y88038D01*
X38259Y88017D01*
X38250Y88003D01*
X38244Y87994D01*
X38219Y87966D01*
X38198Y87907D01*
X30895Y80605D01*
X30741Y80373D01*
X30686Y80100D01*
Y62227D01*
X30741Y61954D01*
X30895Y61722D01*
X40686Y51932D01*
Y47627D01*
X40741Y47354D01*
X40401Y46963D01*
X40119Y46775D01*
X40051Y46748D01*
X39991Y46689D01*
X39944Y46648D01*
X39901Y46614D01*
X39862Y46589D01*
X39829Y46569D01*
X39802Y46556D01*
X39781Y46549D01*
X39765Y46544D01*
X39754Y46542D01*
X39716Y46540D01*
X39660Y46514D01*
X37780D01*
X37506Y46459D01*
X37275Y46305D01*
X37232Y46262D01*
X37174Y46242D01*
X37146Y46216D01*
X37137Y46210D01*
X37123Y46202D01*
X37102Y46192D01*
X37074Y46182D01*
X37037Y46172D01*
X36999Y46165D01*
X36867Y46152D01*
X36790Y46151D01*
X36723Y46122D01*
X36283Y46035D01*
X35914Y45788D01*
X35653Y45858D01*
X35414Y45991D01*
Y49804D01*
X36857Y51248D01*
X36916Y51269D01*
X36944Y51294D01*
X36953Y51300D01*
X36967Y51309D01*
X36988Y51318D01*
X37016Y51328D01*
X37053Y51338D01*
X37091Y51345D01*
X37223Y51358D01*
X37300Y51359D01*
X37367Y51388D01*
X37807Y51475D01*
X38237Y51763D01*
X38525Y52193D01*
X38625Y52700D01*
X38525Y53207D01*
X38237Y53637D01*
X37807Y53925D01*
X37300Y54026D01*
X36793Y53925D01*
X36363Y53637D01*
X36075Y53207D01*
X35988Y52767D01*
X35959Y52700D01*
X35958Y52615D01*
X35954Y52553D01*
X35947Y52499D01*
X35938Y52453D01*
X35928Y52416D01*
X35918Y52388D01*
X35909Y52367D01*
X35900Y52353D01*
X35894Y52344D01*
X35869Y52316D01*
X35848Y52257D01*
X34195Y50605D01*
X34041Y50373D01*
X33986Y50100D01*
Y47295D01*
X33486Y47183D01*
X33405Y47305D01*
X26952Y53757D01*
X26931Y53816D01*
X26906Y53844D01*
X26900Y53853D01*
X26891Y53867D01*
X26882Y53888D01*
X26872Y53916D01*
X26862Y53953D01*
X26855Y53991D01*
X26842Y54123D01*
X26841Y54200D01*
X26812Y54267D01*
X26725Y54707D01*
X26437Y55137D01*
X26007Y55425D01*
X25500Y55525D01*
X24993Y55425D01*
X24563Y55137D01*
X24275Y54707D01*
X24174Y54200D01*
X24275Y53693D01*
X24563Y53263D01*
X24993Y52975D01*
X25433Y52888D01*
X25500Y52859D01*
X25585Y52858D01*
X25647Y52854D01*
X25701Y52847D01*
X25747Y52838D01*
X25784Y52828D01*
X25812Y52818D01*
X25833Y52809D01*
X25847Y52800D01*
X25856Y52794D01*
X25884Y52769D01*
X25943Y52748D01*
X32186Y46504D01*
Y30100D01*
X32241Y29827D01*
X32395Y29595D01*
X40431Y21560D01*
X40663Y21405D01*
X40936Y21350D01*
X51822D01*
X53777Y19395D01*
X54009Y19241D01*
X54282Y19186D01*
X55004D01*
X64495Y9695D01*
X64727Y9541D01*
X65000Y9486D01*
X76700D01*
X76973Y9541D01*
X77205Y9695D01*
X79005Y11495D01*
X79159Y11727D01*
X79214Y12000D01*
Y12541D01*
X79714Y12808D01*
X79754Y12781D01*
X80300Y12673D01*
X80846Y12781D01*
X80972Y12866D01*
X81067Y12880D01*
X81268Y13002D01*
X81342Y13042D01*
X81492Y13113D01*
X81542Y13132D01*
X81587Y13147D01*
X81621Y13155D01*
X81640Y13158D01*
X81677Y13160D01*
X81732Y13186D01*
X81800D01*
X82073Y13241D01*
X82305Y13395D01*
X83286Y14377D01*
X83786Y14170D01*
Y10640D01*
X83760Y10584D01*
X83758Y10546D01*
X83756Y10535D01*
X83751Y10519D01*
X83744Y10498D01*
X83731Y10471D01*
X83711Y10438D01*
X83690Y10406D01*
X83605Y10303D01*
X83552Y10249D01*
X83525Y10181D01*
X83275Y9807D01*
X83175Y9300D01*
X83275Y8793D01*
X83563Y8363D01*
X83993Y8075D01*
X84500Y7975D01*
X85007Y8075D01*
X85437Y8363D01*
X85725Y8793D01*
X85826Y9300D01*
X85794Y9457D01*
X86011Y9674D01*
X86519Y9775D01*
X86949Y10063D01*
X87236Y10493D01*
X87337Y11000D01*
X87236Y11507D01*
X86968Y11908D01*
X86946Y11962D01*
X86887Y12021D01*
X86846Y12067D01*
X86813Y12108D01*
X86787Y12145D01*
X86769Y12177D01*
X86756Y12203D01*
X86748Y12223D01*
X86744Y12239D01*
X86742Y12249D01*
X86740Y12287D01*
X86714Y12343D01*
Y19900D01*
X86659Y20173D01*
X86505Y20405D01*
X83705Y23205D01*
X83473Y23359D01*
X83200Y23414D01*
X79468D01*
X77214Y25668D01*
Y28504D01*
X83830Y35121D01*
X84384Y35186D01*
X84509Y35149D01*
X88380Y31278D01*
Y15700D01*
X88458Y15310D01*
X88679Y14979D01*
X89455Y14203D01*
X89474Y14153D01*
X89635Y13985D01*
X89696Y13915D01*
X89708Y13899D01*
X89710Y13895D01*
X89716Y13885D01*
X89718Y13884D01*
X89775Y13593D01*
X90063Y13163D01*
X90493Y12875D01*
X91000Y12775D01*
X91507Y12875D01*
X91937Y13163D01*
X92225Y13593D01*
X92326Y14100D01*
X92225Y14607D01*
X91937Y15037D01*
X91507Y15325D01*
X91216Y15382D01*
X91215Y15384D01*
X91212Y15385D01*
X91006Y15567D01*
X90953Y15620D01*
X90901Y15641D01*
X90420Y16122D01*
Y26818D01*
X90882Y27009D01*
X91395Y26495D01*
X91627Y26341D01*
X91900Y26286D01*
X94204D01*
X94931Y25559D01*
X94951Y25502D01*
X94978Y25472D01*
X94986Y25461D01*
X94996Y25442D01*
X95009Y25413D01*
X95022Y25374D01*
X95034Y25323D01*
X95043Y25269D01*
X95058Y25100D01*
X95059Y25003D01*
X95083Y24945D01*
X95181Y24454D01*
X95491Y23991D01*
X95954Y23681D01*
X96500Y23573D01*
X97046Y23681D01*
X97509Y23991D01*
X97819Y24454D01*
X97927Y25000D01*
X97819Y25546D01*
X97509Y26009D01*
X97046Y26319D01*
X96555Y26417D01*
X96497Y26441D01*
X96393Y26442D01*
X96311Y26447D01*
X96238Y26455D01*
X96177Y26466D01*
X96127Y26478D01*
X96087Y26491D01*
X96058Y26504D01*
X96039Y26514D01*
X96028Y26522D01*
X95998Y26549D01*
X95941Y26568D01*
X95005Y27505D01*
X94773Y27659D01*
X94500Y27714D01*
X93238D01*
X93160Y27810D01*
X93176Y28286D01*
X93249Y28452D01*
X93309Y28511D01*
X93356Y28552D01*
X93399Y28586D01*
X93438Y28611D01*
X93471Y28631D01*
X93498Y28644D01*
X93519Y28651D01*
X93535Y28656D01*
X93546Y28658D01*
X93584Y28660D01*
X93640Y28686D01*
X96200D01*
X96473Y28741D01*
X96705Y28895D01*
X100605Y32795D01*
X100759Y33027D01*
X100814Y33300D01*
Y53732D01*
X101505Y54423D01*
X101659Y54654D01*
X101714Y54927D01*
Y82800D01*
X101659Y83073D01*
X101505Y83305D01*
X92305Y92505D01*
X92073Y92659D01*
X91800Y92714D01*
X58540D01*
X58484Y92740D01*
X58446Y92742D01*
X58435Y92744D01*
X58419Y92748D01*
X58398Y92756D01*
X58371Y92769D01*
X58338Y92788D01*
X58306Y92810D01*
X58203Y92895D01*
X58149Y92948D01*
X58081Y92975D01*
X57707Y93225D01*
X57200Y93326D01*
D02*
G37*
G36*
X95342Y64992D02*
X94647Y64854D01*
X94059Y64461D01*
X93665Y63872D01*
X93527Y63178D01*
X93665Y62484D01*
X94059Y61895D01*
X94647Y61502D01*
X95342Y61364D01*
X96036Y61502D01*
X96625Y61895D01*
X97018Y62484D01*
X97156Y63178D01*
X97018Y63872D01*
X96625Y64461D01*
X96036Y64854D01*
X95342Y64992D01*
D02*
G37*
%LPD*%
G36*
X57842Y92492D02*
X57981Y92376D01*
X58050Y92330D01*
X58119Y92290D01*
X58187Y92258D01*
X58254Y92232D01*
X58321Y92214D01*
X58388Y92204D01*
X58455Y92200D01*
Y91800D01*
X58388Y91796D01*
X58321Y91786D01*
X58254Y91768D01*
X58187Y91742D01*
X58119Y91710D01*
X58050Y91670D01*
X57981Y91624D01*
X57912Y91570D01*
X57842Y91508D01*
X57771Y91440D01*
Y92560D01*
X57842Y92492D01*
D02*
G37*
G36*
X39642Y87550D02*
X39544Y87549D01*
X39364Y87532D01*
X39282Y87516D01*
X39206Y87495D01*
X39134Y87470D01*
X39069Y87440D01*
X39009Y87405D01*
X38954Y87366D01*
X38904Y87322D01*
X38621Y87604D01*
X38666Y87654D01*
X38705Y87709D01*
X38740Y87769D01*
X38770Y87835D01*
X38795Y87906D01*
X38816Y87982D01*
X38832Y88064D01*
X38842Y88151D01*
X38849Y88244D01*
X38850Y88342D01*
X39642Y87550D01*
D02*
G37*
G36*
X60764Y82238D02*
X60670Y82248D01*
X60581Y82251D01*
X60497Y82249D01*
X60418Y82240D01*
X60343Y82225D01*
X60274Y82204D01*
X60208Y82177D01*
X60148Y82143D01*
X60092Y82104D01*
X60041Y82058D01*
X59794Y82377D01*
X59837Y82424D01*
X59876Y82477D01*
X59912Y82537D01*
X59945Y82602D01*
X59974Y82673D01*
X60001Y82751D01*
X60024Y82834D01*
X60060Y83019D01*
X60074Y83120D01*
X60764Y82238D01*
D02*
G37*
G36*
X52529Y82140D02*
X52458Y82208D01*
X52319Y82324D01*
X52250Y82370D01*
X52181Y82410D01*
X52113Y82442D01*
X52046Y82468D01*
X51978Y82486D01*
X51912Y82496D01*
X51845Y82500D01*
Y82900D01*
X51912Y82904D01*
X51978Y82914D01*
X52046Y82932D01*
X52113Y82958D01*
X52181Y82990D01*
X52250Y83030D01*
X52319Y83076D01*
X52388Y83130D01*
X52458Y83192D01*
X52529Y83260D01*
Y82140D01*
D02*
G37*
G36*
X96529Y80840D02*
X96513Y80851D01*
X96488Y80862D01*
X96456Y80871D01*
X96415Y80878D01*
X96366Y80885D01*
X96243Y80895D01*
X95995Y80900D01*
Y81900D01*
X96086Y81901D01*
X96415Y81922D01*
X96456Y81929D01*
X96488Y81938D01*
X96513Y81949D01*
X96529Y81960D01*
Y80840D01*
D02*
G37*
G36*
X56729Y78746D02*
X56684Y78696D01*
X56645Y78641D01*
X56610Y78581D01*
X56580Y78515D01*
X56555Y78444D01*
X56534Y78368D01*
X56518Y78286D01*
X56507Y78199D01*
X56501Y78106D01*
X56500Y78008D01*
X55708Y78800D01*
X55806Y78801D01*
X55986Y78818D01*
X56068Y78834D01*
X56144Y78855D01*
X56216Y78880D01*
X56281Y78910D01*
X56341Y78945D01*
X56396Y78984D01*
X56446Y79029D01*
X56729Y78746D01*
D02*
G37*
G36*
X37602Y75181D02*
X37608Y75120D01*
X37617Y75066D01*
X37631Y75017D01*
X37648Y74976D01*
X37668Y74940D01*
X37693Y74910D01*
X37722Y74887D01*
X37754Y74870D01*
X37790Y74860D01*
X36410D01*
X36446Y74870D01*
X36478Y74887D01*
X36507Y74910D01*
X36531Y74940D01*
X36552Y74976D01*
X36569Y75017D01*
X36583Y75066D01*
X36592Y75120D01*
X36598Y75181D01*
X36600Y75248D01*
X37600D01*
X37602Y75181D01*
D02*
G37*
G36*
X69907Y74100D02*
X69773Y73956D01*
X69652Y73805D01*
X69547Y73649D01*
X69455Y73488D01*
X69377Y73320D01*
X69313Y73146D01*
X69264Y72966D01*
X69228Y72781D01*
X69207Y72590D01*
X69200Y72393D01*
X68200D01*
X68193Y72590D01*
X68172Y72781D01*
X68136Y72966D01*
X68087Y73146D01*
X68023Y73320D01*
X67945Y73488D01*
X67853Y73649D01*
X67747Y73805D01*
X67627Y73956D01*
X67493Y74100D01*
X67993Y75014D01*
X68134Y74887D01*
X68276Y74788D01*
X68417Y74717D01*
X68559Y74675D01*
X68700Y74661D01*
X68841Y74675D01*
X68983Y74717D01*
X69124Y74788D01*
X69266Y74887D01*
X69407Y75014D01*
X69907Y74100D01*
D02*
G37*
G36*
X42092Y73365D02*
X42089Y73332D01*
X42088Y73300D01*
X42091Y73269D01*
X42096Y73241D01*
X42103Y73214D01*
X42114Y73189D01*
X42127Y73165D01*
X42143Y73142D01*
X42161Y73122D01*
X41878Y72839D01*
X41857Y72857D01*
X41835Y72873D01*
X41811Y72886D01*
X41786Y72897D01*
X41759Y72904D01*
X41730Y72909D01*
X41700Y72912D01*
X41668Y72911D01*
X41635Y72908D01*
X41600Y72902D01*
X42098Y73400D01*
X42092Y73365D01*
D02*
G37*
G36*
X37754Y72930D02*
X37722Y72913D01*
X37693Y72890D01*
X37668Y72860D01*
X37648Y72824D01*
X37631Y72782D01*
X37617Y72734D01*
X37608Y72680D01*
X37602Y72619D01*
X37600Y72552D01*
X36600D01*
X36598Y72619D01*
X36592Y72680D01*
X36583Y72734D01*
X36569Y72782D01*
X36552Y72824D01*
X36531Y72860D01*
X36507Y72890D01*
X36478Y72913D01*
X36446Y72930D01*
X36410Y72940D01*
X37790D01*
X37754Y72930D01*
D02*
G37*
G36*
X76104Y72588D02*
X76114Y72522D01*
X76132Y72454D01*
X76158Y72387D01*
X76190Y72319D01*
X76230Y72250D01*
X76276Y72181D01*
X76330Y72112D01*
X76392Y72042D01*
X76460Y71971D01*
X75340D01*
X75408Y72042D01*
X75524Y72181D01*
X75570Y72250D01*
X75610Y72319D01*
X75642Y72387D01*
X75668Y72454D01*
X75686Y72522D01*
X75696Y72588D01*
X75700Y72655D01*
X76100D01*
X76104Y72588D01*
D02*
G37*
G36*
X37602Y71681D02*
X37608Y71620D01*
X37617Y71566D01*
X37631Y71517D01*
X37648Y71476D01*
X37668Y71440D01*
X37693Y71411D01*
X37722Y71387D01*
X37754Y71370D01*
X37790Y71360D01*
X36410D01*
X36446Y71370D01*
X36478Y71387D01*
X36507Y71411D01*
X36531Y71440D01*
X36552Y71476D01*
X36569Y71517D01*
X36583Y71566D01*
X36592Y71620D01*
X36598Y71681D01*
X36600Y71748D01*
X37600D01*
X37602Y71681D01*
D02*
G37*
G36*
X73492Y71358D02*
X73376Y71219D01*
X73330Y71150D01*
X73290Y71081D01*
X73258Y71013D01*
X73232Y70946D01*
X73214Y70878D01*
X73204Y70812D01*
X73200Y70745D01*
X72800D01*
X72796Y70812D01*
X72786Y70878D01*
X72768Y70946D01*
X72742Y71013D01*
X72710Y71081D01*
X72670Y71150D01*
X72624Y71219D01*
X72570Y71288D01*
X72508Y71358D01*
X72440Y71429D01*
X73560D01*
X73492Y71358D01*
D02*
G37*
G36*
X56192Y69800D02*
X56094Y69799D01*
X55914Y69782D01*
X55832Y69766D01*
X55756Y69745D01*
X55685Y69720D01*
X55619Y69690D01*
X55559Y69655D01*
X55504Y69616D01*
X55454Y69571D01*
X55171Y69854D01*
X55216Y69904D01*
X55255Y69959D01*
X55290Y70019D01*
X55320Y70085D01*
X55345Y70156D01*
X55366Y70232D01*
X55382Y70314D01*
X55392Y70401D01*
X55399Y70494D01*
X55400Y70592D01*
X56192Y69800D01*
D02*
G37*
G36*
X42092Y69865D02*
X42089Y69832D01*
X42088Y69800D01*
X42091Y69770D01*
X42096Y69741D01*
X42103Y69714D01*
X42114Y69688D01*
X42127Y69665D01*
X42143Y69643D01*
X42161Y69622D01*
X41878Y69339D01*
X41857Y69358D01*
X41835Y69373D01*
X41811Y69386D01*
X41786Y69397D01*
X41759Y69404D01*
X41730Y69409D01*
X41700Y69412D01*
X41668Y69411D01*
X41635Y69408D01*
X41600Y69402D01*
X42098Y69900D01*
X42092Y69865D01*
D02*
G37*
G36*
X37754Y69430D02*
X37722Y69413D01*
X37693Y69389D01*
X37668Y69360D01*
X37648Y69324D01*
X37631Y69283D01*
X37617Y69234D01*
X37608Y69180D01*
X37602Y69119D01*
X37600Y69052D01*
X36600D01*
X36598Y69119D01*
X36592Y69180D01*
X36583Y69234D01*
X36569Y69283D01*
X36552Y69324D01*
X36531Y69360D01*
X36507Y69389D01*
X36478Y69413D01*
X36446Y69430D01*
X36410Y69440D01*
X37790D01*
X37754Y69430D01*
D02*
G37*
G36*
X37602Y68181D02*
X37608Y68120D01*
X37617Y68066D01*
X37631Y68018D01*
X37648Y67976D01*
X37668Y67940D01*
X37693Y67910D01*
X37722Y67887D01*
X37754Y67870D01*
X37790Y67860D01*
X36410D01*
X36446Y67870D01*
X36478Y67887D01*
X36507Y67910D01*
X36531Y67940D01*
X36552Y67976D01*
X36569Y68018D01*
X36583Y68066D01*
X36592Y68120D01*
X36598Y68181D01*
X36600Y68248D01*
X37600D01*
X37602Y68181D01*
D02*
G37*
G36*
X54479Y74579D02*
X54810Y74358D01*
X55200Y74280D01*
X66578D01*
X67079Y73779D01*
X67097Y73731D01*
X67217Y73602D01*
X67312Y73484D01*
X67394Y73363D01*
X67464Y73239D01*
X67523Y73112D01*
X67571Y72981D01*
X67609Y72844D01*
X67636Y72701D01*
X67653Y72550D01*
X67659Y72373D01*
X67680Y72327D01*
Y68800D01*
X67758Y68410D01*
X67979Y68079D01*
X75379Y60679D01*
X75710Y60458D01*
X76100Y60380D01*
X77435D01*
X77484Y60359D01*
X77716Y60354D01*
X77809Y60347D01*
X77828Y60344D01*
X77833Y60343D01*
X77844Y60340D01*
X77846Y60340D01*
X78093Y60175D01*
X78600Y60075D01*
X79108Y59694D01*
X78763Y59314D01*
X62900D01*
X62627Y59259D01*
X62395Y59105D01*
X58459Y55168D01*
X58402Y55149D01*
X58372Y55122D01*
X58361Y55114D01*
X58341Y55104D01*
X58313Y55091D01*
X58273Y55078D01*
X58223Y55066D01*
X58169Y55057D01*
X58000Y55042D01*
X57903Y55041D01*
X57845Y55016D01*
X57354Y54919D01*
X56891Y54609D01*
X56814Y54494D01*
X56314Y54646D01*
Y55300D01*
X56259Y55573D01*
X56105Y55805D01*
X53936Y57973D01*
X53945Y58020D01*
X53957Y58047D01*
X53953Y58056D01*
X53968Y58134D01*
Y59512D01*
X53876Y59976D01*
X53613Y60369D01*
X53220Y60632D01*
X52756Y60724D01*
X47244D01*
X46780Y60632D01*
X46387Y60369D01*
X46253Y60356D01*
X45414Y61196D01*
Y68595D01*
X45446Y68621D01*
X45914Y68777D01*
X46995Y67695D01*
X47227Y67541D01*
X47500Y67486D01*
X53800D01*
X54073Y67541D01*
X54305Y67695D01*
X55757Y69148D01*
X55816Y69169D01*
X55844Y69194D01*
X55853Y69200D01*
X55867Y69209D01*
X55888Y69218D01*
X55916Y69228D01*
X55953Y69238D01*
X55991Y69245D01*
X56123Y69258D01*
X56200Y69259D01*
X56267Y69288D01*
X56707Y69375D01*
X57137Y69663D01*
X57425Y70093D01*
X57525Y70600D01*
X57425Y71107D01*
X57137Y71537D01*
X56707Y71825D01*
X56200Y71925D01*
X55693Y71825D01*
X55263Y71537D01*
X54975Y71107D01*
X54888Y70667D01*
X54859Y70600D01*
X54858Y70516D01*
X54853Y70453D01*
X54847Y70399D01*
X54838Y70353D01*
X54828Y70316D01*
X54818Y70288D01*
X54809Y70267D01*
X54800Y70253D01*
X54794Y70244D01*
X54769Y70216D01*
X54748Y70157D01*
X53504Y68914D01*
X47796D01*
X47014Y69696D01*
Y74100D01*
X46959Y74373D01*
X46805Y74605D01*
X44305Y77105D01*
X44073Y77259D01*
X43800Y77314D01*
X40400D01*
X40127Y77259D01*
X39895Y77105D01*
X38941Y76150D01*
X38397Y76313D01*
X38372Y76430D01*
X39922Y77980D01*
X51078D01*
X54479Y74579D01*
D02*
G37*
G36*
X81987Y68449D02*
X82011Y68438D01*
X82044Y68429D01*
X82085Y68422D01*
X82134Y68415D01*
X82257Y68405D01*
X82504Y68400D01*
Y67400D01*
X82414Y67399D01*
X82085Y67378D01*
X82044Y67371D01*
X82011Y67362D01*
X81987Y67351D01*
X81971Y67340D01*
Y68460D01*
X81987Y68449D01*
D02*
G37*
G36*
X42092Y66365D02*
X42089Y66332D01*
X42088Y66300D01*
X42091Y66269D01*
X42096Y66241D01*
X42103Y66214D01*
X42114Y66189D01*
X42127Y66165D01*
X42143Y66142D01*
X42161Y66122D01*
X41878Y65839D01*
X41857Y65857D01*
X41835Y65873D01*
X41811Y65886D01*
X41786Y65897D01*
X41759Y65904D01*
X41730Y65909D01*
X41700Y65912D01*
X41668Y65911D01*
X41635Y65908D01*
X41600Y65902D01*
X42098Y66400D01*
X42092Y66365D01*
D02*
G37*
G36*
X37754Y65930D02*
X37722Y65913D01*
X37693Y65890D01*
X37668Y65860D01*
X37648Y65824D01*
X37631Y65782D01*
X37617Y65734D01*
X37608Y65680D01*
X37602Y65619D01*
X37600Y65552D01*
X36600D01*
X36598Y65619D01*
X36592Y65680D01*
X36583Y65734D01*
X36569Y65782D01*
X36552Y65824D01*
X36531Y65860D01*
X36507Y65890D01*
X36478Y65913D01*
X36446Y65930D01*
X36410Y65940D01*
X37790D01*
X37754Y65930D01*
D02*
G37*
G36*
X37602Y64681D02*
X37608Y64620D01*
X37617Y64566D01*
X37631Y64517D01*
X37648Y64476D01*
X37668Y64440D01*
X37693Y64411D01*
X37722Y64387D01*
X37754Y64370D01*
X37790Y64360D01*
X36410D01*
X36446Y64370D01*
X36478Y64387D01*
X36507Y64411D01*
X36531Y64440D01*
X36552Y64476D01*
X36569Y64517D01*
X36583Y64566D01*
X36592Y64620D01*
X36598Y64681D01*
X36600Y64748D01*
X37600D01*
X37602Y64681D01*
D02*
G37*
G36*
X82249Y63513D02*
X82238Y63489D01*
X82229Y63456D01*
X82222Y63415D01*
X82215Y63366D01*
X82205Y63243D01*
X82200Y62995D01*
X81200D01*
X81199Y63086D01*
X81178Y63415D01*
X81171Y63456D01*
X81162Y63489D01*
X81151Y63513D01*
X81140Y63529D01*
X82260D01*
X82249Y63513D01*
D02*
G37*
G36*
X41462Y62413D02*
X41428Y62408D01*
X41398Y62401D01*
X41372Y62390D01*
X41350Y62376D01*
X41332Y62360D01*
X41318Y62340D01*
X41308Y62317D01*
X41302Y62291D01*
X41300Y62262D01*
X40900D01*
X40898Y62291D01*
X40892Y62317D01*
X40882Y62340D01*
X40868Y62360D01*
X40850Y62376D01*
X40828Y62390D01*
X40802Y62401D01*
X40772Y62408D01*
X40738Y62413D01*
X40700Y62414D01*
X41500D01*
X41462Y62413D01*
D02*
G37*
G36*
X78029Y60840D02*
X78013Y60851D01*
X77988Y60862D01*
X77956Y60871D01*
X77915Y60878D01*
X77866Y60885D01*
X77743Y60895D01*
X77495Y60900D01*
Y61900D01*
X77586Y61901D01*
X77915Y61922D01*
X77956Y61929D01*
X77988Y61938D01*
X78013Y61949D01*
X78029Y61960D01*
Y60840D01*
D02*
G37*
G36*
X46566Y58480D02*
X46565Y58532D01*
X46558Y58627D01*
X46550Y58670D01*
X46540Y58709D01*
X46528Y58746D01*
X46513Y58780D01*
X46496Y58810D01*
X46477Y58838D01*
X46455Y58862D01*
Y59428D01*
X46478Y59408D01*
X46499Y59395D01*
X46518Y59391D01*
X46534Y59395D01*
X46548Y59408D01*
X46560Y59428D01*
X46569Y59457D01*
X46576Y59494D01*
X46580Y59539D01*
X46582Y59593D01*
X46566Y58480D01*
D02*
G37*
G36*
X95800Y58269D02*
X95784Y58280D01*
X95759Y58291D01*
X95727Y58300D01*
X95686Y58307D01*
X95637Y58314D01*
X95514Y58324D01*
X95266Y58329D01*
Y59329D01*
X95357Y59330D01*
X95686Y59351D01*
X95727Y59359D01*
X95759Y59368D01*
X95784Y59378D01*
X95800Y59389D01*
Y58269D01*
D02*
G37*
G36*
X53391Y58013D02*
X53374Y57984D01*
X53363Y57954D01*
X53358Y57924D01*
X53359Y57892D01*
X53367Y57860D01*
X53381Y57827D01*
X53401Y57793D01*
X53427Y57758D01*
X53460Y57723D01*
X53180Y57438D01*
X53144Y57470D01*
X53110Y57496D01*
X53076Y57516D01*
X53044Y57530D01*
X53012Y57537D01*
X52981Y57538D01*
X52951Y57532D01*
X52922Y57520D01*
X52893Y57502D01*
X52866Y57478D01*
X53415Y58041D01*
X53391Y58013D01*
D02*
G37*
G36*
X46566Y54092D02*
X46564Y54130D01*
X46560Y54164D01*
X46552Y54194D01*
X46542Y54220D01*
X46528Y54242D01*
X46511Y54260D01*
X46491Y54274D01*
X46469Y54284D01*
X46443Y54290D01*
X46414Y54292D01*
Y54692D01*
X46443Y54694D01*
X46469Y54700D01*
X46491Y54710D01*
X46511Y54724D01*
X46528Y54742D01*
X46542Y54764D01*
X46552Y54790D01*
X46560Y54820D01*
X46564Y54854D01*
X46566Y54892D01*
Y54092D01*
D02*
G37*
G36*
X59044Y54461D02*
X58996Y54407D01*
X58954Y54347D01*
X58917Y54279D01*
X58885Y54205D01*
X58858Y54123D01*
X58836Y54034D01*
X58819Y53939D01*
X58808Y53836D01*
X58801Y53726D01*
X58800Y53609D01*
X57909Y54500D01*
X58026Y54501D01*
X58239Y54519D01*
X58334Y54536D01*
X58423Y54558D01*
X58505Y54585D01*
X58579Y54617D01*
X58647Y54654D01*
X58707Y54696D01*
X58761Y54744D01*
X59044Y54461D01*
D02*
G37*
G36*
X53430Y54373D02*
X53429Y54328D01*
X53431Y54285D01*
X53437Y54243D01*
X53446Y54204D01*
X53459Y54167D01*
X53475Y54132D01*
X53495Y54098D01*
X53518Y54067D01*
X53545Y54038D01*
X53507Y53510D01*
X53474Y53540D01*
X53444Y53561D01*
X53417Y53574D01*
X53393Y53578D01*
X53371Y53574D01*
X53352Y53562D01*
X53336Y53541D01*
X53323Y53511D01*
X53312Y53473D01*
X53304Y53427D01*
X53434Y54420D01*
X53430Y54373D01*
D02*
G37*
G36*
X85341Y54290D02*
X85480Y54175D01*
X85549Y54128D01*
X85618Y54089D01*
X85686Y54057D01*
X85753Y54031D01*
X85821Y54013D01*
X85887Y54002D01*
X85953Y53999D01*
Y53599D01*
X85887Y53595D01*
X85821Y53584D01*
X85753Y53566D01*
X85686Y53541D01*
X85618Y53509D01*
X85549Y53469D01*
X85480Y53422D01*
X85410Y53369D01*
X85341Y53307D01*
X85270Y53239D01*
Y54359D01*
X85341Y54290D01*
D02*
G37*
G36*
X26301Y54094D02*
X26318Y53914D01*
X26334Y53832D01*
X26355Y53755D01*
X26380Y53685D01*
X26410Y53619D01*
X26445Y53559D01*
X26484Y53504D01*
X26529Y53454D01*
X26246Y53171D01*
X26196Y53216D01*
X26141Y53255D01*
X26081Y53290D01*
X26015Y53320D01*
X25945Y53345D01*
X25868Y53366D01*
X25786Y53382D01*
X25699Y53392D01*
X25606Y53399D01*
X25508Y53400D01*
X26300Y54192D01*
X26301Y54094D01*
D02*
G37*
G36*
X80680Y58418D02*
Y51700D01*
X80758Y51310D01*
X80979Y50979D01*
X84524Y47434D01*
X84205Y47046D01*
X83946Y47219D01*
X83400Y47327D01*
X82854Y47219D01*
X82437Y46940D01*
X82379Y46917D01*
X82305Y46844D01*
X82243Y46789D01*
X82186Y46744D01*
X82135Y46708D01*
X82091Y46681D01*
X82054Y46663D01*
X82024Y46651D01*
X82003Y46645D01*
X81990Y46643D01*
X81950Y46640D01*
X81896Y46614D01*
X65296D01*
X62955Y48955D01*
X62723Y49109D01*
X62450Y49164D01*
X59446D01*
X56516Y52093D01*
X56556Y52259D01*
X56557Y52261D01*
X57113Y52442D01*
X57354Y52281D01*
X57900Y52173D01*
X58446Y52281D01*
X58909Y52591D01*
X59219Y53054D01*
X59316Y53545D01*
X59341Y53603D01*
X59342Y53707D01*
X59347Y53790D01*
X59355Y53862D01*
X59366Y53923D01*
X59378Y53973D01*
X59391Y54013D01*
X59404Y54041D01*
X59414Y54061D01*
X59422Y54072D01*
X59449Y54102D01*
X59469Y54159D01*
X63196Y57886D01*
X79200D01*
X79473Y57941D01*
X79705Y58095D01*
X80218Y58609D01*
X80680Y58418D01*
D02*
G37*
G36*
X37292Y51900D02*
X37194Y51899D01*
X37014Y51882D01*
X36932Y51866D01*
X36856Y51845D01*
X36784Y51820D01*
X36719Y51790D01*
X36659Y51755D01*
X36604Y51716D01*
X36554Y51671D01*
X36271Y51954D01*
X36316Y52004D01*
X36355Y52059D01*
X36390Y52119D01*
X36420Y52184D01*
X36445Y52255D01*
X36466Y52332D01*
X36482Y52414D01*
X36492Y52501D01*
X36499Y52594D01*
X36500Y52692D01*
X37292Y51900D01*
D02*
G37*
G36*
X95329Y50246D02*
X95284Y50196D01*
X95245Y50141D01*
X95210Y50081D01*
X95180Y50015D01*
X95155Y49944D01*
X95134Y49868D01*
X95118Y49786D01*
X95108Y49699D01*
X95101Y49606D01*
X95100Y49508D01*
X94308Y50300D01*
X94406Y50301D01*
X94586Y50318D01*
X94668Y50334D01*
X94744Y50355D01*
X94815Y50380D01*
X94881Y50410D01*
X94941Y50445D01*
X94996Y50484D01*
X95046Y50529D01*
X95329Y50246D01*
D02*
G37*
G36*
X55393Y49896D02*
X55453Y49854D01*
X55521Y49817D01*
X55595Y49785D01*
X55677Y49758D01*
X55766Y49736D01*
X55862Y49719D01*
X55964Y49708D01*
X56074Y49701D01*
X56191Y49700D01*
X55300Y48809D01*
X55299Y48926D01*
X55281Y49139D01*
X55264Y49234D01*
X55242Y49323D01*
X55215Y49405D01*
X55183Y49479D01*
X55146Y49547D01*
X55104Y49607D01*
X55056Y49661D01*
X55339Y49944D01*
X55393Y49896D01*
D02*
G37*
G36*
X53378Y49182D02*
X53366Y49157D01*
X53358Y49132D01*
X53353Y49108D01*
X53352Y49085D01*
X53355Y49062D01*
X53362Y49040D01*
X53373Y49019D01*
X53387Y48998D01*
X53405Y48978D01*
X53088Y48730D01*
X53066Y48748D01*
X53043Y48763D01*
X53016Y48776D01*
X52987Y48785D01*
X52955Y48792D01*
X52921Y48796D01*
X52883Y48797D01*
X52844Y48795D01*
X52801Y48790D01*
X52756Y48782D01*
X53394Y49208D01*
X53378Y49182D01*
D02*
G37*
G36*
X47306Y47279D02*
X47340Y47254D01*
X47375Y47232D01*
X47411Y47215D01*
X47449Y47202D01*
X47487Y47193D01*
X47528Y47188D01*
X47569Y47187D01*
X47612Y47190D01*
X47656Y47198D01*
X46756Y47008D01*
X46784Y47028D01*
X46807Y47048D01*
X46825Y47068D01*
X46837Y47089D01*
X46845Y47109D01*
X46848Y47129D01*
X46846Y47149D01*
X46839Y47168D01*
X46826Y47188D01*
X46809Y47208D01*
X47274Y47309D01*
X47306Y47279D01*
D02*
G37*
G36*
X53436Y46193D02*
X53440Y46159D01*
X53448Y46129D01*
X53458Y46103D01*
X53472Y46081D01*
X53489Y46063D01*
X53509Y46049D01*
X53531Y46039D01*
X53557Y46033D01*
X53586Y46031D01*
Y45631D01*
X53557Y45629D01*
X53531Y45623D01*
X53509Y45613D01*
X53489Y45599D01*
X53472Y45581D01*
X53458Y45559D01*
X53448Y45533D01*
X53440Y45503D01*
X53436Y45469D01*
X53434Y45431D01*
Y46231D01*
X53436Y46193D01*
D02*
G37*
G36*
X82757Y45270D02*
X82674Y45352D01*
X82511Y45489D01*
X82431Y45545D01*
X82353Y45592D01*
X82276Y45631D01*
X82201Y45661D01*
X82126Y45683D01*
X82054Y45696D01*
X81982Y45700D01*
Y46100D01*
X82054Y46104D01*
X82126Y46117D01*
X82201Y46139D01*
X82276Y46169D01*
X82353Y46207D01*
X82431Y46255D01*
X82511Y46311D01*
X82591Y46375D01*
X82674Y46448D01*
X82757Y46530D01*
Y45270D01*
D02*
G37*
G36*
X40429Y45240D02*
X40358Y45308D01*
X40219Y45424D01*
X40150Y45470D01*
X40081Y45510D01*
X40013Y45542D01*
X39946Y45568D01*
X39878Y45586D01*
X39812Y45596D01*
X39745Y45600D01*
Y46000D01*
X39812Y46004D01*
X39878Y46014D01*
X39946Y46032D01*
X40013Y46058D01*
X40081Y46090D01*
X40150Y46130D01*
X40219Y46176D01*
X40288Y46230D01*
X40358Y46292D01*
X40429Y46360D01*
Y45240D01*
D02*
G37*
G36*
X37818Y45556D02*
X37774Y45507D01*
X37734Y45452D01*
X37700Y45391D01*
X37670Y45326D01*
X37644Y45255D01*
X37624Y45178D01*
X37608Y45096D01*
X37597Y45009D01*
X37591Y44916D01*
X37590Y44818D01*
X36798Y45610D01*
X36896Y45612D01*
X37076Y45629D01*
X37158Y45644D01*
X37234Y45665D01*
X37305Y45690D01*
X37371Y45720D01*
X37431Y45755D01*
X37486Y45794D01*
X37536Y45839D01*
X37818Y45556D01*
D02*
G37*
G36*
X55686Y43904D02*
Y40300D01*
X55741Y40027D01*
X55895Y39795D01*
X57215Y38476D01*
X57024Y38014D01*
X53937D01*
X53876Y38322D01*
X53613Y38715D01*
X53220Y38978D01*
X52756Y39070D01*
X47244D01*
X47151Y39052D01*
X47139Y39057D01*
X47106Y39043D01*
X47073Y39037D01*
X46114Y39996D01*
Y43866D01*
X46614Y44133D01*
X46780Y44022D01*
X47244Y43929D01*
X52756D01*
X53220Y44022D01*
X53613Y44284D01*
X53876Y44678D01*
X53963Y45117D01*
X54474D01*
X55686Y43904D01*
D02*
G37*
G36*
X86747Y43646D02*
X86708Y43675D01*
X86653Y43702D01*
X86583Y43725D01*
X86496Y43745D01*
X86393Y43762D01*
X86141Y43786D01*
X85824Y43799D01*
X85642Y43800D01*
Y44200D01*
X85824Y44201D01*
X86393Y44238D01*
X86496Y44255D01*
X86583Y44275D01*
X86653Y44298D01*
X86708Y44325D01*
X86747Y44354D01*
Y43646D01*
D02*
G37*
G36*
X81457Y41570D02*
X81374Y41652D01*
X81211Y41789D01*
X81131Y41845D01*
X81053Y41892D01*
X80976Y41931D01*
X80901Y41961D01*
X80826Y41983D01*
X80754Y41996D01*
X80682Y42000D01*
Y42400D01*
X80754Y42404D01*
X80826Y42417D01*
X80901Y42439D01*
X80976Y42469D01*
X81053Y42507D01*
X81131Y42555D01*
X81211Y42611D01*
X81291Y42675D01*
X81374Y42748D01*
X81457Y42830D01*
Y41570D01*
D02*
G37*
G36*
X83001Y42074D02*
X83019Y41862D01*
X83036Y41766D01*
X83058Y41677D01*
X83085Y41595D01*
X83117Y41521D01*
X83154Y41453D01*
X83196Y41393D01*
X83244Y41339D01*
X82961Y41056D01*
X82907Y41104D01*
X82847Y41146D01*
X82779Y41183D01*
X82705Y41215D01*
X82623Y41242D01*
X82534Y41264D01*
X82439Y41281D01*
X82336Y41292D01*
X82226Y41299D01*
X82109Y41300D01*
X83000Y42191D01*
X83001Y42074D01*
D02*
G37*
G36*
X36992Y41158D02*
X36876Y41019D01*
X36830Y40950D01*
X36790Y40881D01*
X36758Y40813D01*
X36732Y40746D01*
X36714Y40679D01*
X36704Y40612D01*
X36700Y40545D01*
X36300D01*
X36296Y40612D01*
X36286Y40679D01*
X36268Y40746D01*
X36242Y40813D01*
X36210Y40881D01*
X36170Y40950D01*
X36124Y41019D01*
X36070Y41088D01*
X36008Y41158D01*
X35940Y41229D01*
X37060D01*
X36992Y41158D01*
D02*
G37*
G36*
X74029Y41246D02*
X73984Y41196D01*
X73945Y41141D01*
X73910Y41081D01*
X73880Y41015D01*
X73855Y40944D01*
X73834Y40868D01*
X73818Y40786D01*
X73808Y40699D01*
X73801Y40606D01*
X73800Y40508D01*
X73008Y41300D01*
X73106Y41301D01*
X73286Y41318D01*
X73368Y41334D01*
X73444Y41355D01*
X73515Y41380D01*
X73581Y41410D01*
X73641Y41445D01*
X73696Y41484D01*
X73746Y41529D01*
X74029Y41246D01*
D02*
G37*
G36*
X76442Y40992D02*
X76581Y40876D01*
X76650Y40830D01*
X76719Y40790D01*
X76787Y40758D01*
X76854Y40732D01*
X76921Y40714D01*
X76988Y40704D01*
X77055Y40700D01*
Y40300D01*
X76988Y40296D01*
X76921Y40286D01*
X76854Y40268D01*
X76787Y40242D01*
X76719Y40210D01*
X76650Y40170D01*
X76581Y40124D01*
X76512Y40070D01*
X76442Y40008D01*
X76371Y39940D01*
Y41060D01*
X76442Y40992D01*
D02*
G37*
G36*
X46861Y38525D02*
X46895Y38499D01*
X46929Y38479D01*
X46962Y38465D01*
X46994Y38458D01*
X47025Y38457D01*
X47055Y38462D01*
X47084Y38473D01*
X47113Y38491D01*
X47141Y38516D01*
X46586Y37958D01*
X46610Y37986D01*
X46628Y38014D01*
X46639Y38044D01*
X46644Y38074D01*
X46643Y38105D01*
X46636Y38138D01*
X46622Y38170D01*
X46602Y38204D01*
X46575Y38239D01*
X46543Y38274D01*
X46825Y38558D01*
X46861Y38525D01*
D02*
G37*
G36*
X53436Y37662D02*
X53440Y37628D01*
X53448Y37598D01*
X53458Y37572D01*
X53472Y37550D01*
X53489Y37532D01*
X53509Y37518D01*
X53531Y37508D01*
X53557Y37502D01*
X53586Y37500D01*
Y37100D01*
X53557Y37098D01*
X53531Y37092D01*
X53509Y37082D01*
X53489Y37068D01*
X53472Y37050D01*
X53458Y37028D01*
X53448Y37002D01*
X53440Y36972D01*
X53436Y36938D01*
X53434Y36900D01*
Y37700D01*
X53436Y37662D01*
D02*
G37*
G36*
X39829Y36246D02*
X39784Y36196D01*
X39745Y36141D01*
X39710Y36081D01*
X39680Y36015D01*
X39655Y35945D01*
X39634Y35868D01*
X39618Y35786D01*
X39608Y35699D01*
X39601Y35606D01*
X39600Y35508D01*
X38808Y36300D01*
X38906Y36301D01*
X39086Y36318D01*
X39168Y36334D01*
X39244Y36355D01*
X39316Y36380D01*
X39381Y36410D01*
X39441Y36445D01*
X39496Y36484D01*
X39546Y36529D01*
X39829Y36246D01*
D02*
G37*
G36*
X54263Y34416D02*
X54204Y34489D01*
X54144Y34554D01*
X54083Y34612D01*
X54021Y34662D01*
X53958Y34704D01*
X53894Y34738D01*
X53828Y34765D01*
X53762Y34785D01*
X53695Y34796D01*
X53626Y34800D01*
X53678Y35200D01*
X53742Y35203D01*
X53807Y35213D01*
X53875Y35229D01*
X53944Y35252D01*
X54016Y35282D01*
X54089Y35318D01*
X54165Y35360D01*
X54322Y35465D01*
X54403Y35527D01*
X54263Y34416D01*
D02*
G37*
G36*
X72405Y34783D02*
X72460Y34742D01*
X72521Y34707D01*
X72586Y34676D01*
X72656Y34651D01*
X72731Y34631D01*
X72811Y34615D01*
X72896Y34605D01*
X72986Y34600D01*
X73080Y34600D01*
X72300Y33820D01*
X72300Y33914D01*
X72295Y34004D01*
X72285Y34089D01*
X72269Y34169D01*
X72249Y34244D01*
X72224Y34314D01*
X72193Y34379D01*
X72158Y34440D01*
X72117Y34495D01*
X72071Y34546D01*
X72354Y34829D01*
X72405Y34783D01*
D02*
G37*
G36*
X42886Y37924D02*
Y33100D01*
X42941Y32827D01*
X43095Y32595D01*
X45695Y29995D01*
X45927Y29841D01*
X46200Y29786D01*
X53304D01*
X54586Y28504D01*
Y28240D01*
X54560Y28184D01*
X54558Y28146D01*
X54556Y28135D01*
X54552Y28119D01*
X54544Y28098D01*
X54531Y28071D01*
X54511Y28038D01*
X54490Y28006D01*
X54405Y27903D01*
X54352Y27849D01*
X54325Y27781D01*
X54075Y27407D01*
X53974Y26900D01*
X54075Y26393D01*
X54363Y25963D01*
X54793Y25675D01*
X55300Y25574D01*
X55807Y25675D01*
X56237Y25963D01*
X56525Y26393D01*
X56625Y26900D01*
X56525Y27407D01*
X56275Y27781D01*
X56248Y27849D01*
X56189Y27909D01*
X56148Y27956D01*
X56114Y27999D01*
X56089Y28038D01*
X56069Y28071D01*
X56056Y28098D01*
X56049Y28119D01*
X56044Y28135D01*
X56042Y28146D01*
X56040Y28184D01*
X56014Y28240D01*
Y28800D01*
X55959Y29073D01*
X55805Y29305D01*
X54105Y31005D01*
X54048Y31043D01*
X53867Y31566D01*
X53866Y31671D01*
X53876Y31686D01*
X53968Y32150D01*
Y33358D01*
X54333Y33630D01*
X54451Y33664D01*
X54900Y33575D01*
X55407Y33675D01*
X55837Y33963D01*
X56125Y34393D01*
X56226Y34900D01*
X56125Y35407D01*
X55837Y35837D01*
X55760Y36490D01*
X55838Y36586D01*
X73904D01*
X75786Y34704D01*
Y33196D01*
X70695Y28105D01*
X70541Y27873D01*
X70486Y27600D01*
Y15696D01*
X69759Y14968D01*
X69702Y14949D01*
X69672Y14922D01*
X69661Y14914D01*
X69642Y14904D01*
X69613Y14891D01*
X69573Y14878D01*
X69523Y14866D01*
X69469Y14857D01*
X69300Y14842D01*
X69203Y14841D01*
X69145Y14817D01*
X68654Y14719D01*
X68191Y14409D01*
X67881Y13946D01*
X67773Y13400D01*
X67881Y12854D01*
X68108Y12514D01*
X67954Y12097D01*
X67887Y12014D01*
X65468D01*
X56907Y20575D01*
X56894Y20620D01*
X56998Y21191D01*
X57005Y21195D01*
X68096Y32286D01*
X68195D01*
X68250Y32260D01*
X68290Y32257D01*
X68304Y32255D01*
X68324Y32249D01*
X68353Y32237D01*
X68391Y32219D01*
X68435Y32192D01*
X68480Y32160D01*
X68610Y32051D01*
X68679Y31983D01*
X68737Y31960D01*
X69154Y31681D01*
X69700Y31573D01*
X70246Y31681D01*
X70709Y31991D01*
X71019Y32454D01*
X71127Y33000D01*
X71031Y33486D01*
X71057Y33580D01*
X71290Y33744D01*
X71327Y33750D01*
X71828Y33530D01*
X71875Y33293D01*
X72163Y32863D01*
X72593Y32575D01*
X73100Y32474D01*
X73607Y32575D01*
X74037Y32863D01*
X74325Y33293D01*
X74426Y33800D01*
X74325Y34307D01*
X74037Y34737D01*
X73607Y35025D01*
X73135Y35118D01*
X73081Y35141D01*
X73080D01*
X73080Y35141D01*
X73080Y35141D01*
X73002Y35141D01*
X72944Y35144D01*
X72895Y35150D01*
X72853Y35158D01*
X72819Y35168D01*
X72793Y35177D01*
X72773Y35186D01*
X72758Y35195D01*
X72747Y35203D01*
X72717Y35230D01*
X72609Y35269D01*
X72473Y35359D01*
X72200Y35414D01*
X68200D01*
X67927Y35359D01*
X67695Y35205D01*
X56081Y23590D01*
X55419D01*
X53741Y25269D01*
X53509Y25424D01*
X53236Y25478D01*
X46131D01*
X37432Y34178D01*
X37457Y34278D01*
X37548Y34342D01*
X38018Y34459D01*
X38293Y34275D01*
X38800Y34174D01*
X39307Y34275D01*
X39737Y34563D01*
X40025Y34993D01*
X40112Y35433D01*
X40141Y35500D01*
X40142Y35585D01*
X40146Y35647D01*
X40153Y35701D01*
X40162Y35747D01*
X40172Y35784D01*
X40182Y35812D01*
X40191Y35833D01*
X40200Y35847D01*
X40206Y35856D01*
X40231Y35884D01*
X40252Y35943D01*
X42424Y38115D01*
X42886Y37924D01*
D02*
G37*
G36*
X69057Y32370D02*
X68974Y32452D01*
X68810Y32589D01*
X68731Y32645D01*
X68653Y32693D01*
X68576Y32731D01*
X68501Y32761D01*
X68427Y32783D01*
X68354Y32796D01*
X68283Y32800D01*
Y33200D01*
X68354Y33204D01*
X68427Y33217D01*
X68501Y33239D01*
X68576Y33269D01*
X68653Y33307D01*
X68731Y33355D01*
X68810Y33411D01*
X68891Y33475D01*
X68974Y33548D01*
X69057Y33630D01*
Y32370D01*
D02*
G37*
G36*
X98486Y45004D02*
Y34096D01*
X96604Y32214D01*
X91600D01*
X91327Y32159D01*
X91095Y32005D01*
X90906Y31816D01*
X90364Y31980D01*
X90342Y32090D01*
X90121Y32421D01*
X85920Y36622D01*
Y41278D01*
X87821Y43179D01*
X88042Y43510D01*
X88120Y43900D01*
Y46300D01*
X88533Y46786D01*
X96704D01*
X98486Y45004D01*
D02*
G37*
G36*
X92942Y29892D02*
X93081Y29776D01*
X93150Y29730D01*
X93219Y29690D01*
X93287Y29658D01*
X93354Y29632D01*
X93422Y29614D01*
X93488Y29604D01*
X93555Y29600D01*
Y29200D01*
X93488Y29196D01*
X93422Y29186D01*
X93354Y29168D01*
X93287Y29142D01*
X93219Y29110D01*
X93150Y29070D01*
X93081Y29024D01*
X93012Y28970D01*
X92942Y28908D01*
X92871Y28840D01*
Y29960D01*
X92942Y29892D01*
D02*
G37*
G36*
X55504Y28088D02*
X55514Y28021D01*
X55532Y27954D01*
X55558Y27887D01*
X55590Y27819D01*
X55630Y27750D01*
X55676Y27681D01*
X55730Y27612D01*
X55792Y27542D01*
X55860Y27471D01*
X54740D01*
X54808Y27542D01*
X54924Y27681D01*
X54970Y27750D01*
X55010Y27819D01*
X55042Y27887D01*
X55068Y27954D01*
X55086Y28021D01*
X55096Y28088D01*
X55100Y28155D01*
X55500D01*
X55504Y28088D01*
D02*
G37*
G36*
X95693Y26096D02*
X95753Y26054D01*
X95821Y26017D01*
X95895Y25985D01*
X95977Y25958D01*
X96066Y25936D01*
X96162Y25919D01*
X96264Y25908D01*
X96374Y25901D01*
X96491Y25900D01*
X95600Y25009D01*
X95599Y25126D01*
X95581Y25339D01*
X95564Y25434D01*
X95542Y25523D01*
X95515Y25605D01*
X95483Y25679D01*
X95446Y25747D01*
X95404Y25807D01*
X95356Y25861D01*
X95639Y26144D01*
X95693Y26096D01*
D02*
G37*
G36*
X42777Y23588D02*
X42774Y23531D01*
X42778Y23475D01*
X42788Y23420D01*
X42804Y23365D01*
X42827Y23312D01*
X42855Y23259D01*
X42890Y23207D01*
X42930Y23156D01*
X42977Y23106D01*
X42694Y22823D01*
X42644Y22870D01*
X42593Y22910D01*
X42541Y22945D01*
X42488Y22973D01*
X42435Y22996D01*
X42380Y23012D01*
X42325Y23022D01*
X42269Y23026D01*
X42212Y23023D01*
X42155Y23015D01*
X42785Y23645D01*
X42777Y23588D01*
D02*
G37*
G36*
X81607Y17919D02*
X81537Y17987D01*
X81398Y18102D01*
X81329Y18149D01*
X81260Y18189D01*
X81192Y18221D01*
X81124Y18246D01*
X81057Y18264D01*
X80990Y18275D01*
X80924Y18279D01*
Y18679D01*
X80990Y18682D01*
X81057Y18693D01*
X81124Y18711D01*
X81192Y18736D01*
X81260Y18769D01*
X81329Y18808D01*
X81398Y18855D01*
X81467Y18909D01*
X81537Y18970D01*
X81607Y19039D01*
Y17919D01*
D02*
G37*
G36*
X90637Y15171D02*
X90885Y14953D01*
X90919Y14930D01*
X90948Y14913D01*
X90973Y14903D01*
X90992Y14900D01*
X90200Y14108D01*
X90197Y14127D01*
X90187Y14152D01*
X90170Y14181D01*
X90147Y14215D01*
X90117Y14255D01*
X90036Y14349D01*
X89865Y14527D01*
X90573Y15235D01*
X90637Y15171D01*
D02*
G37*
G36*
X70344Y14261D02*
X70296Y14207D01*
X70254Y14147D01*
X70217Y14079D01*
X70185Y14005D01*
X70158Y13923D01*
X70136Y13834D01*
X70119Y13739D01*
X70108Y13636D01*
X70101Y13526D01*
X70100Y13409D01*
X69209Y14300D01*
X69326Y14301D01*
X69538Y14319D01*
X69634Y14336D01*
X69723Y14358D01*
X69805Y14385D01*
X69879Y14417D01*
X69947Y14454D01*
X70007Y14496D01*
X70061Y14544D01*
X70344Y14261D01*
D02*
G37*
G36*
X81126Y14482D02*
X81186Y14402D01*
X81249Y14331D01*
X81314Y14270D01*
X81380Y14218D01*
X81448Y14175D01*
X81518Y14142D01*
X81590Y14119D01*
X81664Y14105D01*
X81740Y14100D01*
X81646Y13700D01*
X81583Y13696D01*
X81515Y13686D01*
X81441Y13668D01*
X81363Y13643D01*
X81279Y13611D01*
X81097Y13525D01*
X80999Y13472D01*
X80787Y13343D01*
X81067Y14571D01*
X81126Y14482D01*
D02*
G37*
G36*
X76113Y11879D02*
X76015Y11877D01*
X75835Y11860D01*
X75753Y11845D01*
X75677Y11824D01*
X75606Y11799D01*
X75540Y11769D01*
X75480Y11734D01*
X75425Y11694D01*
X75375Y11650D01*
X75093Y11933D01*
X75137Y11982D01*
X75177Y12037D01*
X75211Y12098D01*
X75241Y12163D01*
X75267Y12234D01*
X75287Y12311D01*
X75303Y12393D01*
X75314Y12480D01*
X75320Y12573D01*
X75321Y12671D01*
X76113Y11879D01*
D02*
G37*
G36*
X86204Y12191D02*
X86215Y12124D01*
X86233Y12057D01*
X86258Y11989D01*
X86291Y11922D01*
X86331Y11854D01*
X86378Y11786D01*
X86432Y11717D01*
X86494Y11648D01*
X86563Y11579D01*
X85443Y11563D01*
X85511Y11635D01*
X85625Y11776D01*
X85672Y11846D01*
X85711Y11915D01*
X85743Y11984D01*
X85768Y12052D01*
X85786Y12119D01*
X85796Y12185D01*
X85800Y12252D01*
X86200Y12257D01*
X86204Y12191D01*
D02*
G37*
G36*
X84704Y10488D02*
X84714Y10422D01*
X84732Y10354D01*
X84758Y10287D01*
X84790Y10219D01*
X84830Y10150D01*
X84876Y10081D01*
X84930Y10012D01*
X84992Y9942D01*
X85060Y9871D01*
X83940D01*
X84008Y9942D01*
X84124Y10081D01*
X84170Y10150D01*
X84210Y10219D01*
X84242Y10287D01*
X84268Y10354D01*
X84286Y10422D01*
X84296Y10488D01*
X84300Y10555D01*
X84700D01*
X84704Y10488D01*
D02*
G37*
%LPC*%
G36*
X52756Y65055D02*
X47244D01*
X46780Y64963D01*
X46387Y64700D01*
X46124Y64306D01*
X46032Y63842D01*
Y62465D01*
X46124Y62001D01*
X46387Y61607D01*
X46780Y61345D01*
X47244Y61252D01*
X52756D01*
X53220Y61345D01*
X53613Y61607D01*
X53876Y62001D01*
X53968Y62465D01*
Y63842D01*
X53876Y64306D01*
X53613Y64700D01*
X53220Y64963D01*
X52756Y65055D01*
D02*
G37*
G36*
X95342Y42236D02*
X94647Y42098D01*
X94059Y41705D01*
X93665Y41116D01*
X93527Y40422D01*
X93665Y39728D01*
X94059Y39139D01*
X94647Y38746D01*
X95342Y38608D01*
X96036Y38746D01*
X96625Y39139D01*
X97018Y39728D01*
X97156Y40422D01*
X97018Y41116D01*
X96625Y41705D01*
X96036Y42098D01*
X95342Y42236D01*
D02*
G37*
%LPD*%
D16*
X84900Y36200D02*
X89400Y31700D01*
Y15700D02*
X91000Y14100D01*
X89400Y15700D02*
Y31700D01*
X37100Y73900D02*
Y76600D01*
X39500Y79000D01*
X51500D01*
X55200Y75300D01*
X67000D01*
X68700Y73600D01*
X37100Y70400D02*
Y73900D01*
Y66900D02*
Y70400D01*
Y63400D02*
Y66900D01*
X81400Y67900D02*
X85300D01*
X94371Y58829D01*
X96371D01*
X81700Y51700D02*
Y64100D01*
Y51700D02*
X87100Y46300D01*
Y43900D02*
Y46300D01*
X84900Y41700D02*
X87100Y43900D01*
X84900Y36200D02*
Y41700D01*
X68700Y73600D02*
X76500Y81400D01*
X68700Y68800D02*
Y73600D01*
X76500Y81400D02*
X97100D01*
X68700Y68800D02*
X76100Y61400D01*
X78600D01*
D21*
X41100Y70400D02*
D03*
X37100D02*
D03*
X41100Y73900D02*
D03*
X37100D02*
D03*
X41100Y66900D02*
D03*
X37100D02*
D03*
X41100Y63400D02*
D03*
X37100D02*
D03*
D56*
X73000Y70400D02*
Y72000D01*
Y70400D02*
X73900Y69500D01*
X87597Y47500D02*
X97000D01*
X99200Y33800D02*
Y45300D01*
X97000Y47500D02*
X99200Y45300D01*
X79100Y44400D02*
X79500Y44000D01*
X87100D01*
X57700Y44400D02*
X79100D01*
X50000Y41500D02*
X51300D01*
X62450Y48450D02*
X65000Y45900D01*
X83400D01*
X96200Y29400D02*
X100100Y33300D01*
Y54027D01*
X52490Y22964D02*
X54654Y20800D01*
X45236Y23864D02*
X52863D01*
X52863D02*
X55027Y21700D01*
X52117Y22064D02*
X54282Y19900D01*
X40936Y22064D02*
X52117D01*
X53236Y24764D02*
X55400Y22600D01*
X45836Y24764D02*
X53236D01*
X42836Y22964D02*
X52490D01*
X36500Y34100D02*
X45836Y24764D01*
X53600Y30500D02*
X55300Y28800D01*
Y26900D02*
Y28800D01*
X54282Y19900D02*
X55300D01*
X54654Y20800D02*
X55673D01*
X65000Y10200D02*
X76700D01*
X65173Y11300D02*
X74743D01*
X55673Y20800D02*
X65173Y11300D01*
X55300Y19900D02*
X65000Y10200D01*
X55027Y21700D02*
X56500D01*
X55400Y22600D02*
X56100D01*
X56500Y21700D02*
X67800Y33000D01*
X56100Y22600D02*
X68200Y34700D01*
X72200D01*
X67800Y33000D02*
X69700D01*
X74600Y29727D02*
X77400Y32527D01*
Y35373D01*
X74200Y37300D02*
X76500Y35000D01*
X71200Y27600D02*
X76500Y32900D01*
Y35000D01*
X75800Y36973D02*
X77400Y35373D01*
X74573Y38200D02*
X75800Y36973D01*
X72300Y38200D02*
X74573D01*
X50131Y37300D02*
X74200D01*
X56400Y40300D02*
X58500Y38200D01*
X50000Y37169D02*
X50131Y37300D01*
X58500Y38200D02*
X72300D01*
X76500Y28800D02*
X83500Y35800D01*
X76500Y25373D02*
Y28800D01*
X83500Y35800D02*
Y40800D01*
X75600Y29173D02*
X82600Y36173D01*
X75600Y29100D02*
Y29173D01*
X82600Y36173D02*
Y38300D01*
X100100Y54027D02*
X101000Y54927D01*
X82900Y52197D02*
X87597Y47500D01*
X96099Y53799D02*
X99200Y56900D01*
X91800Y92000D02*
X101000Y82800D01*
X96500Y51700D02*
X100100Y55300D01*
X99200Y56900D02*
Y73700D01*
X100100Y55300D02*
Y74500D01*
X101000Y54927D02*
Y82800D01*
X97100Y77500D02*
X100100Y74500D01*
X96400Y76500D02*
X99200Y73700D01*
X96500Y51700D02*
Y51700D01*
X42600Y39300D02*
Y46427D01*
X41400Y47627D02*
X42600Y46427D01*
X40500Y37200D02*
X42600Y39300D01*
X43600Y33100D02*
Y36427D01*
Y33100D02*
X46200Y30500D01*
X43600Y36427D02*
Y46700D01*
X42300Y48000D02*
X43600Y46700D01*
X57200Y92000D02*
X91800D01*
X81000Y66000D02*
X82500D01*
X79700Y64700D02*
X81000Y66000D01*
X79700Y63200D02*
Y64700D01*
Y63200D02*
X80300Y62600D01*
X96900Y31500D02*
X99200Y33800D01*
X92300Y29400D02*
X96200D01*
X80400Y40500D02*
X82600Y38300D01*
X75800Y40500D02*
X80400D01*
X74600Y24400D02*
Y29727D01*
X71200Y15400D02*
Y27600D01*
X74600Y24400D02*
X78700Y20300D01*
X82900D01*
X79173Y22700D02*
X83200D01*
X79100Y21500D02*
X83100D01*
X75600Y25000D02*
Y29100D01*
Y25000D02*
X79100Y21500D01*
X76500Y25373D02*
X79173Y22700D01*
X51939Y50161D02*
X57700Y44400D01*
X50000Y50161D02*
X51939D01*
X50000Y45831D02*
X54769D01*
X56400Y44200D01*
Y40300D02*
Y44200D01*
X48469Y45831D02*
X50000D01*
X46300Y69400D02*
X47500Y68200D01*
X46300Y69400D02*
Y74100D01*
X43800Y76600D02*
X46300Y74100D01*
X40400Y76600D02*
X43800D01*
X39100Y75300D02*
X40400Y76600D01*
X39100Y57073D02*
Y75300D01*
X41100Y73900D02*
X44700Y70300D01*
Y60900D02*
Y70300D01*
Y60900D02*
X46777Y58823D01*
X50000D01*
X41100Y70400D02*
X43800Y67700D01*
Y56400D02*
Y67700D01*
Y56400D02*
X45708Y54492D01*
X50000D01*
X41100Y66900D02*
X42900Y65100D01*
Y55873D02*
Y65100D01*
X45000Y49300D02*
Y53773D01*
X42900Y55873D02*
X45000Y53773D01*
Y49300D02*
X48469Y45831D01*
X41100Y56400D02*
X44100Y53400D01*
Y48746D02*
Y53400D01*
X39100Y57073D02*
X43200Y52973D01*
Y48373D02*
Y52973D01*
X41100Y56400D02*
Y63400D01*
X43200Y48373D02*
X44500Y47073D01*
X44100Y48746D02*
X45400Y47446D01*
Y39700D02*
Y47073D01*
Y47446D01*
Y39700D02*
X47931Y37169D01*
X44500Y36800D02*
Y47073D01*
X47931Y37169D02*
X50000D01*
X42300Y48000D02*
Y52600D01*
X41400Y47627D02*
Y47900D01*
X44500Y36800D02*
X46300Y35000D01*
X41400Y47900D02*
Y52227D01*
X32400Y62500D02*
X42300Y52600D01*
X31400Y62227D02*
X41400Y52227D01*
X31400Y80100D02*
X39650Y88350D01*
X31400Y62227D02*
Y80100D01*
X32400Y77100D02*
X38000Y82700D01*
X32400Y62500D02*
Y77100D01*
X38000Y82700D02*
X53100D01*
X82100Y42200D02*
X83500Y40800D01*
X74700Y42200D02*
X82100D01*
X73000Y40500D02*
X74700Y42200D01*
X54500Y50500D02*
X56200Y48800D01*
X54500Y50500D02*
Y52800D01*
X52808Y54492D02*
X54500Y52800D01*
X50000Y54492D02*
X52808D01*
X55600Y52000D02*
Y55300D01*
X52077Y58823D02*
X55600Y55300D01*
Y52000D02*
X59150Y48450D01*
X62450D01*
X50000Y58823D02*
X52077D01*
X57900Y53600D02*
X62900Y58600D01*
X79200D01*
X80300Y59700D01*
Y62600D01*
X82500Y66000D02*
X83700Y64800D01*
Y63500D02*
Y64800D01*
X82900Y62700D02*
X83700Y63500D01*
X82900Y52197D02*
Y62700D01*
X80300Y14100D02*
X80500Y13900D01*
X90600Y30500D02*
X91600Y31500D01*
X96900D01*
X90600Y28300D02*
Y30500D01*
X94500Y27000D02*
X96500Y25000D01*
Y25000D02*
Y25000D01*
X91900Y27000D02*
X94500D01*
X90600Y28300D02*
X91900Y27000D01*
X81800Y13900D02*
X83900Y16000D01*
X80500Y13900D02*
X81800D01*
X83900Y16000D02*
Y19300D01*
X82900Y20300D02*
X83900Y19300D01*
X78500Y12000D02*
Y16600D01*
X80379Y18479D02*
X82179D01*
X78500Y16600D02*
X80379Y18479D01*
X76700Y10200D02*
X78500Y12000D01*
X69200Y13400D02*
X71200Y15400D01*
X72200Y34700D02*
X73100Y33800D01*
X74743Y11300D02*
X76121Y12679D01*
X54800Y35000D02*
X54900Y34900D01*
X46300Y35000D02*
X54800D01*
X46200Y30500D02*
X53600D01*
X53800Y68200D02*
X56200Y70600D01*
X47500Y68200D02*
X53800D01*
X36790Y44810D02*
X37780Y45800D01*
X41000D01*
X76600Y69500D02*
X78200Y71100D01*
X73900Y69500D02*
X76600D01*
X78200Y71100D02*
Y74800D01*
X86000Y11011D02*
Y19900D01*
X83200Y22700D02*
X86000Y19900D01*
X83100Y21500D02*
X85100Y19500D01*
Y15100D02*
Y19500D01*
X79900Y76500D02*
X96400D01*
X79500Y77500D02*
X97100D01*
X78200Y74800D02*
X79900Y76500D01*
X75900Y73900D02*
X79500Y77500D01*
X75900Y71400D02*
Y73900D01*
X84500Y14500D02*
X85100Y15100D01*
X86000Y11011D02*
X86011Y11000D01*
X42000Y23800D02*
X42836Y22964D01*
X32900Y30100D02*
X40936Y22064D01*
X34700Y34400D02*
X45236Y23864D01*
X38800Y35500D02*
X40500Y37200D01*
X25500Y54200D02*
X32900Y46800D01*
Y30100D02*
Y46800D01*
X94300Y49500D02*
X96500Y51700D01*
X84699Y53799D02*
X96099D01*
X84500Y9300D02*
Y14500D01*
X36500Y34100D02*
Y41800D01*
X34700Y50100D02*
X37300Y52700D01*
X34700Y34400D02*
Y50100D01*
X55700Y78000D02*
X60732Y83031D01*
X60869D01*
D57*
X93373Y34772D02*
D03*
Y68828D02*
D03*
D58*
X109121Y34772D02*
D03*
Y68828D02*
D03*
D59*
X95342Y63178D02*
D03*
Y40422D02*
D03*
D60*
X25400Y49300D02*
D03*
X29300Y54700D02*
D03*
X54000Y66400D02*
D03*
X48800Y70900D02*
D03*
X86000Y84100D02*
D03*
X87100Y73300D02*
D03*
X80900Y27600D02*
D03*
X80500Y71600D02*
D03*
X97200Y43400D02*
D03*
X51300Y41500D02*
D03*
X83400Y45900D02*
D03*
X49000Y41600D02*
D03*
X41600Y32000D02*
D03*
X63100Y33200D02*
D03*
X82100Y42200D02*
D03*
X56200Y48800D02*
D03*
X57900Y53600D02*
D03*
X80300Y14100D02*
D03*
X96500Y25000D02*
D03*
X69700Y33000D02*
D03*
X69200Y13400D02*
D03*
D61*
X73000Y72000D02*
D03*
X55300Y26900D02*
D03*
X63800Y26500D02*
D03*
X92300Y29400D02*
D03*
X73100Y33800D02*
D03*
X54900Y34900D02*
D03*
X41000Y45800D02*
D03*
X39100Y50800D02*
D03*
X63800Y22500D02*
D03*
Y18500D02*
D03*
X69000Y26500D02*
D03*
X97500Y72200D02*
D03*
X90500Y79500D02*
D03*
X86300Y87800D02*
D03*
X99200Y15200D02*
D03*
X84600Y56900D02*
D03*
Y59800D02*
D03*
X77800Y66500D02*
D03*
X67100Y62600D02*
D03*
X59700Y59200D02*
D03*
X59900Y62400D02*
D03*
X46500Y89500D02*
D03*
Y92000D02*
D03*
Y94500D02*
D03*
X12400Y49200D02*
D03*
Y51700D02*
D03*
Y54200D02*
D03*
X103500Y14500D02*
D03*
X54500Y12900D02*
D03*
Y15600D02*
D03*
X53400Y18200D02*
D03*
X57500Y10000D02*
D03*
X51500Y20000D02*
D03*
X49000D02*
D03*
X46500D02*
D03*
X44000D02*
D03*
X41500D02*
D03*
X38500Y21000D02*
D03*
X36000D02*
D03*
X33500D02*
D03*
X31000D02*
D03*
X28500D02*
D03*
X103500Y47500D02*
D03*
Y50000D02*
D03*
Y52500D02*
D03*
X92000Y21500D02*
D03*
X95000D02*
D03*
X103500Y12000D02*
D03*
X69000Y18500D02*
D03*
X66400D02*
D03*
Y22500D02*
D03*
X69000D02*
D03*
X66400Y26500D02*
D03*
X66500Y51000D02*
D03*
X70000D02*
D03*
X73500D02*
D03*
Y54500D02*
D03*
X70000D02*
D03*
X66500D02*
D03*
X60500Y70500D02*
D03*
X63500Y72500D02*
D03*
X70000Y85000D02*
D03*
X73000D02*
D03*
Y88000D02*
D03*
X70000D02*
D03*
X101500Y87500D02*
D03*
Y90500D02*
D03*
X98500D02*
D03*
Y93500D02*
D03*
X38800Y35500D02*
D03*
X39650Y88350D02*
D03*
X57200Y92000D02*
D03*
X78600Y61400D02*
D03*
X81700Y64100D02*
D03*
X97100Y81400D02*
D03*
X91000Y14100D02*
D03*
X81400Y67900D02*
D03*
X96371Y58829D02*
D03*
X25500Y54200D02*
D03*
X82179Y18479D02*
D03*
X75900Y71400D02*
D03*
X94300Y49500D02*
D03*
X84699Y53799D02*
D03*
X75800Y40500D02*
D03*
X73000D02*
D03*
X84500Y9300D02*
D03*
X86011Y11000D02*
D03*
X37300Y52700D02*
D03*
X36500Y41800D02*
D03*
X36790Y44810D02*
D03*
X56200Y70600D02*
D03*
X53100Y82700D02*
D03*
X55700Y78000D02*
D03*
X60869Y83031D02*
D03*
X42000Y23800D02*
D03*
X76121Y12679D02*
D03*
D62*
X80413Y27130D02*
D03*
D63*
X82972Y74079D02*
D03*
D64*
X50492Y27614D02*
D03*
D65*
Y72799D02*
D03*
D66*
X86319Y28409D02*
D03*
D67*
X92520Y72504D02*
D03*
D68*
X50000Y32839D02*
D03*
Y37169D02*
D03*
Y41500D02*
D03*
Y45831D02*
D03*
Y50161D02*
D03*
Y54492D02*
D03*
Y58823D02*
D03*
Y63153D02*
D03*
M02*
