G04*
G04 #@! TF.GenerationSoftware,Altium Limited,Altium Designer,21.0.8 (223)*
G04*
G04 Layer_Physical_Order=1*
G04 Layer_Color=255*
%FSLAX25Y25*%
%MOIN*%
G70*
G04*
G04 #@! TF.SameCoordinates,79EE65CB-F902-4879-BC94-3960DDC4A82B*
G04*
G04*
G04 #@! TF.FilePolarity,Positive*
G04*
G01*
G75*
%ADD10C,0.01000*%
G04:AMPARAMS|DCode=13|XSize=15.75mil|YSize=80mil|CornerRadius=3.94mil|HoleSize=0mil|Usage=FLASHONLY|Rotation=90.000|XOffset=0mil|YOffset=0mil|HoleType=Round|Shape=RoundedRectangle|*
%AMROUNDEDRECTD13*
21,1,0.01575,0.07213,0,0,90.0*
21,1,0.00787,0.08000,0,0,90.0*
1,1,0.00787,0.03606,0.00394*
1,1,0.00787,0.03606,-0.00394*
1,1,0.00787,-0.03606,-0.00394*
1,1,0.00787,-0.03606,0.00394*
%
%ADD13ROUNDEDRECTD13*%
G04:AMPARAMS|DCode=14|XSize=20mil|YSize=20mil|CornerRadius=5mil|HoleSize=0mil|Usage=FLASHONLY|Rotation=180.000|XOffset=0mil|YOffset=0mil|HoleType=Round|Shape=RoundedRectangle|*
%AMROUNDEDRECTD14*
21,1,0.02000,0.01000,0,0,180.0*
21,1,0.01000,0.02000,0,0,180.0*
1,1,0.01000,-0.00500,0.00500*
1,1,0.01000,0.00500,0.00500*
1,1,0.01000,0.00500,-0.00500*
1,1,0.01000,-0.00500,-0.00500*
%
%ADD14ROUNDEDRECTD14*%
G04:AMPARAMS|DCode=15|XSize=23.62mil|YSize=39.37mil|CornerRadius=5.91mil|HoleSize=0mil|Usage=FLASHONLY|Rotation=0.000|XOffset=0mil|YOffset=0mil|HoleType=Round|Shape=RoundedRectangle|*
%AMROUNDEDRECTD15*
21,1,0.02362,0.02756,0,0,0.0*
21,1,0.01181,0.03937,0,0,0.0*
1,1,0.01181,0.00591,-0.01378*
1,1,0.01181,-0.00591,-0.01378*
1,1,0.01181,-0.00591,0.01378*
1,1,0.01181,0.00591,0.01378*
%
%ADD15ROUNDEDRECTD15*%
G04:AMPARAMS|DCode=16|XSize=86mil|YSize=72mil|CornerRadius=18mil|HoleSize=0mil|Usage=FLASHONLY|Rotation=0.000|XOffset=0mil|YOffset=0mil|HoleType=Round|Shape=RoundedRectangle|*
%AMROUNDEDRECTD16*
21,1,0.08600,0.03600,0,0,0.0*
21,1,0.05000,0.07200,0,0,0.0*
1,1,0.03600,0.02500,-0.01800*
1,1,0.03600,-0.02500,-0.01800*
1,1,0.03600,-0.02500,0.01800*
1,1,0.03600,0.02500,0.01800*
%
%ADD16ROUNDEDRECTD16*%
G04:AMPARAMS|DCode=17|XSize=50mil|YSize=10mil|CornerRadius=2.5mil|HoleSize=0mil|Usage=FLASHONLY|Rotation=180.000|XOffset=0mil|YOffset=0mil|HoleType=Round|Shape=RoundedRectangle|*
%AMROUNDEDRECTD17*
21,1,0.05000,0.00500,0,0,180.0*
21,1,0.04500,0.01000,0,0,180.0*
1,1,0.00500,-0.02250,0.00250*
1,1,0.00500,0.02250,0.00250*
1,1,0.00500,0.02250,-0.00250*
1,1,0.00500,-0.02250,-0.00250*
%
%ADD17ROUNDEDRECTD17*%
%ADD23C,0.00400*%
G36*
X114680Y1020D02*
X1020D01*
Y102280D01*
X114680D01*
Y1020D01*
D02*
G37*
%LPC*%
G36*
X56450Y59404D02*
X51950D01*
X51657Y59346D01*
X51475Y59224D01*
X51434Y59213D01*
X51420Y59187D01*
X51409Y59180D01*
X51408Y59178D01*
X51383Y59168D01*
X51369Y59134D01*
X51349Y59132D01*
X51281Y59131D01*
X51218Y59103D01*
X50790D01*
X50517Y59049D01*
X50285Y58894D01*
X48795Y57405D01*
X48641Y57173D01*
X48586Y56900D01*
Y28300D01*
X48641Y28027D01*
X48795Y27795D01*
X57695Y18895D01*
X57927Y18741D01*
X58200Y18686D01*
X61023D01*
X61058Y18510D01*
X61279Y18179D01*
X61610Y17958D01*
X62000Y17880D01*
X63000D01*
X63390Y17958D01*
X63721Y18179D01*
X63942Y18510D01*
X64020Y18900D01*
Y19900D01*
X63954Y20230D01*
X63978Y20256D01*
X64395Y20495D01*
X64627Y20341D01*
X64900Y20286D01*
X71535D01*
X71808Y20341D01*
X72039Y20495D01*
X74496Y22952D01*
X74724Y22800D01*
X75150Y22716D01*
X76331D01*
X76756Y22800D01*
X77117Y23041D01*
X77358Y23402D01*
X77443Y23828D01*
Y26583D01*
X77358Y27009D01*
X77117Y27370D01*
X76756Y27611D01*
X76331Y27695D01*
X75150D01*
X74724Y27611D01*
X74601Y27529D01*
X74530Y27481D01*
X74212Y27870D01*
X78189Y31847D01*
X78236Y31864D01*
X78366Y31985D01*
X78484Y32079D01*
X78605Y32161D01*
X78728Y32232D01*
X78855Y32291D01*
X78987Y32339D01*
X79124Y32377D01*
X79267Y32404D01*
X79417Y32421D01*
X79594Y32427D01*
X79641Y32448D01*
X83167D01*
X83217Y32427D01*
X83372Y32424D01*
X83501Y32418D01*
X83747Y32391D01*
X83840Y32374D01*
X83926Y32354D01*
X83945Y32348D01*
X84039Y32131D01*
X84061Y32017D01*
X84062Y32001D01*
X84036Y31841D01*
X84022Y31798D01*
X83949Y31750D01*
X83752Y31454D01*
X83748Y31434D01*
X83729Y31425D01*
X82512D01*
X82239Y31371D01*
X82007Y31216D01*
X79695Y28905D01*
X79541Y28673D01*
X79486Y28400D01*
Y20196D01*
X75399Y16108D01*
X73703D01*
Y16772D01*
X73618Y17198D01*
X73377Y17559D01*
X73016Y17800D01*
X72591Y17884D01*
X71409D01*
X70984Y17800D01*
X70623Y17559D01*
X70382Y17198D01*
X70297Y16772D01*
Y14017D01*
X70382Y13591D01*
X70623Y13230D01*
X70984Y12989D01*
X71409Y12905D01*
X72591D01*
X73016Y12989D01*
X73377Y13230D01*
X73618Y13591D01*
X73703Y14017D01*
Y14681D01*
X75695D01*
X75968Y14735D01*
X76199Y14890D01*
X80705Y19395D01*
X80859Y19627D01*
X80914Y19900D01*
Y28104D01*
X82807Y29998D01*
X83729D01*
X83748Y29990D01*
X83752Y29969D01*
X83949Y29674D01*
X84245Y29476D01*
X84594Y29407D01*
X91806D01*
X92155Y29476D01*
X92451Y29674D01*
X92648Y29969D01*
X92717Y30318D01*
Y31106D01*
X92648Y31454D01*
X92451Y31750D01*
X92370Y31804D01*
Y32376D01*
X92451Y32430D01*
X92648Y32725D01*
X92717Y33074D01*
Y33861D01*
X92648Y34210D01*
X92451Y34506D01*
X92155Y34703D01*
X91806Y34773D01*
X84594D01*
X84476Y34749D01*
X84445Y34762D01*
X84356Y34725D01*
X84245Y34703D01*
X84233Y34695D01*
X84167Y34685D01*
X84108Y34650D01*
X84060Y34627D01*
X84000Y34604D01*
X83926Y34582D01*
X83840Y34561D01*
X83752Y34545D01*
X83361Y34511D01*
X83217Y34509D01*
X83167Y34487D01*
X79641D01*
X79594Y34509D01*
X79417Y34515D01*
X79267Y34532D01*
X79124Y34559D01*
X78987Y34597D01*
X78855Y34645D01*
X78728Y34704D01*
X78604Y34774D01*
X78484Y34856D01*
X78366Y34950D01*
X78236Y35071D01*
X78189Y35089D01*
X73056Y40221D01*
X72726Y40442D01*
X72335Y40520D01*
X65622D01*
X58842Y47300D01*
X58512Y47521D01*
X58121Y47598D01*
X57522D01*
X57471Y47620D01*
X56509Y47625D01*
X56485Y47626D01*
X56469Y47620D01*
X56450Y47627D01*
X56379Y47598D01*
X54200D01*
X54175Y47593D01*
X51950D01*
X51657Y47535D01*
X51409Y47369D01*
X51244Y47121D01*
X51185Y46829D01*
Y46329D01*
X51244Y46036D01*
X51409Y45788D01*
Y45401D01*
X51244Y45153D01*
X51185Y44860D01*
Y44360D01*
X51244Y44068D01*
X51409Y43819D01*
X51657Y43654D01*
X51950Y43595D01*
X56450D01*
X56743Y43654D01*
X56991Y43819D01*
X57156Y44068D01*
X57215Y44360D01*
Y44860D01*
X57544Y45322D01*
X57835Y45375D01*
X57898Y45360D01*
X64479Y38779D01*
X64810Y38558D01*
X65200Y38480D01*
X71913D01*
X76535Y33858D01*
X76551Y33813D01*
X76656Y33696D01*
X76714Y33614D01*
X76745Y33550D01*
X76760Y33503D01*
X76763Y33468D01*
X76760Y33432D01*
X76745Y33385D01*
X76714Y33321D01*
X76656Y33239D01*
X76551Y33123D01*
X76535Y33077D01*
X70401Y26943D01*
X70161Y26973D01*
X69831Y27080D01*
X69637Y27370D01*
X69276Y27611D01*
X68850Y27695D01*
X67669D01*
X67244Y27611D01*
X66883Y27370D01*
X66642Y27009D01*
X66557Y26583D01*
Y23828D01*
X66642Y23402D01*
X66883Y23041D01*
X67244Y22800D01*
X67669Y22716D01*
X68850D01*
X69276Y22800D01*
X69637Y23041D01*
X69878Y23402D01*
X69962Y23828D01*
Y24160D01*
X70002Y24163D01*
X70113Y24164D01*
X70212Y24207D01*
X70496Y24263D01*
X70827Y24485D01*
X73864Y27522D01*
X74252Y27203D01*
X74204Y27132D01*
X74122Y27009D01*
X74038Y26583D01*
Y24608D01*
X74035Y24603D01*
X74033Y24592D01*
X74031Y24584D01*
X74031Y24581D01*
X74027Y24574D01*
X74015Y24553D01*
X74001Y24532D01*
X73931Y24447D01*
X73886Y24399D01*
X73885Y24398D01*
X73884Y24398D01*
X73860Y24335D01*
X71239Y21714D01*
X65196D01*
X64159Y22750D01*
X64134Y22814D01*
X64069Y22882D01*
X64023Y22933D01*
X64020Y22938D01*
Y22951D01*
X64027Y22968D01*
X64020Y22986D01*
Y23046D01*
X64021Y23050D01*
X64020Y23052D01*
Y23900D01*
X63942Y24290D01*
X63721Y24621D01*
X63390Y24842D01*
X63000Y24920D01*
X62000D01*
X61610Y24842D01*
X61279Y24621D01*
X61058Y24290D01*
X60980Y23900D01*
Y22900D01*
X61058Y22510D01*
X61279Y22179D01*
X61610Y21958D01*
X62000Y21880D01*
X62848D01*
X62850Y21880D01*
X62853Y21880D01*
X62915D01*
X62932Y21873D01*
X62949Y21880D01*
X62959D01*
X63023Y21827D01*
X63086Y21766D01*
X63150Y21741D01*
X63434Y21456D01*
X63420Y21346D01*
X63000Y20920D01*
X62000D01*
X61610Y20842D01*
X61279Y20621D01*
X61058Y20290D01*
X61023Y20114D01*
X58496D01*
X50014Y28596D01*
Y56604D01*
X50657Y57248D01*
X51121Y57230D01*
X51125Y57224D01*
X51231Y56994D01*
X51244Y56964D01*
X51185Y56671D01*
Y56171D01*
X51244Y55879D01*
X51409Y55630D01*
Y55243D01*
X51244Y54995D01*
X51185Y54703D01*
Y54203D01*
X51244Y53910D01*
X51409Y53662D01*
Y53275D01*
X51244Y53027D01*
X51185Y52734D01*
Y52234D01*
X51244Y51942D01*
X51409Y51693D01*
Y51306D01*
X51244Y51058D01*
X51185Y50766D01*
Y50266D01*
X51244Y49973D01*
X51409Y49725D01*
X51657Y49559D01*
X51950Y49501D01*
X56450D01*
X56743Y49559D01*
X56925Y49681D01*
X56966Y49692D01*
X56980Y49718D01*
X56991Y49725D01*
X56992Y49727D01*
X57017Y49738D01*
X57031Y49771D01*
X57051Y49773D01*
X57119Y49775D01*
X57182Y49802D01*
X58489D01*
X67060Y41231D01*
X67291Y41076D01*
X67565Y41022D01*
X83729D01*
X83748Y41014D01*
X83752Y40993D01*
X83949Y40697D01*
X84245Y40500D01*
X84594Y40431D01*
X91806D01*
X92155Y40500D01*
X92451Y40697D01*
X92648Y40993D01*
X92717Y41342D01*
Y42129D01*
X92648Y42478D01*
X92451Y42774D01*
X92155Y42971D01*
X91806Y43040D01*
X84594D01*
X84245Y42971D01*
X83949Y42774D01*
X83752Y42478D01*
X83748Y42457D01*
X83729Y42449D01*
X67860D01*
X59289Y51020D01*
X59057Y51175D01*
X58784Y51229D01*
X57692D01*
X57545Y51622D01*
X57661Y51771D01*
X60420D01*
X65448Y46743D01*
X65680Y46588D01*
X65953Y46534D01*
X83729D01*
X83748Y46525D01*
X83752Y46505D01*
X83949Y46209D01*
X84245Y46012D01*
X84594Y45942D01*
X91806D01*
X92155Y46012D01*
X92451Y46209D01*
X92648Y46505D01*
X92717Y46854D01*
Y47641D01*
X92648Y47990D01*
X92451Y48285D01*
X92370Y48339D01*
Y48911D01*
X92451Y48965D01*
X92648Y49261D01*
X92717Y49609D01*
Y50397D01*
X92648Y50745D01*
X92451Y51041D01*
X92370Y51095D01*
Y51667D01*
X92451Y51721D01*
X92648Y52017D01*
X92717Y52365D01*
Y53153D01*
X92648Y53501D01*
X92451Y53797D01*
X92155Y53995D01*
X91806Y54064D01*
X84594D01*
X84245Y53995D01*
X83949Y53797D01*
X83752Y53501D01*
X83748Y53481D01*
X83729Y53473D01*
X66637D01*
X63183Y56926D01*
X62952Y57081D01*
X62679Y57135D01*
X57230D01*
X57043Y57578D01*
X57079Y57732D01*
X57156Y57847D01*
X57215Y58140D01*
Y58640D01*
X57156Y58932D01*
X56991Y59180D01*
X56743Y59346D01*
X56450Y59404D01*
D02*
G37*
%LPD*%
G36*
X51766Y57994D02*
X51761Y58031D01*
X51747Y58065D01*
X51723Y58094D01*
X51690Y58119D01*
X51647Y58141D01*
X51595Y58158D01*
X51534Y58172D01*
X51463Y58182D01*
X51382Y58188D01*
X51292Y58190D01*
Y58590D01*
X51382Y58592D01*
X51534Y58607D01*
X51595Y58621D01*
X51647Y58639D01*
X51690Y58660D01*
X51723Y58685D01*
X51747Y58715D01*
X51761Y58748D01*
X51766Y58785D01*
Y57994D01*
D02*
G37*
G36*
X56639Y56779D02*
X56653Y56746D01*
X56677Y56717D01*
X56710Y56691D01*
X56753Y56670D01*
X56805Y56652D01*
X56866Y56639D01*
X56937Y56629D01*
X57018Y56623D01*
X57108Y56621D01*
Y56221D01*
X57018Y56219D01*
X56866Y56204D01*
X56805Y56190D01*
X56753Y56172D01*
X56710Y56151D01*
X56677Y56125D01*
X56653Y56096D01*
X56639Y56063D01*
X56634Y56026D01*
Y56817D01*
X56639Y56779D01*
D02*
G37*
G36*
Y54811D02*
X56653Y54778D01*
X56677Y54748D01*
X56710Y54723D01*
X56753Y54702D01*
X56805Y54684D01*
X56866Y54670D01*
X56937Y54660D01*
X57018Y54655D01*
X57108Y54653D01*
Y54253D01*
X57018Y54251D01*
X56866Y54235D01*
X56805Y54221D01*
X56753Y54204D01*
X56710Y54182D01*
X56677Y54157D01*
X56653Y54128D01*
X56639Y54094D01*
X56634Y54057D01*
Y54848D01*
X56639Y54811D01*
D02*
G37*
G36*
X84218Y52361D02*
X84213Y52399D01*
X84201Y52433D01*
X84180Y52462D01*
X84152Y52488D01*
X84114Y52510D01*
X84069Y52527D01*
X84015Y52541D01*
X83953Y52551D01*
X83883Y52557D01*
X83805Y52559D01*
Y52959D01*
X83883Y52961D01*
X83953Y52967D01*
X84015Y52977D01*
X84069Y52991D01*
X84114Y53009D01*
X84152Y53030D01*
X84180Y53056D01*
X84201Y53086D01*
X84213Y53119D01*
X84218Y53157D01*
Y52361D01*
D02*
G37*
G36*
X56639Y52842D02*
X56653Y52809D01*
X56677Y52780D01*
X56710Y52754D01*
X56753Y52733D01*
X56805Y52715D01*
X56866Y52702D01*
X56937Y52692D01*
X57018Y52686D01*
X57108Y52684D01*
Y52284D01*
X57018Y52282D01*
X56866Y52267D01*
X56805Y52253D01*
X56753Y52235D01*
X56710Y52214D01*
X56677Y52188D01*
X56653Y52159D01*
X56639Y52126D01*
X56634Y52089D01*
Y52880D01*
X56639Y52842D01*
D02*
G37*
G36*
Y50874D02*
X56653Y50841D01*
X56677Y50811D01*
X56710Y50786D01*
X56753Y50765D01*
X56805Y50747D01*
X56866Y50733D01*
X56937Y50723D01*
X57018Y50718D01*
X57108Y50716D01*
Y50316D01*
X57018Y50314D01*
X56866Y50298D01*
X56805Y50284D01*
X56753Y50267D01*
X56710Y50245D01*
X56677Y50220D01*
X56653Y50191D01*
X56639Y50157D01*
X56634Y50120D01*
Y50911D01*
X56639Y50874D01*
D02*
G37*
G36*
X84218Y49606D02*
X84213Y49643D01*
X84201Y49677D01*
X84180Y49706D01*
X84152Y49732D01*
X84114Y49754D01*
X84069Y49771D01*
X84015Y49785D01*
X83953Y49795D01*
X83883Y49801D01*
X83805Y49803D01*
Y50203D01*
X83883Y50205D01*
X83953Y50211D01*
X84015Y50221D01*
X84069Y50235D01*
X84114Y50253D01*
X84152Y50274D01*
X84180Y50300D01*
X84201Y50330D01*
X84213Y50363D01*
X84218Y50401D01*
Y49606D01*
D02*
G37*
G36*
Y46850D02*
X84213Y46887D01*
X84201Y46921D01*
X84180Y46950D01*
X84152Y46976D01*
X84114Y46998D01*
X84069Y47016D01*
X84015Y47030D01*
X83953Y47039D01*
X83883Y47045D01*
X83805Y47047D01*
Y47447D01*
X83883Y47449D01*
X83953Y47455D01*
X84015Y47465D01*
X84069Y47479D01*
X84114Y47497D01*
X84152Y47518D01*
X84180Y47544D01*
X84201Y47574D01*
X84213Y47607D01*
X84218Y47645D01*
Y46850D01*
D02*
G37*
G36*
X56463Y47085D02*
X56497Y47084D01*
X57468Y47079D01*
Y46079D01*
X56450Y46071D01*
Y47086D01*
X56463Y47085D01*
D02*
G37*
G36*
X84218Y41338D02*
X84213Y41375D01*
X84201Y41409D01*
X84180Y41439D01*
X84152Y41464D01*
X84114Y41486D01*
X84069Y41504D01*
X84015Y41518D01*
X83953Y41528D01*
X83883Y41533D01*
X83805Y41535D01*
Y41935D01*
X83883Y41937D01*
X83953Y41943D01*
X84015Y41953D01*
X84069Y41967D01*
X84114Y41985D01*
X84152Y42007D01*
X84180Y42032D01*
X84201Y42062D01*
X84213Y42096D01*
X84218Y42133D01*
Y41338D01*
D02*
G37*
G36*
X84445Y32715D02*
X84364Y32763D01*
X84275Y32806D01*
X84176Y32844D01*
X84068Y32877D01*
X83951Y32904D01*
X83824Y32927D01*
X83543Y32958D01*
X83389Y32965D01*
X83226Y32968D01*
Y33968D01*
X83389Y33970D01*
X83824Y34008D01*
X83951Y34031D01*
X84068Y34059D01*
X84176Y34092D01*
X84275Y34130D01*
X84364Y34173D01*
X84445Y34221D01*
Y32715D01*
D02*
G37*
G36*
X78012Y34541D02*
X78162Y34420D01*
X78318Y34314D01*
X78480Y34222D01*
X78648Y34144D01*
X78822Y34081D01*
X79001Y34031D01*
X79186Y33996D01*
X79378Y33975D01*
X79575Y33968D01*
Y32968D01*
X79378Y32961D01*
X79186Y32939D01*
X79001Y32904D01*
X78822Y32855D01*
X78648Y32791D01*
X78480Y32713D01*
X78318Y32621D01*
X78162Y32515D01*
X78012Y32395D01*
X77868Y32261D01*
X76954Y32761D01*
X77081Y32902D01*
X77180Y33044D01*
X77250Y33185D01*
X77293Y33326D01*
X77307Y33468D01*
X77293Y33609D01*
X77250Y33751D01*
X77180Y33892D01*
X77081Y34033D01*
X76954Y34175D01*
X77868Y34675D01*
X78012Y34541D01*
D02*
G37*
G36*
X84218Y30314D02*
X84213Y30352D01*
X84201Y30385D01*
X84180Y30415D01*
X84152Y30441D01*
X84114Y30462D01*
X84069Y30480D01*
X84015Y30494D01*
X83953Y30504D01*
X83883Y30510D01*
X83805Y30512D01*
Y30912D01*
X83883Y30914D01*
X83953Y30920D01*
X84015Y30930D01*
X84069Y30943D01*
X84114Y30961D01*
X84152Y30983D01*
X84180Y31009D01*
X84201Y31038D01*
X84213Y31072D01*
X84218Y31109D01*
Y30314D01*
D02*
G37*
G36*
X69435Y25839D02*
X69455Y25811D01*
X69489Y25787D01*
X69537Y25765D01*
X69598Y25747D01*
X69672Y25732D01*
X69760Y25720D01*
X69977Y25707D01*
X70105Y25706D01*
Y24705D01*
X69977Y24704D01*
X69672Y24679D01*
X69598Y24664D01*
X69537Y24646D01*
X69489Y24624D01*
X69455Y24600D01*
X69435Y24572D01*
X69428Y24540D01*
Y25871D01*
X69435Y25839D01*
D02*
G37*
G36*
X74654Y23550D02*
X74646Y23597D01*
X74633Y23632D01*
X74612Y23655D01*
X74586Y23665D01*
X74553Y23663D01*
X74513Y23650D01*
X74467Y23624D01*
X74415Y23586D01*
X74356Y23536D01*
X74291Y23474D01*
X74277Y24025D01*
X74336Y24087D01*
X74436Y24208D01*
X74475Y24267D01*
X74508Y24324D01*
X74534Y24380D01*
X74554Y24434D01*
X74566Y24488D01*
X74572Y24540D01*
X74572Y24591D01*
X74654Y23550D01*
D02*
G37*
G36*
X63464Y22939D02*
X63453Y22904D01*
X63452Y22863D01*
X63462Y22818D01*
X63483Y22768D01*
X63514Y22712D01*
X63556Y22651D01*
X63608Y22586D01*
X63671Y22514D01*
X63745Y22438D01*
X63462Y22155D01*
X63386Y22229D01*
X63248Y22344D01*
X63188Y22386D01*
X63132Y22417D01*
X63082Y22438D01*
X63037Y22448D01*
X62996Y22447D01*
X62962Y22436D01*
X62932Y22414D01*
X63486Y22968D01*
X63464Y22939D01*
D02*
G37*
G36*
X61514Y19000D02*
X61510Y19038D01*
X61498Y19072D01*
X61477Y19102D01*
X61449Y19128D01*
X61411Y19150D01*
X61366Y19168D01*
X61313Y19182D01*
X61251Y19192D01*
X61181Y19198D01*
X61102Y19200D01*
Y19600D01*
X61181Y19602D01*
X61251Y19608D01*
X61313Y19618D01*
X61366Y19632D01*
X61411Y19650D01*
X61449Y19672D01*
X61477Y19698D01*
X61498Y19728D01*
X61510Y19762D01*
X61514Y19800D01*
Y19000D01*
D02*
G37*
G36*
X73173Y15756D02*
X73185Y15722D01*
X73206Y15692D01*
X73234Y15666D01*
X73271Y15644D01*
X73317Y15627D01*
X73370Y15612D01*
X73432Y15603D01*
X73502Y15597D01*
X73580Y15595D01*
Y15194D01*
X73502Y15192D01*
X73432Y15187D01*
X73370Y15177D01*
X73317Y15163D01*
X73271Y15145D01*
X73234Y15123D01*
X73206Y15097D01*
X73185Y15067D01*
X73173Y15033D01*
X73168Y14995D01*
Y15795D01*
X73173Y15756D01*
D02*
G37*
D10*
X72335Y39500D02*
X78368Y33468D01*
X65200Y39500D02*
X72335D01*
X58121Y46579D02*
X65200Y39500D01*
X54200Y46579D02*
X58121D01*
X68260Y25205D02*
X70105D01*
X78368Y33468D01*
X88200D01*
D13*
Y25200D02*
D03*
Y33468D02*
D03*
Y41735D02*
D03*
Y50003D02*
D03*
Y30712D02*
D03*
Y27956D02*
D03*
Y38980D02*
D03*
Y36224D02*
D03*
Y44491D02*
D03*
Y47247D02*
D03*
Y52759D02*
D03*
Y55515D02*
D03*
D14*
X62500Y23400D02*
D03*
Y19400D02*
D03*
D15*
X72000Y15394D02*
D03*
X68260Y25205D02*
D03*
X75740D02*
D03*
D16*
X66600Y70063D02*
D03*
Y32937D02*
D03*
D17*
X54200Y58390D02*
D03*
Y56421D02*
D03*
Y54453D02*
D03*
Y52484D02*
D03*
Y50516D02*
D03*
Y48547D02*
D03*
Y46579D02*
D03*
Y44610D02*
D03*
D23*
X82512Y30712D02*
X88200D01*
X80200Y28400D02*
X82512Y30712D01*
X80200Y19900D02*
Y28400D01*
X75695Y15394D02*
X80200Y19900D01*
X72000Y15394D02*
X75695D01*
X50790Y58390D02*
X54200D01*
X49300Y56900D02*
X50790Y58390D01*
X49300Y28300D02*
Y56900D01*
Y28300D02*
X58200Y19400D01*
X62500D01*
X71535Y21000D02*
X75740Y25205D01*
X64900Y21000D02*
X71535D01*
X62500Y23400D02*
X64900Y21000D01*
X67565Y41735D02*
X88200D01*
X58784Y50516D02*
X67565Y41735D01*
X54200Y50516D02*
X58784D01*
X65953Y47247D02*
X88200D01*
X60716Y52484D02*
X65953Y47247D01*
X54200Y52484D02*
X60716D01*
X65997Y50003D02*
X88200D01*
X61547Y54453D02*
X65997Y50003D01*
X54200Y54453D02*
X61547D01*
X66341Y52759D02*
X88200D01*
X62679Y56421D02*
X66341Y52759D01*
X54200Y56421D02*
X62679D01*
M02*
