G04*
G04 #@! TF.GenerationSoftware,Altium Limited,Altium Designer,21.0.8 (223)*
G04*
G04 Layer_Color=8388736*
%FSLAX25Y25*%
%MOIN*%
G70*
G04*
G04 #@! TF.SameCoordinates,79EE65CB-F902-4879-BC94-3960DDC4A82B*
G04*
G04*
G04 #@! TF.FilePolarity,Negative*
G04*
G01*
G75*
G04:AMPARAMS|DCode=18|XSize=21.75mil|YSize=86mil|CornerRadius=6.94mil|HoleSize=0mil|Usage=FLASHONLY|Rotation=90.000|XOffset=0mil|YOffset=0mil|HoleType=Round|Shape=RoundedRectangle|*
%AMROUNDEDRECTD18*
21,1,0.02175,0.07213,0,0,90.0*
21,1,0.00787,0.08600,0,0,90.0*
1,1,0.01387,0.03606,0.00394*
1,1,0.01387,0.03606,-0.00394*
1,1,0.01387,-0.03606,-0.00394*
1,1,0.01387,-0.03606,0.00394*
%
%ADD18ROUNDEDRECTD18*%
G04:AMPARAMS|DCode=19|XSize=26mil|YSize=26mil|CornerRadius=8mil|HoleSize=0mil|Usage=FLASHONLY|Rotation=180.000|XOffset=0mil|YOffset=0mil|HoleType=Round|Shape=RoundedRectangle|*
%AMROUNDEDRECTD19*
21,1,0.02600,0.01000,0,0,180.0*
21,1,0.01000,0.02600,0,0,180.0*
1,1,0.01600,-0.00500,0.00500*
1,1,0.01600,0.00500,0.00500*
1,1,0.01600,0.00500,-0.00500*
1,1,0.01600,-0.00500,-0.00500*
%
%ADD19ROUNDEDRECTD19*%
G04:AMPARAMS|DCode=20|XSize=29.62mil|YSize=45.37mil|CornerRadius=8.91mil|HoleSize=0mil|Usage=FLASHONLY|Rotation=0.000|XOffset=0mil|YOffset=0mil|HoleType=Round|Shape=RoundedRectangle|*
%AMROUNDEDRECTD20*
21,1,0.02962,0.02756,0,0,0.0*
21,1,0.01181,0.04537,0,0,0.0*
1,1,0.01781,0.00591,-0.01378*
1,1,0.01781,-0.00591,-0.01378*
1,1,0.01781,-0.00591,0.01378*
1,1,0.01781,0.00591,0.01378*
%
%ADD20ROUNDEDRECTD20*%
G04:AMPARAMS|DCode=21|XSize=92mil|YSize=78mil|CornerRadius=21mil|HoleSize=0mil|Usage=FLASHONLY|Rotation=0.000|XOffset=0mil|YOffset=0mil|HoleType=Round|Shape=RoundedRectangle|*
%AMROUNDEDRECTD21*
21,1,0.09200,0.03600,0,0,0.0*
21,1,0.05000,0.07800,0,0,0.0*
1,1,0.04200,0.02500,-0.01800*
1,1,0.04200,-0.02500,-0.01800*
1,1,0.04200,-0.02500,0.01800*
1,1,0.04200,0.02500,0.01800*
%
%ADD21ROUNDEDRECTD21*%
G04:AMPARAMS|DCode=22|XSize=56mil|YSize=16mil|CornerRadius=5.5mil|HoleSize=0mil|Usage=FLASHONLY|Rotation=180.000|XOffset=0mil|YOffset=0mil|HoleType=Round|Shape=RoundedRectangle|*
%AMROUNDEDRECTD22*
21,1,0.05600,0.00500,0,0,180.0*
21,1,0.04500,0.01600,0,0,180.0*
1,1,0.01100,-0.02250,0.00250*
1,1,0.01100,0.02250,0.00250*
1,1,0.01100,0.02250,-0.00250*
1,1,0.01100,-0.02250,-0.00250*
%
%ADD22ROUNDEDRECTD22*%
D18*
X88200Y25200D02*
D03*
Y33468D02*
D03*
Y41735D02*
D03*
Y50003D02*
D03*
Y30712D02*
D03*
Y27956D02*
D03*
Y38980D02*
D03*
Y36224D02*
D03*
Y44491D02*
D03*
Y47247D02*
D03*
Y52759D02*
D03*
Y55515D02*
D03*
D19*
X62500Y23400D02*
D03*
Y19400D02*
D03*
D20*
X72000Y15394D02*
D03*
X68260Y25205D02*
D03*
X75740D02*
D03*
D21*
X66600Y70063D02*
D03*
Y32937D02*
D03*
D22*
X54200Y58390D02*
D03*
Y56421D02*
D03*
Y54453D02*
D03*
Y52484D02*
D03*
Y50516D02*
D03*
Y48547D02*
D03*
Y46579D02*
D03*
Y44610D02*
D03*
M02*
