G04*
G04 #@! TF.GenerationSoftware,Altium Limited,Altium Designer,21.0.8 (223)*
G04*
G04 Layer_Color=65535*
%FSLAX25Y25*%
%MOIN*%
G70*
G04*
G04 #@! TF.SameCoordinates,79EE65CB-F902-4879-BC94-3960DDC4A82B*
G04*
G04*
G04 #@! TF.FilePolarity,Positive*
G04*
G01*
G75*
%ADD10C,0.01000*%
%ADD11C,0.00100*%
%ADD12C,0.00787*%
G36*
X61550Y20750D02*
Y22050D01*
X61900D01*
Y20750D01*
X61550D01*
D02*
G37*
G36*
X63450Y22050D02*
Y20750D01*
X63100Y20750D01*
Y22050D01*
X63450Y22050D01*
D02*
G37*
D10*
X115600Y30D02*
Y103330D01*
X100D02*
X115600D01*
X100Y30D02*
Y103330D01*
Y30D02*
X115600D01*
X72100Y32937D02*
X75600D01*
Y33000D02*
Y70000D01*
X55600Y32937D02*
Y38937D01*
Y32937D02*
X61100D01*
X55600Y64063D02*
Y70063D01*
X61100D01*
X72100D02*
X75600D01*
D11*
X63450Y20750D02*
Y22050D01*
X63100Y20750D02*
X63450Y20750D01*
X63100Y20750D02*
Y22050D01*
X63450Y22050D01*
X61550Y20750D02*
X61900D01*
Y22050D01*
X61550D02*
X61900D01*
X61550Y20750D02*
Y22050D01*
D12*
X65898Y16757D02*
X69244D01*
X65898D02*
Y21087D01*
X74756Y16757D02*
X78102D01*
Y21087D01*
M02*
