G04*
G04 #@! TF.GenerationSoftware,Altium Limited,Altium Designer,21.0.8 (223)*
G04*
G04 Layer_Color=255*
%FSLAX25Y25*%
%MOIN*%
G70*
G04*
G04 #@! TF.SameCoordinates,DDAD6121-85C3-450B-9C8F-5C191A547606*
G04*
G04*
G04 #@! TF.FilePolarity,Positive*
G04*
G01*
G75*
G04:AMPARAMS|DCode=13|XSize=86mil|YSize=72mil|CornerRadius=18mil|HoleSize=0mil|Usage=FLASHONLY|Rotation=270.000|XOffset=0mil|YOffset=0mil|HoleType=Round|Shape=RoundedRectangle|*
%AMROUNDEDRECTD13*
21,1,0.08600,0.03600,0,0,270.0*
21,1,0.05000,0.07200,0,0,270.0*
1,1,0.03600,-0.01800,-0.02500*
1,1,0.03600,-0.01800,0.02500*
1,1,0.03600,0.01800,0.02500*
1,1,0.03600,0.01800,-0.02500*
%
%ADD13ROUNDEDRECTD13*%
G04:AMPARAMS|DCode=14|XSize=23.62mil|YSize=39.37mil|CornerRadius=5.91mil|HoleSize=0mil|Usage=FLASHONLY|Rotation=0.000|XOffset=0mil|YOffset=0mil|HoleType=Round|Shape=RoundedRectangle|*
%AMROUNDEDRECTD14*
21,1,0.02362,0.02756,0,0,0.0*
21,1,0.01181,0.03937,0,0,0.0*
1,1,0.01181,0.00591,-0.01378*
1,1,0.01181,-0.00591,-0.01378*
1,1,0.01181,-0.00591,0.01378*
1,1,0.01181,0.00591,0.01378*
%
%ADD14ROUNDEDRECTD14*%
G04:AMPARAMS|DCode=15|XSize=15.75mil|YSize=80mil|CornerRadius=3.94mil|HoleSize=0mil|Usage=FLASHONLY|Rotation=0.000|XOffset=0mil|YOffset=0mil|HoleType=Round|Shape=RoundedRectangle|*
%AMROUNDEDRECTD15*
21,1,0.01575,0.07213,0,0,0.0*
21,1,0.00787,0.08000,0,0,0.0*
1,1,0.00787,0.00394,-0.03606*
1,1,0.00787,-0.00394,-0.03606*
1,1,0.00787,-0.00394,0.03606*
1,1,0.00787,0.00394,0.03606*
%
%ADD15ROUNDEDRECTD15*%
G04:AMPARAMS|DCode=16|XSize=20mil|YSize=20mil|CornerRadius=5mil|HoleSize=0mil|Usage=FLASHONLY|Rotation=90.000|XOffset=0mil|YOffset=0mil|HoleType=Round|Shape=RoundedRectangle|*
%AMROUNDEDRECTD16*
21,1,0.02000,0.01000,0,0,90.0*
21,1,0.01000,0.02000,0,0,90.0*
1,1,0.01000,0.00500,0.00500*
1,1,0.01000,0.00500,-0.00500*
1,1,0.01000,-0.00500,-0.00500*
1,1,0.01000,-0.00500,0.00500*
%
%ADD16ROUNDEDRECTD16*%
G04:AMPARAMS|DCode=17|XSize=50mil|YSize=10mil|CornerRadius=2.5mil|HoleSize=0mil|Usage=FLASHONLY|Rotation=90.000|XOffset=0mil|YOffset=0mil|HoleType=Round|Shape=RoundedRectangle|*
%AMROUNDEDRECTD17*
21,1,0.05000,0.00500,0,0,90.0*
21,1,0.04500,0.01000,0,0,90.0*
1,1,0.00500,0.00250,0.02250*
1,1,0.00500,0.00250,-0.02250*
1,1,0.00500,-0.00250,-0.02250*
1,1,0.00500,-0.00250,0.02250*
%
%ADD17ROUNDEDRECTD17*%
D13*
X99126Y61500D02*
D03*
X62000D02*
D03*
D14*
X121260Y53689D02*
D03*
X117520Y63500D02*
D03*
X125000D02*
D03*
D15*
X93054Y38800D02*
D03*
X90298D02*
D03*
X84787D02*
D03*
X82031D02*
D03*
X73763D02*
D03*
X76519D02*
D03*
X65495D02*
D03*
X68251D02*
D03*
X87542D02*
D03*
X79275D02*
D03*
X71007D02*
D03*
X62739D02*
D03*
D16*
X118000Y89500D02*
D03*
X122000D02*
D03*
D17*
X73673Y73900D02*
D03*
X75642D02*
D03*
X77610D02*
D03*
X79579D02*
D03*
X81547D02*
D03*
X83516D02*
D03*
X85484D02*
D03*
X87453D02*
D03*
M02*
