G04*
G04 #@! TF.GenerationSoftware,Altium Limited,Altium Designer,21.0.8 (223)*
G04*
G04 Layer_Color=8388736*
%FSLAX25Y25*%
%MOIN*%
G70*
G04*
G04 #@! TF.SameCoordinates,DDAD6121-85C3-450B-9C8F-5C191A547606*
G04*
G04*
G04 #@! TF.FilePolarity,Negative*
G04*
G01*
G75*
G04:AMPARAMS|DCode=18|XSize=92mil|YSize=78mil|CornerRadius=21mil|HoleSize=0mil|Usage=FLASHONLY|Rotation=270.000|XOffset=0mil|YOffset=0mil|HoleType=Round|Shape=RoundedRectangle|*
%AMROUNDEDRECTD18*
21,1,0.09200,0.03600,0,0,270.0*
21,1,0.05000,0.07800,0,0,270.0*
1,1,0.04200,-0.01800,-0.02500*
1,1,0.04200,-0.01800,0.02500*
1,1,0.04200,0.01800,0.02500*
1,1,0.04200,0.01800,-0.02500*
%
%ADD18ROUNDEDRECTD18*%
G04:AMPARAMS|DCode=19|XSize=29.62mil|YSize=45.37mil|CornerRadius=8.91mil|HoleSize=0mil|Usage=FLASHONLY|Rotation=0.000|XOffset=0mil|YOffset=0mil|HoleType=Round|Shape=RoundedRectangle|*
%AMROUNDEDRECTD19*
21,1,0.02962,0.02756,0,0,0.0*
21,1,0.01181,0.04537,0,0,0.0*
1,1,0.01781,0.00591,-0.01378*
1,1,0.01781,-0.00591,-0.01378*
1,1,0.01781,-0.00591,0.01378*
1,1,0.01781,0.00591,0.01378*
%
%ADD19ROUNDEDRECTD19*%
G04:AMPARAMS|DCode=20|XSize=21.75mil|YSize=86mil|CornerRadius=6.94mil|HoleSize=0mil|Usage=FLASHONLY|Rotation=0.000|XOffset=0mil|YOffset=0mil|HoleType=Round|Shape=RoundedRectangle|*
%AMROUNDEDRECTD20*
21,1,0.02175,0.07213,0,0,0.0*
21,1,0.00787,0.08600,0,0,0.0*
1,1,0.01387,0.00394,-0.03606*
1,1,0.01387,-0.00394,-0.03606*
1,1,0.01387,-0.00394,0.03606*
1,1,0.01387,0.00394,0.03606*
%
%ADD20ROUNDEDRECTD20*%
G04:AMPARAMS|DCode=21|XSize=26mil|YSize=26mil|CornerRadius=8mil|HoleSize=0mil|Usage=FLASHONLY|Rotation=90.000|XOffset=0mil|YOffset=0mil|HoleType=Round|Shape=RoundedRectangle|*
%AMROUNDEDRECTD21*
21,1,0.02600,0.01000,0,0,90.0*
21,1,0.01000,0.02600,0,0,90.0*
1,1,0.01600,0.00500,0.00500*
1,1,0.01600,0.00500,-0.00500*
1,1,0.01600,-0.00500,-0.00500*
1,1,0.01600,-0.00500,0.00500*
%
%ADD21ROUNDEDRECTD21*%
G04:AMPARAMS|DCode=22|XSize=56mil|YSize=16mil|CornerRadius=5.5mil|HoleSize=0mil|Usage=FLASHONLY|Rotation=90.000|XOffset=0mil|YOffset=0mil|HoleType=Round|Shape=RoundedRectangle|*
%AMROUNDEDRECTD22*
21,1,0.05600,0.00500,0,0,90.0*
21,1,0.04500,0.01600,0,0,90.0*
1,1,0.01100,0.00250,0.02250*
1,1,0.01100,0.00250,-0.02250*
1,1,0.01100,-0.00250,-0.02250*
1,1,0.01100,-0.00250,0.02250*
%
%ADD22ROUNDEDRECTD22*%
D18*
X99126Y61500D02*
D03*
X62000D02*
D03*
D19*
X121260Y53689D02*
D03*
X117520Y63500D02*
D03*
X125000D02*
D03*
D20*
X93054Y38800D02*
D03*
X90298D02*
D03*
X84787D02*
D03*
X82031D02*
D03*
X73763D02*
D03*
X76519D02*
D03*
X65495D02*
D03*
X68251D02*
D03*
X87542D02*
D03*
X79275D02*
D03*
X71007D02*
D03*
X62739D02*
D03*
D21*
X118000Y89500D02*
D03*
X122000D02*
D03*
D22*
X73673Y73900D02*
D03*
X75642D02*
D03*
X77610D02*
D03*
X79579D02*
D03*
X81547D02*
D03*
X83516D02*
D03*
X85484D02*
D03*
X87453D02*
D03*
M02*
