G04*
G04 #@! TF.GenerationSoftware,Altium Limited,Altium Designer,21.0.8 (223)*
G04*
G04 Layer_Color=65535*
%FSLAX25Y25*%
%MOIN*%
G70*
G04*
G04 #@! TF.SameCoordinates,8E059B7F-88B0-49DF-8ED0-AD27087E488A*
G04*
G04*
G04 #@! TF.FilePolarity,Positive*
G04*
G01*
G75*
%ADD10C,0.00984*%
%ADD11C,0.00394*%
%ADD12C,0.00100*%
%ADD13C,0.00800*%
%ADD14C,0.00200*%
%ADD15C,0.00787*%
%ADD16C,0.01000*%
%ADD17C,0.00600*%
G36*
X91650Y89100D02*
X91300D01*
Y90900D01*
X91650D01*
Y89100D01*
D02*
G37*
G36*
X90700D02*
X90350D01*
Y90900D01*
X90700D01*
Y89100D01*
D02*
G37*
G36*
X50800Y78700D02*
X49500D01*
X49500Y79050D01*
X50800D01*
X50800Y78700D01*
D02*
G37*
G36*
X43300D02*
X42000D01*
Y79050D01*
X43300D01*
Y78700D01*
D02*
G37*
G36*
X50800Y77150D02*
X49500D01*
Y77500D01*
X50800D01*
Y77150D01*
D02*
G37*
G36*
X43300D02*
X42000D01*
X42000Y77500D01*
X43300D01*
X43300Y77150D01*
D02*
G37*
G36*
X101650Y76100D02*
X100350D01*
Y76450D01*
X101650D01*
Y76100D01*
D02*
G37*
G36*
X58950Y75350D02*
X58600Y75350D01*
Y76650D01*
X58950Y76650D01*
Y75350D01*
D02*
G37*
G36*
X57400D02*
X57050D01*
Y76650D01*
X57400D01*
Y75350D01*
D02*
G37*
G36*
X101650Y74550D02*
X100350D01*
X100350Y74900D01*
X101650D01*
X101650Y74550D01*
D02*
G37*
G36*
X85450Y72350D02*
X85100Y72350D01*
Y73650D01*
X85450Y73650D01*
Y72350D01*
D02*
G37*
G36*
X83900D02*
X83550D01*
Y73650D01*
X83900D01*
Y72350D01*
D02*
G37*
G36*
X77500Y64500D02*
X77150D01*
Y66300D01*
X77500D01*
Y64500D01*
D02*
G37*
G36*
X76550D02*
X76200D01*
Y66300D01*
X76550D01*
Y64500D01*
D02*
G37*
G36*
X70500D02*
X70150D01*
Y66300D01*
X70500D01*
Y64500D01*
D02*
G37*
G36*
X69550D02*
X69200D01*
Y66300D01*
X69550D01*
Y64500D01*
D02*
G37*
G36*
X63500D02*
X63150D01*
Y66300D01*
X63500D01*
Y64500D01*
D02*
G37*
G36*
X62550D02*
X62200D01*
Y66300D01*
X62550D01*
Y64500D01*
D02*
G37*
G36*
X57900Y44300D02*
X56100D01*
Y44650D01*
X57900D01*
Y44300D01*
D02*
G37*
G36*
Y43350D02*
X56100D01*
Y43700D01*
X57900D01*
Y43350D01*
D02*
G37*
G36*
X22500Y43200D02*
X19500D01*
X22500Y46200D01*
X22500Y43200D01*
D02*
G37*
G36*
X102650Y30100D02*
X102300D01*
Y31900D01*
X102650D01*
Y30100D01*
D02*
G37*
G36*
X101700D02*
X101350D01*
Y31900D01*
X101700D01*
Y30100D01*
D02*
G37*
G36*
X44650Y26600D02*
X43350D01*
X43350Y26950D01*
X44650D01*
X44650Y26600D01*
D02*
G37*
G36*
X51650Y25100D02*
X51300D01*
Y26900D01*
X51650D01*
Y25100D01*
D02*
G37*
G36*
X50700D02*
X50350D01*
Y26900D01*
X50700D01*
Y25100D01*
D02*
G37*
G36*
X37650D02*
X37300D01*
Y26900D01*
X37650D01*
Y25100D01*
D02*
G37*
G36*
X36700D02*
X36350D01*
Y26900D01*
X36700D01*
Y25100D01*
D02*
G37*
G36*
X44650Y25050D02*
X43350D01*
Y25400D01*
X44650D01*
Y25050D01*
D02*
G37*
G36*
X91650Y12700D02*
X90350D01*
X90350Y13050D01*
X91650D01*
X91650Y12700D01*
D02*
G37*
G36*
X98950Y11200D02*
X98600D01*
Y13000D01*
X98950D01*
Y11200D01*
D02*
G37*
G36*
X98000D02*
X97650D01*
Y13000D01*
X98000D01*
Y11200D01*
D02*
G37*
G36*
X91650Y11150D02*
X90350D01*
Y11500D01*
X91650D01*
Y11150D01*
D02*
G37*
G36*
X98950Y7700D02*
X98600D01*
Y9500D01*
X98950D01*
Y7700D01*
D02*
G37*
G36*
X98000D02*
X97650D01*
Y9500D01*
X98000D01*
Y7700D01*
D02*
G37*
G36*
X91650D02*
X91300D01*
Y9500D01*
X91650D01*
Y7700D01*
D02*
G37*
G36*
X90700D02*
X90350D01*
Y9500D01*
X90700D01*
Y7700D01*
D02*
G37*
D10*
X95992Y87000D02*
G03*
X95992Y87000I-492J0D01*
G01*
X67492Y71500D02*
G03*
X67492Y71500I-492J0D01*
G01*
X82303Y46579D02*
G03*
X82303Y46579I-492J0D01*
G01*
D11*
X57420Y11195D02*
X58995Y9621D01*
X83405Y37179D02*
X84979D01*
Y9621D02*
Y11195D01*
X83405Y9621D02*
X84979D01*
Y35605D02*
Y37179D01*
X57420Y35605D02*
Y37179D01*
X58995D01*
D12*
X91300Y7700D02*
X91650D01*
X91300Y9500D02*
X91650D01*
X91300Y7700D02*
Y9500D01*
X91650Y7700D02*
Y9500D01*
X90350Y7700D02*
Y9500D01*
X90700Y7700D02*
Y9500D01*
X90350Y7700D02*
X90700D01*
X90350Y9500D02*
X90700D01*
X91300Y89100D02*
X91650D01*
X91300Y90900D02*
X91650D01*
X91300Y89100D02*
Y90900D01*
X91650Y89100D02*
Y90900D01*
X90350Y89100D02*
Y90900D01*
X90700Y89100D02*
Y90900D01*
X90350Y89100D02*
X90700D01*
X90350Y90900D02*
X90700D01*
X100350Y74550D02*
X101650D01*
X100350D02*
X100350Y74900D01*
X101650D01*
X101650Y74550D01*
X100350Y76100D02*
Y76450D01*
Y76100D02*
X101650D01*
Y76450D01*
X100350D02*
X101650D01*
X85450Y72350D02*
Y73650D01*
X85100Y72350D02*
X85450Y72350D01*
X85100Y72350D02*
Y73650D01*
X85450Y73650D01*
X83550Y72350D02*
X83900D01*
Y73650D01*
X83550D02*
X83900D01*
X83550Y72350D02*
Y73650D01*
X98600Y11200D02*
X98950D01*
X98600Y13000D02*
X98950D01*
X98600Y11200D02*
Y13000D01*
X98950Y11200D02*
Y13000D01*
X97650Y11200D02*
Y13000D01*
X98000Y11200D02*
Y13000D01*
X97650Y11200D02*
X98000D01*
X97650Y13000D02*
X98000D01*
X98600Y7700D02*
X98950D01*
X98600Y9500D02*
X98950D01*
X98600Y7700D02*
Y9500D01*
X98950Y7700D02*
Y9500D01*
X97650Y7700D02*
Y9500D01*
X98000Y7700D02*
Y9500D01*
X97650Y7700D02*
X98000D01*
X97650Y9500D02*
X98000D01*
X90350Y13050D02*
X91650D01*
X91650Y12700D02*
X91650Y13050D01*
X90350Y12700D02*
X91650D01*
X90350Y13050D02*
X90350Y12700D01*
X91650Y11150D02*
Y11500D01*
X90350D02*
X91650D01*
X90350Y11150D02*
Y11500D01*
Y11150D02*
X91650D01*
X102300Y30100D02*
X102650D01*
X102300Y31900D02*
X102650D01*
X102300Y30100D02*
Y31900D01*
X102650Y30100D02*
Y31900D01*
X101350Y30100D02*
Y31900D01*
X101700Y30100D02*
Y31900D01*
X101350Y30100D02*
X101700D01*
X101350Y31900D02*
X101700D01*
X50350Y26900D02*
X50700D01*
X50350Y25100D02*
X50700D01*
Y26900D01*
X50350Y25100D02*
Y26900D01*
X51650Y25100D02*
Y26900D01*
X51300Y25100D02*
Y26900D01*
X51650D01*
X51300Y25100D02*
X51650D01*
X58950Y75350D02*
Y76650D01*
X58600Y75350D02*
X58950Y75350D01*
X58600Y75350D02*
Y76650D01*
X58950Y76650D01*
X57050Y75350D02*
X57400D01*
Y76650D01*
X57050D02*
X57400D01*
X57050Y75350D02*
Y76650D01*
X49500Y79050D02*
X50800D01*
X50800Y78700D02*
X50800Y79050D01*
X49500Y78700D02*
X50800D01*
X49500Y79050D02*
X49500Y78700D01*
X50800Y77150D02*
Y77500D01*
X49500D02*
X50800D01*
X49500Y77150D02*
Y77500D01*
Y77150D02*
X50800D01*
X42000D02*
X43300D01*
X42000D02*
X42000Y77500D01*
X43300D01*
X43300Y77150D01*
X42000Y78700D02*
Y79050D01*
Y78700D02*
X43300D01*
Y79050D01*
X42000D02*
X43300D01*
X43350Y26950D02*
X44650D01*
X44650Y26600D02*
X44650Y26950D01*
X43350Y26600D02*
X44650D01*
X43350Y26950D02*
X43350Y26600D01*
X44650Y25050D02*
Y25400D01*
X43350D02*
X44650D01*
X43350Y25050D02*
Y25400D01*
Y25050D02*
X44650D01*
X37300Y25100D02*
X37650D01*
X37300Y26900D02*
X37650D01*
X37300Y25100D02*
Y26900D01*
X37650Y25100D02*
Y26900D01*
X36350Y25100D02*
Y26900D01*
X36700Y25100D02*
Y26900D01*
X36350Y25100D02*
X36700D01*
X36350Y26900D02*
X36700D01*
X76200Y66300D02*
X76550D01*
X76200Y64500D02*
X76550D01*
Y66300D01*
X76200Y64500D02*
Y66300D01*
X77500Y64500D02*
Y66300D01*
X77150Y64500D02*
Y66300D01*
X77500D01*
X77150Y64500D02*
X77500D01*
X70150D02*
X70500D01*
X70150Y66300D02*
X70500D01*
X70150Y64500D02*
Y66300D01*
X70500Y64500D02*
Y66300D01*
X69200Y64500D02*
Y66300D01*
X69550Y64500D02*
Y66300D01*
X69200Y64500D02*
X69550D01*
X69200Y66300D02*
X69550D01*
X57900Y44300D02*
Y44650D01*
X56100Y44300D02*
Y44650D01*
Y44300D02*
X57900D01*
X56100Y44650D02*
X57900D01*
X56100Y43350D02*
X57900D01*
X56100Y43700D02*
X57900D01*
Y43350D02*
Y43700D01*
X56100Y43350D02*
Y43700D01*
X62200Y66300D02*
X62550D01*
X62200Y64500D02*
X62550D01*
Y66300D01*
X62200Y64500D02*
Y66300D01*
X63500Y64500D02*
Y66300D01*
X63150Y64500D02*
Y66300D01*
X63500D01*
X63150Y64500D02*
X63500D01*
D13*
X119358Y34772D02*
Y68828D01*
X113340Y34772D02*
X119358D01*
X98340Y34800D02*
X105340D01*
X113340Y68828D02*
X119358D01*
X98340Y68800D02*
X105340D01*
D14*
X22500Y43200D02*
Y46200D01*
X19500Y43200D02*
X22500Y46200D01*
X19500Y43200D02*
X22500D01*
D15*
X88350Y78138D02*
Y82862D01*
X94650Y78138D02*
Y82862D01*
X92957Y24256D02*
Y27602D01*
X97287D01*
X92957Y15398D02*
Y18744D01*
Y15398D02*
X97287D01*
X43095Y92029D02*
X44866D01*
X34420D02*
X36205D01*
X34433Y86714D02*
Y92029D01*
X44866Y86714D02*
Y92029D01*
X56595D02*
X58367D01*
X47920D02*
X49705D01*
X47933Y86714D02*
Y92029D01*
X58367Y86714D02*
Y92029D01*
X78071Y57504D02*
Y59571D01*
X76004D02*
X78071D01*
X61929D02*
X63996D01*
X61929Y57504D02*
Y59571D01*
Y43429D02*
Y45496D01*
Y43429D02*
X63996D01*
X76004D02*
X78071D01*
Y45496D01*
D16*
X50700Y33137D02*
X54200D01*
Y33200D02*
Y70200D01*
X34200Y33137D02*
Y39137D01*
Y33137D02*
X39700D01*
X34200Y64263D02*
Y70263D01*
X39700D01*
X50700D02*
X54200D01*
X46200Y7900D02*
Y14000D01*
D17*
X63150Y94850D02*
X65184D01*
X82850Y92816D02*
Y94850D01*
X63150Y75150D02*
Y77184D01*
X82850Y75150D02*
Y77184D01*
X80816Y94850D02*
X82850D01*
X63150Y92816D02*
Y94850D01*
Y75150D02*
X65184D01*
X80816D02*
X82850D01*
M02*
