G04*
G04 #@! TF.GenerationSoftware,Altium Limited,Altium Designer,21.0.8 (223)*
G04*
G04 Layer_Color=2752767*
%FSLAX25Y25*%
%MOIN*%
G70*
G04*
G04 #@! TF.SameCoordinates,8E059B7F-88B0-49DF-8ED0-AD27087E488A*
G04*
G04*
G04 #@! TF.FilePolarity,Positive*
G04*
G01*
G75*
%ADD14C,0.00200*%
%ADD16C,0.01000*%
%ADD81C,0.01500*%
%ADD82C,0.01600*%
%ADD83C,0.01400*%
D14*
X110121Y68828D02*
G03*
X110121Y68828I-1000J0D01*
G01*
Y34772D02*
G03*
X110121Y34772I-1000J0D01*
G01*
X75121Y11679D02*
X76121Y12179D01*
X77121Y11679D01*
X76621Y12679D02*
X77121Y11679D01*
X76621Y12679D02*
X77121Y13679D01*
X76121Y13179D02*
X77121Y13679D01*
X75121D02*
X76121Y13179D01*
X75121Y13679D02*
X75621Y12679D01*
X75121Y11679D02*
X75621Y12679D01*
X41000Y22800D02*
X42000Y23300D01*
X43000Y22800D01*
X42500Y23800D02*
X43000Y22800D01*
X42500Y23800D02*
X43000Y24800D01*
X42000Y24300D02*
X43000Y24800D01*
X41000D02*
X42000Y24300D01*
X41000Y24800D02*
X41500Y23800D01*
X41000Y22800D02*
X41500Y23800D01*
X59869Y82032D02*
X60869Y82531D01*
X61869Y82032D01*
X61369Y83031D02*
X61869Y82032D01*
X61369Y83031D02*
X61869Y84031D01*
X60869Y83531D02*
X61869Y84031D01*
X59869D02*
X60869Y83531D01*
X59869Y84031D02*
X60369Y83031D01*
X59869Y82032D02*
X60369Y83031D01*
X54700Y77000D02*
X55700Y77500D01*
X56700Y77000D01*
X56200Y78000D02*
X56700Y77000D01*
X56200Y78000D02*
X56700Y79000D01*
X55700Y78500D02*
X56700Y79000D01*
X54700D02*
X55700Y78500D01*
X54700Y79000D02*
X55200Y78000D01*
X54700Y77000D02*
X55200Y78000D01*
X52100Y81700D02*
X53100Y82200D01*
X54100Y81700D01*
X53600Y82700D02*
X54100Y81700D01*
X53600Y82700D02*
X54100Y83700D01*
X53100Y83200D02*
X54100Y83700D01*
X52100D02*
X53100Y83200D01*
X52100Y83700D02*
X52600Y82700D01*
X52100Y81700D02*
X52600Y82700D01*
X55200Y69600D02*
X56200Y70100D01*
X57200Y69600D01*
X56700Y70600D02*
X57200Y69600D01*
X56700Y70600D02*
X57200Y71600D01*
X56200Y71100D02*
X57200Y71600D01*
X55200D02*
X56200Y71100D01*
X55200Y71600D02*
X55700Y70600D01*
X55200Y69600D02*
X55700Y70600D01*
X35790Y43810D02*
X36790Y44310D01*
X37790Y43810D01*
X37290Y44810D02*
X37790Y43810D01*
X37290Y44810D02*
X37790Y45810D01*
X36790Y45310D02*
X37790Y45810D01*
X35790D02*
X36790Y45310D01*
X35790Y45810D02*
X36290Y44810D01*
X35790Y43810D02*
X36290Y44810D01*
X35500Y40800D02*
X36500Y41300D01*
X37500Y40800D01*
X37000Y41800D02*
X37500Y40800D01*
X37000Y41800D02*
X37500Y42800D01*
X36500Y42300D02*
X37500Y42800D01*
X35500D02*
X36500Y42300D01*
X35500Y42800D02*
X36000Y41800D01*
X35500Y40800D02*
X36000Y41800D01*
X36300Y51700D02*
X37300Y52200D01*
X38300Y51700D01*
X37800Y52700D02*
X38300Y51700D01*
X37800Y52700D02*
X38300Y53700D01*
X37300Y53200D02*
X38300Y53700D01*
X36300D02*
X37300Y53200D01*
X36300Y53700D02*
X36800Y52700D01*
X36300Y51700D02*
X36800Y52700D01*
X85011Y10000D02*
X86011Y10500D01*
X87011Y10000D01*
X86511Y11000D02*
X87011Y10000D01*
X86511Y11000D02*
X87011Y12000D01*
X86011Y11500D02*
X87011Y12000D01*
X85011D02*
X86011Y11500D01*
X85011Y12000D02*
X85511Y11000D01*
X85011Y10000D02*
X85511Y11000D01*
X83500Y8300D02*
X84500Y8800D01*
X85500Y8300D01*
X85000Y9300D02*
X85500Y8300D01*
X85000Y9300D02*
X85500Y10300D01*
X84500Y9800D02*
X85500Y10300D01*
X83500D02*
X84500Y9800D01*
X83500Y10300D02*
X84000Y9300D01*
X83500Y8300D02*
X84000Y9300D01*
X72000Y39500D02*
X73000Y40000D01*
X74000Y39500D01*
X73500Y40500D02*
X74000Y39500D01*
X73500Y40500D02*
X74000Y41500D01*
X73000Y41000D02*
X74000Y41500D01*
X72000D02*
X73000Y41000D01*
X72000Y41500D02*
X72500Y40500D01*
X72000Y39500D02*
X72500Y40500D01*
X74800Y39500D02*
X75800Y40000D01*
X76800Y39500D01*
X76300Y40500D02*
X76800Y39500D01*
X76300Y40500D02*
X76800Y41500D01*
X75800Y41000D02*
X76800Y41500D01*
X74800D02*
X75800Y41000D01*
X74800Y41500D02*
X75300Y40500D01*
X74800Y39500D02*
X75300Y40500D01*
X83699Y52799D02*
X84699Y53299D01*
X85699Y52799D01*
X85199Y53799D02*
X85699Y52799D01*
X85199Y53799D02*
X85699Y54799D01*
X84699Y54299D02*
X85699Y54799D01*
X83699D02*
X84699Y54299D01*
X83699Y54799D02*
X84199Y53799D01*
X83699Y52799D02*
X84199Y53799D01*
X93300Y48500D02*
X94300Y49000D01*
X95300Y48500D01*
X94800Y49500D02*
X95300Y48500D01*
X94800Y49500D02*
X95300Y50500D01*
X94300Y50000D02*
X95300Y50500D01*
X93300D02*
X94300Y50000D01*
X93300Y50500D02*
X93800Y49500D01*
X93300Y48500D02*
X93800Y49500D01*
X74900Y70400D02*
X75900Y70900D01*
X76900Y70400D01*
X76400Y71400D02*
X76900Y70400D01*
X76400Y71400D02*
X76900Y72400D01*
X75900Y71900D02*
X76900Y72400D01*
X74900D02*
X75900Y71900D01*
X74900Y72400D02*
X75400Y71400D01*
X74900Y70400D02*
X75400Y71400D01*
X81179Y17479D02*
X82179Y17979D01*
X83179Y17479D01*
X82679Y18479D02*
X83179Y17479D01*
X82679Y18479D02*
X83179Y19479D01*
X82179Y18979D02*
X83179Y19479D01*
X81179D02*
X82179Y18979D01*
X81179Y19479D02*
X81679Y18479D01*
X81179Y17479D02*
X81679Y18479D01*
X24500Y53200D02*
X25500Y53700D01*
X26500Y53200D01*
X26000Y54200D02*
X26500Y53200D01*
X26000Y54200D02*
X26500Y55200D01*
X25500Y54700D02*
X26500Y55200D01*
X24500D02*
X25500Y54700D01*
X24500Y55200D02*
X25000Y54200D01*
X24500Y53200D02*
X25000Y54200D01*
X95371Y57829D02*
X96371Y58329D01*
X97371Y57829D01*
X96871Y58829D02*
X97371Y57829D01*
X96871Y58829D02*
X97371Y59829D01*
X96371Y59329D02*
X97371Y59829D01*
X95371D02*
X96371Y59329D01*
X95371Y59829D02*
X95871Y58829D01*
X95371Y57829D02*
X95871Y58829D01*
X80400Y66900D02*
X81400Y67400D01*
X82400Y66900D01*
X81900Y67900D02*
X82400Y66900D01*
X81900Y67900D02*
X82400Y68900D01*
X81400Y68400D02*
X82400Y68900D01*
X80400D02*
X81400Y68400D01*
X80400Y68900D02*
X80900Y67900D01*
X80400Y66900D02*
X80900Y67900D01*
X90000Y13100D02*
X91000Y13600D01*
X92000Y13100D01*
X91500Y14100D02*
X92000Y13100D01*
X91500Y14100D02*
X92000Y15100D01*
X91000Y14600D02*
X92000Y15100D01*
X90000D02*
X91000Y14600D01*
X90000Y15100D02*
X90500Y14100D01*
X90000Y13100D02*
X90500Y14100D01*
X96100Y80400D02*
X97100Y80900D01*
X98100Y80400D01*
X97600Y81400D02*
X98100Y80400D01*
X97600Y81400D02*
X98100Y82400D01*
X97100Y81900D02*
X98100Y82400D01*
X96100D02*
X97100Y81900D01*
X96100Y82400D02*
X96600Y81400D01*
X96100Y80400D02*
X96600Y81400D01*
X80700Y63100D02*
X81700Y63600D01*
X82700Y63100D01*
X82200Y64100D02*
X82700Y63100D01*
X82200Y64100D02*
X82700Y65100D01*
X81700Y64600D02*
X82700Y65100D01*
X80700D02*
X81700Y64600D01*
X80700Y65100D02*
X81200Y64100D01*
X80700Y63100D02*
X81200Y64100D01*
X77600Y60400D02*
X78600Y60900D01*
X79600Y60400D01*
X79100Y61400D02*
X79600Y60400D01*
X79100Y61400D02*
X79600Y62400D01*
X78600Y61900D02*
X79600Y62400D01*
X77600D02*
X78600Y61900D01*
X77600Y62400D02*
X78100Y61400D01*
X77600Y60400D02*
X78100Y61400D01*
X56200Y91000D02*
X57200Y91500D01*
X58200Y91000D01*
X57700Y92000D02*
X58200Y91000D01*
X57700Y92000D02*
X58200Y93000D01*
X57200Y92500D02*
X58200Y93000D01*
X56200D02*
X57200Y92500D01*
X56200Y93000D02*
X56700Y92000D01*
X56200Y91000D02*
X56700Y92000D01*
X38650Y87350D02*
X39650Y87850D01*
X40650Y87350D01*
X40150Y88350D02*
X40650Y87350D01*
X40150Y88350D02*
X40650Y89350D01*
X39650Y88850D02*
X40650Y89350D01*
X38650D02*
X39650Y88850D01*
X38650Y89350D02*
X39150Y88350D01*
X38650Y87350D02*
X39150Y88350D01*
X37800Y34500D02*
X38800Y35000D01*
X39800Y34500D01*
X39300Y35500D02*
X39800Y34500D01*
X39300Y35500D02*
X39800Y36500D01*
X38800Y36000D02*
X39800Y36500D01*
X37800D02*
X38800Y36000D01*
X37800Y36500D02*
X38300Y35500D01*
X37800Y34500D02*
X38300Y35500D01*
X97500Y92500D02*
X98500Y93000D01*
X99500Y92500D01*
X99000Y93500D02*
X99500Y92500D01*
X99000Y93500D02*
X99500Y94500D01*
X98500Y94000D02*
X99500Y94500D01*
X97500D02*
X98500Y94000D01*
X97500Y94500D02*
X98000Y93500D01*
X97500Y92500D02*
X98000Y93500D01*
X97500Y89500D02*
X98500Y90000D01*
X99500Y89500D01*
X99000Y90500D02*
X99500Y89500D01*
X99000Y90500D02*
X99500Y91500D01*
X98500Y91000D02*
X99500Y91500D01*
X97500D02*
X98500Y91000D01*
X97500Y91500D02*
X98000Y90500D01*
X97500Y89500D02*
X98000Y90500D01*
X100500Y89500D02*
X101500Y90000D01*
X102500Y89500D01*
X102000Y90500D02*
X102500Y89500D01*
X102000Y90500D02*
X102500Y91500D01*
X101500Y91000D02*
X102500Y91500D01*
X100500D02*
X101500Y91000D01*
X100500Y91500D02*
X101000Y90500D01*
X100500Y89500D02*
X101000Y90500D01*
X100500Y86500D02*
X101500Y87000D01*
X102500Y86500D01*
X102000Y87500D02*
X102500Y86500D01*
X102000Y87500D02*
X102500Y88500D01*
X101500Y88000D02*
X102500Y88500D01*
X100500D02*
X101500Y88000D01*
X100500Y88500D02*
X101000Y87500D01*
X100500Y86500D02*
X101000Y87500D01*
X69000Y87000D02*
X70000Y87500D01*
X71000Y87000D01*
X70500Y88000D02*
X71000Y87000D01*
X70500Y88000D02*
X71000Y89000D01*
X70000Y88500D02*
X71000Y89000D01*
X69000D02*
X70000Y88500D01*
X69000Y89000D02*
X69500Y88000D01*
X69000Y87000D02*
X69500Y88000D01*
X72000Y87000D02*
X73000Y87500D01*
X74000Y87000D01*
X73500Y88000D02*
X74000Y87000D01*
X73500Y88000D02*
X74000Y89000D01*
X73000Y88500D02*
X74000Y89000D01*
X72000D02*
X73000Y88500D01*
X72000Y89000D02*
X72500Y88000D01*
X72000Y87000D02*
X72500Y88000D01*
X72000Y84000D02*
X73000Y84500D01*
X74000Y84000D01*
X73500Y85000D02*
X74000Y84000D01*
X73500Y85000D02*
X74000Y86000D01*
X73000Y85500D02*
X74000Y86000D01*
X72000D02*
X73000Y85500D01*
X72000Y86000D02*
X72500Y85000D01*
X72000Y84000D02*
X72500Y85000D01*
X69000Y84000D02*
X70000Y84500D01*
X71000Y84000D01*
X70500Y85000D02*
X71000Y84000D01*
X70500Y85000D02*
X71000Y86000D01*
X70000Y85500D02*
X71000Y86000D01*
X69000D02*
X70000Y85500D01*
X69000Y86000D02*
X69500Y85000D01*
X69000Y84000D02*
X69500Y85000D01*
X62500Y71500D02*
X63500Y72000D01*
X64500Y71500D01*
X64000Y72500D02*
X64500Y71500D01*
X64000Y72500D02*
X64500Y73500D01*
X63500Y73000D02*
X64500Y73500D01*
X62500D02*
X63500Y73000D01*
X62500Y73500D02*
X63000Y72500D01*
X62500Y71500D02*
X63000Y72500D01*
X59500Y69500D02*
X60500Y70000D01*
X61500Y69500D01*
X61000Y70500D02*
X61500Y69500D01*
X61000Y70500D02*
X61500Y71500D01*
X60500Y71000D02*
X61500Y71500D01*
X59500D02*
X60500Y71000D01*
X59500Y71500D02*
X60000Y70500D01*
X59500Y69500D02*
X60000Y70500D01*
X65500Y53500D02*
X66500Y54000D01*
X67500Y53500D01*
X67000Y54500D02*
X67500Y53500D01*
X67000Y54500D02*
X67500Y55500D01*
X66500Y55000D02*
X67500Y55500D01*
X65500D02*
X66500Y55000D01*
X65500Y55500D02*
X66000Y54500D01*
X65500Y53500D02*
X66000Y54500D01*
X69000Y53500D02*
X70000Y54000D01*
X71000Y53500D01*
X70500Y54500D02*
X71000Y53500D01*
X70500Y54500D02*
X71000Y55500D01*
X70000Y55000D02*
X71000Y55500D01*
X69000D02*
X70000Y55000D01*
X69000Y55500D02*
X69500Y54500D01*
X69000Y53500D02*
X69500Y54500D01*
X72500Y53500D02*
X73500Y54000D01*
X74500Y53500D01*
X74000Y54500D02*
X74500Y53500D01*
X74000Y54500D02*
X74500Y55500D01*
X73500Y55000D02*
X74500Y55500D01*
X72500D02*
X73500Y55000D01*
X72500Y55500D02*
X73000Y54500D01*
X72500Y53500D02*
X73000Y54500D01*
X72500Y50000D02*
X73500Y50500D01*
X74500Y50000D01*
X74000Y51000D02*
X74500Y50000D01*
X74000Y51000D02*
X74500Y52000D01*
X73500Y51500D02*
X74500Y52000D01*
X72500D02*
X73500Y51500D01*
X72500Y52000D02*
X73000Y51000D01*
X72500Y50000D02*
X73000Y51000D01*
X69000Y50000D02*
X70000Y50500D01*
X71000Y50000D01*
X70500Y51000D02*
X71000Y50000D01*
X70500Y51000D02*
X71000Y52000D01*
X70000Y51500D02*
X71000Y52000D01*
X69000D02*
X70000Y51500D01*
X69000Y52000D02*
X69500Y51000D01*
X69000Y50000D02*
X69500Y51000D01*
X65500Y50000D02*
X66500Y50500D01*
X67500Y50000D01*
X67000Y51000D02*
X67500Y50000D01*
X67000Y51000D02*
X67500Y52000D01*
X66500Y51500D02*
X67500Y52000D01*
X65500D02*
X66500Y51500D01*
X65500Y52000D02*
X66000Y51000D01*
X65500Y50000D02*
X66000Y51000D01*
X65400Y25500D02*
X66400Y26000D01*
X67400Y25500D01*
X66900Y26500D02*
X67400Y25500D01*
X66900Y26500D02*
X67400Y27500D01*
X66400Y27000D02*
X67400Y27500D01*
X65400D02*
X66400Y27000D01*
X65400Y27500D02*
X65900Y26500D01*
X65400Y25500D02*
X65900Y26500D01*
X68000Y21500D02*
X69000Y22000D01*
X70000Y21500D01*
X69500Y22500D02*
X70000Y21500D01*
X69500Y22500D02*
X70000Y23500D01*
X69000Y23000D02*
X70000Y23500D01*
X68000D02*
X69000Y23000D01*
X68000Y23500D02*
X68500Y22500D01*
X68000Y21500D02*
X68500Y22500D01*
X65400Y21500D02*
X66400Y22000D01*
X67400Y21500D01*
X66900Y22500D02*
X67400Y21500D01*
X66900Y22500D02*
X67400Y23500D01*
X66400Y23000D02*
X67400Y23500D01*
X65400D02*
X66400Y23000D01*
X65400Y23500D02*
X65900Y22500D01*
X65400Y21500D02*
X65900Y22500D01*
X65400Y17500D02*
X66400Y18000D01*
X67400Y17500D01*
X66900Y18500D02*
X67400Y17500D01*
X66900Y18500D02*
X67400Y19500D01*
X66400Y19000D02*
X67400Y19500D01*
X65400D02*
X66400Y19000D01*
X65400Y19500D02*
X65900Y18500D01*
X65400Y17500D02*
X65900Y18500D01*
X68000Y17500D02*
X69000Y18000D01*
X70000Y17500D01*
X69500Y18500D02*
X70000Y17500D01*
X69500Y18500D02*
X70000Y19500D01*
X69000Y19000D02*
X70000Y19500D01*
X68000D02*
X69000Y19000D01*
X68000Y19500D02*
X68500Y18500D01*
X68000Y17500D02*
X68500Y18500D01*
X102500Y11000D02*
X103500Y11500D01*
X104500Y11000D01*
X104000Y12000D02*
X104500Y11000D01*
X104000Y12000D02*
X104500Y13000D01*
X103500Y12500D02*
X104500Y13000D01*
X102500D02*
X103500Y12500D01*
X102500Y13000D02*
X103000Y12000D01*
X102500Y11000D02*
X103000Y12000D01*
X94000Y20500D02*
X95000Y21000D01*
X96000Y20500D01*
X95500Y21500D02*
X96000Y20500D01*
X95500Y21500D02*
X96000Y22500D01*
X95000Y22000D02*
X96000Y22500D01*
X94000D02*
X95000Y22000D01*
X94000Y22500D02*
X94500Y21500D01*
X94000Y20500D02*
X94500Y21500D01*
X91000Y20500D02*
X92000Y21000D01*
X93000Y20500D01*
X92500Y21500D02*
X93000Y20500D01*
X92500Y21500D02*
X93000Y22500D01*
X92000Y22000D02*
X93000Y22500D01*
X91000D02*
X92000Y22000D01*
X91000Y22500D02*
X91500Y21500D01*
X91000Y20500D02*
X91500Y21500D01*
X102500Y51500D02*
X103500Y52000D01*
X104500Y51500D01*
X104000Y52500D02*
X104500Y51500D01*
X104000Y52500D02*
X104500Y53500D01*
X103500Y53000D02*
X104500Y53500D01*
X102500D02*
X103500Y53000D01*
X102500Y53500D02*
X103000Y52500D01*
X102500Y51500D02*
X103000Y52500D01*
X102500Y49000D02*
X103500Y49500D01*
X104500Y49000D01*
X104000Y50000D02*
X104500Y49000D01*
X104000Y50000D02*
X104500Y51000D01*
X103500Y50500D02*
X104500Y51000D01*
X102500D02*
X103500Y50500D01*
X102500Y51000D02*
X103000Y50000D01*
X102500Y49000D02*
X103000Y50000D01*
X102500Y46500D02*
X103500Y47000D01*
X104500Y46500D01*
X104000Y47500D02*
X104500Y46500D01*
X104000Y47500D02*
X104500Y48500D01*
X103500Y48000D02*
X104500Y48500D01*
X102500D02*
X103500Y48000D01*
X102500Y48500D02*
X103000Y47500D01*
X102500Y46500D02*
X103000Y47500D01*
X27500Y20000D02*
X28500Y20500D01*
X29500Y20000D01*
X29000Y21000D02*
X29500Y20000D01*
X29000Y21000D02*
X29500Y22000D01*
X28500Y21500D02*
X29500Y22000D01*
X27500D02*
X28500Y21500D01*
X27500Y22000D02*
X28000Y21000D01*
X27500Y20000D02*
X28000Y21000D01*
X30000Y20000D02*
X31000Y20500D01*
X32000Y20000D01*
X31500Y21000D02*
X32000Y20000D01*
X31500Y21000D02*
X32000Y22000D01*
X31000Y21500D02*
X32000Y22000D01*
X30000D02*
X31000Y21500D01*
X30000Y22000D02*
X30500Y21000D01*
X30000Y20000D02*
X30500Y21000D01*
X32500Y20000D02*
X33500Y20500D01*
X34500Y20000D01*
X34000Y21000D02*
X34500Y20000D01*
X34000Y21000D02*
X34500Y22000D01*
X33500Y21500D02*
X34500Y22000D01*
X32500D02*
X33500Y21500D01*
X32500Y22000D02*
X33000Y21000D01*
X32500Y20000D02*
X33000Y21000D01*
X35000Y20000D02*
X36000Y20500D01*
X37000Y20000D01*
X36500Y21000D02*
X37000Y20000D01*
X36500Y21000D02*
X37000Y22000D01*
X36000Y21500D02*
X37000Y22000D01*
X35000D02*
X36000Y21500D01*
X35000Y22000D02*
X35500Y21000D01*
X35000Y20000D02*
X35500Y21000D01*
X37500Y20000D02*
X38500Y20500D01*
X39500Y20000D01*
X39000Y21000D02*
X39500Y20000D01*
X39000Y21000D02*
X39500Y22000D01*
X38500Y21500D02*
X39500Y22000D01*
X37500D02*
X38500Y21500D01*
X37500Y22000D02*
X38000Y21000D01*
X37500Y20000D02*
X38000Y21000D01*
X40500Y19000D02*
X41500Y19500D01*
X42500Y19000D01*
X42000Y20000D02*
X42500Y19000D01*
X42000Y20000D02*
X42500Y21000D01*
X41500Y20500D02*
X42500Y21000D01*
X40500D02*
X41500Y20500D01*
X40500Y21000D02*
X41000Y20000D01*
X40500Y19000D02*
X41000Y20000D01*
X43000Y19000D02*
X44000Y19500D01*
X45000Y19000D01*
X44500Y20000D02*
X45000Y19000D01*
X44500Y20000D02*
X45000Y21000D01*
X44000Y20500D02*
X45000Y21000D01*
X43000D02*
X44000Y20500D01*
X43000Y21000D02*
X43500Y20000D01*
X43000Y19000D02*
X43500Y20000D01*
X45500Y19000D02*
X46500Y19500D01*
X47500Y19000D01*
X47000Y20000D02*
X47500Y19000D01*
X47000Y20000D02*
X47500Y21000D01*
X46500Y20500D02*
X47500Y21000D01*
X45500D02*
X46500Y20500D01*
X45500Y21000D02*
X46000Y20000D01*
X45500Y19000D02*
X46000Y20000D01*
X48000Y19000D02*
X49000Y19500D01*
X50000Y19000D01*
X49500Y20000D02*
X50000Y19000D01*
X49500Y20000D02*
X50000Y21000D01*
X49000Y20500D02*
X50000Y21000D01*
X48000D02*
X49000Y20500D01*
X48000Y21000D02*
X48500Y20000D01*
X48000Y19000D02*
X48500Y20000D01*
X50500Y19000D02*
X51500Y19500D01*
X52500Y19000D01*
X52000Y20000D02*
X52500Y19000D01*
X52000Y20000D02*
X52500Y21000D01*
X51500Y20500D02*
X52500Y21000D01*
X50500D02*
X51500Y20500D01*
X50500Y21000D02*
X51000Y20000D01*
X50500Y19000D02*
X51000Y20000D01*
X56500Y9000D02*
X57500Y9500D01*
X58500Y9000D01*
X58000Y10000D02*
X58500Y9000D01*
X58000Y10000D02*
X58500Y11000D01*
X57500Y10500D02*
X58500Y11000D01*
X56500D02*
X57500Y10500D01*
X56500Y11000D02*
X57000Y10000D01*
X56500Y9000D02*
X57000Y10000D01*
X52400Y17200D02*
X53400Y17700D01*
X54400Y17200D01*
X53900Y18200D02*
X54400Y17200D01*
X53900Y18200D02*
X54400Y19200D01*
X53400Y18700D02*
X54400Y19200D01*
X52400D02*
X53400Y18700D01*
X52400Y19200D02*
X52900Y18200D01*
X52400Y17200D02*
X52900Y18200D01*
X53500Y14600D02*
X54500Y15100D01*
X55500Y14600D01*
X55000Y15600D02*
X55500Y14600D01*
X55000Y15600D02*
X55500Y16600D01*
X54500Y16100D02*
X55500Y16600D01*
X53500D02*
X54500Y16100D01*
X53500Y16600D02*
X54000Y15600D01*
X53500Y14600D02*
X54000Y15600D01*
X53500Y11900D02*
X54500Y12400D01*
X55500Y11900D01*
X55000Y12900D02*
X55500Y11900D01*
X55000Y12900D02*
X55500Y13900D01*
X54500Y13400D02*
X55500Y13900D01*
X53500D02*
X54500Y13400D01*
X53500Y13900D02*
X54000Y12900D01*
X53500Y11900D02*
X54000Y12900D01*
X102500Y13500D02*
X103500Y14000D01*
X104500Y13500D01*
X104000Y14500D02*
X104500Y13500D01*
X104000Y14500D02*
X104500Y15500D01*
X103500Y15000D02*
X104500Y15500D01*
X102500D02*
X103500Y15000D01*
X102500Y15500D02*
X103000Y14500D01*
X102500Y13500D02*
X103000Y14500D01*
X11400Y53200D02*
X12400Y53700D01*
X13400Y53200D01*
X12900Y54200D02*
X13400Y53200D01*
X12900Y54200D02*
X13400Y55200D01*
X12400Y54700D02*
X13400Y55200D01*
X11400D02*
X12400Y54700D01*
X11400Y55200D02*
X11900Y54200D01*
X11400Y53200D02*
X11900Y54200D01*
X11400Y50700D02*
X12400Y51200D01*
X13400Y50700D01*
X12900Y51700D02*
X13400Y50700D01*
X12900Y51700D02*
X13400Y52700D01*
X12400Y52200D02*
X13400Y52700D01*
X11400D02*
X12400Y52200D01*
X11400Y52700D02*
X11900Y51700D01*
X11400Y50700D02*
X11900Y51700D01*
X11400Y48200D02*
X12400Y48700D01*
X13400Y48200D01*
X12900Y49200D02*
X13400Y48200D01*
X12900Y49200D02*
X13400Y50200D01*
X12400Y49700D02*
X13400Y50200D01*
X11400D02*
X12400Y49700D01*
X11400Y50200D02*
X11900Y49200D01*
X11400Y48200D02*
X11900Y49200D01*
X45500Y93500D02*
X46500Y94000D01*
X47500Y93500D01*
X47000Y94500D02*
X47500Y93500D01*
X47000Y94500D02*
X47500Y95500D01*
X46500Y95000D02*
X47500Y95500D01*
X45500D02*
X46500Y95000D01*
X45500Y95500D02*
X46000Y94500D01*
X45500Y93500D02*
X46000Y94500D01*
X45500Y91000D02*
X46500Y91500D01*
X47500Y91000D01*
X47000Y92000D02*
X47500Y91000D01*
X47000Y92000D02*
X47500Y93000D01*
X46500Y92500D02*
X47500Y93000D01*
X45500D02*
X46500Y92500D01*
X45500Y93000D02*
X46000Y92000D01*
X45500Y91000D02*
X46000Y92000D01*
X45500Y88500D02*
X46500Y89000D01*
X47500Y88500D01*
X47000Y89500D02*
X47500Y88500D01*
X47000Y89500D02*
X47500Y90500D01*
X46500Y90000D02*
X47500Y90500D01*
X45500D02*
X46500Y90000D01*
X45500Y90500D02*
X46000Y89500D01*
X45500Y88500D02*
X46000Y89500D01*
X58900Y61400D02*
X59900Y61900D01*
X60900Y61400D01*
X60400Y62400D02*
X60900Y61400D01*
X60400Y62400D02*
X60900Y63400D01*
X59900Y62900D02*
X60900Y63400D01*
X58900D02*
X59900Y62900D01*
X58900Y63400D02*
X59400Y62400D01*
X58900Y61400D02*
X59400Y62400D01*
X58700Y58200D02*
X59700Y58700D01*
X60700Y58200D01*
X60200Y59200D02*
X60700Y58200D01*
X60200Y59200D02*
X60700Y60200D01*
X59700Y59700D02*
X60700Y60200D01*
X58700D02*
X59700Y59700D01*
X58700Y60200D02*
X59200Y59200D01*
X58700Y58200D02*
X59200Y59200D01*
X66100Y61600D02*
X67100Y62100D01*
X68100Y61600D01*
X67600Y62600D02*
X68100Y61600D01*
X67600Y62600D02*
X68100Y63600D01*
X67100Y63100D02*
X68100Y63600D01*
X66100D02*
X67100Y63100D01*
X66100Y63600D02*
X66600Y62600D01*
X66100Y61600D02*
X66600Y62600D01*
X76800Y65500D02*
X77800Y66000D01*
X78800Y65500D01*
X78300Y66500D02*
X78800Y65500D01*
X78300Y66500D02*
X78800Y67500D01*
X77800Y67000D02*
X78800Y67500D01*
X76800D02*
X77800Y67000D01*
X76800Y67500D02*
X77300Y66500D01*
X76800Y65500D02*
X77300Y66500D01*
X83600Y58800D02*
X84600Y59300D01*
X85600Y58800D01*
X85100Y59800D02*
X85600Y58800D01*
X85100Y59800D02*
X85600Y60800D01*
X84600Y60300D02*
X85600Y60800D01*
X83600D02*
X84600Y60300D01*
X83600Y60800D02*
X84100Y59800D01*
X83600Y58800D02*
X84100Y59800D01*
X83600Y55900D02*
X84600Y56400D01*
X85600Y55900D01*
X85100Y56900D02*
X85600Y55900D01*
X85100Y56900D02*
X85600Y57900D01*
X84600Y57400D02*
X85600Y57900D01*
X83600D02*
X84600Y57400D01*
X83600Y57900D02*
X84100Y56900D01*
X83600Y55900D02*
X84100Y56900D01*
X98200Y14200D02*
X99200Y14700D01*
X100200Y14200D01*
X99700Y15200D02*
X100200Y14200D01*
X99700Y15200D02*
X100200Y16200D01*
X99200Y15700D02*
X100200Y16200D01*
X98200D02*
X99200Y15700D01*
X98200Y16200D02*
X98700Y15200D01*
X98200Y14200D02*
X98700Y15200D01*
X85300Y86800D02*
X86300Y87300D01*
X87300Y86800D01*
X86800Y87800D02*
X87300Y86800D01*
X86800Y87800D02*
X87300Y88800D01*
X86300Y88300D02*
X87300Y88800D01*
X85300D02*
X86300Y88300D01*
X85300Y88800D02*
X85800Y87800D01*
X85300Y86800D02*
X85800Y87800D01*
X89500Y78500D02*
X90500Y79000D01*
X91500Y78500D01*
X91000Y79500D02*
X91500Y78500D01*
X91000Y79500D02*
X91500Y80500D01*
X90500Y80000D02*
X91500Y80500D01*
X89500D02*
X90500Y80000D01*
X89500Y80500D02*
X90000Y79500D01*
X89500Y78500D02*
X90000Y79500D01*
X96500Y71200D02*
X97500Y71700D01*
X98500Y71200D01*
X98000Y72200D02*
X98500Y71200D01*
X98000Y72200D02*
X98500Y73200D01*
X97500Y72700D02*
X98500Y73200D01*
X96500D02*
X97500Y72700D01*
X96500Y73200D02*
X97000Y72200D01*
X96500Y71200D02*
X97000Y72200D01*
X68000Y25500D02*
X69000Y26000D01*
X70000Y25500D01*
X69500Y26500D02*
X70000Y25500D01*
X69500Y26500D02*
X70000Y27500D01*
X69000Y27000D02*
X70000Y27500D01*
X68000D02*
X69000Y27000D01*
X68000Y27500D02*
X68500Y26500D01*
X68000Y25500D02*
X68500Y26500D01*
X62800Y17500D02*
X63800Y18000D01*
X64800Y17500D01*
X64300Y18500D02*
X64800Y17500D01*
X64300Y18500D02*
X64800Y19500D01*
X63800Y19000D02*
X64800Y19500D01*
X62800D02*
X63800Y19000D01*
X62800Y19500D02*
X63300Y18500D01*
X62800Y17500D02*
X63300Y18500D01*
X62800Y21500D02*
X63800Y22000D01*
X64800Y21500D01*
X64300Y22500D02*
X64800Y21500D01*
X64300Y22500D02*
X64800Y23500D01*
X63800Y23000D02*
X64800Y23500D01*
X62800D02*
X63800Y23000D01*
X62800Y23500D02*
X63300Y22500D01*
X62800Y21500D02*
X63300Y22500D01*
X38100Y49800D02*
X39100Y50300D01*
X40100Y49800D01*
X39600Y50800D02*
X40100Y49800D01*
X39600Y50800D02*
X40100Y51800D01*
X39100Y51300D02*
X40100Y51800D01*
X38100D02*
X39100Y51300D01*
X38100Y51800D02*
X38600Y50800D01*
X38100Y49800D02*
X38600Y50800D01*
X40000Y44800D02*
X41000Y45300D01*
X42000Y44800D01*
X41500Y45800D02*
X42000Y44800D01*
X41500Y45800D02*
X42000Y46800D01*
X41000Y46300D02*
X42000Y46800D01*
X40000D02*
X41000Y46300D01*
X40000Y46800D02*
X40500Y45800D01*
X40000Y44800D02*
X40500Y45800D01*
X53900Y33900D02*
X54900Y34400D01*
X55900Y33900D01*
X55400Y34900D02*
X55900Y33900D01*
X55400Y34900D02*
X55900Y35900D01*
X54900Y35400D02*
X55900Y35900D01*
X53900D02*
X54900Y35400D01*
X53900Y35900D02*
X54400Y34900D01*
X53900Y33900D02*
X54400Y34900D01*
X68200Y12400D02*
X69200Y12900D01*
X70200Y12400D01*
X69700Y13400D02*
X70200Y12400D01*
X69700Y13400D02*
X70200Y14400D01*
X69200Y13900D02*
X70200Y14400D01*
X68200D02*
X69200Y13900D01*
X68200Y14400D02*
X68700Y13400D01*
X68200Y12400D02*
X68700Y13400D01*
Y32000D02*
X69700Y32500D01*
X70700Y32000D01*
X70200Y33000D02*
X70700Y32000D01*
X70200Y33000D02*
X70700Y34000D01*
X69700Y33500D02*
X70700Y34000D01*
X68700D02*
X69700Y33500D01*
X68700Y34000D02*
X69200Y33000D01*
X68700Y32000D02*
X69200Y33000D01*
X72100Y32800D02*
X73100Y33300D01*
X74100Y32800D01*
X73600Y33800D02*
X74100Y32800D01*
X73600Y33800D02*
X74100Y34800D01*
X73100Y34300D02*
X74100Y34800D01*
X72100D02*
X73100Y34300D01*
X72100Y34800D02*
X72600Y33800D01*
X72100Y32800D02*
X72600Y33800D01*
X91300Y28400D02*
X92300Y28900D01*
X93300Y28400D01*
X92800Y29400D02*
X93300Y28400D01*
X92800Y29400D02*
X93300Y30400D01*
X92300Y29900D02*
X93300Y30400D01*
X91300D02*
X92300Y29900D01*
X91300Y30400D02*
X91800Y29400D01*
X91300Y28400D02*
X91800Y29400D01*
X95500Y24000D02*
X96500Y24500D01*
X97500Y24000D01*
X97000Y25000D02*
X97500Y24000D01*
X97000Y25000D02*
X97500Y26000D01*
X96500Y25500D02*
X97500Y26000D01*
X95500D02*
X96500Y25500D01*
X95500Y26000D02*
X96000Y25000D01*
X95500Y24000D02*
X96000Y25000D01*
X79300Y13100D02*
X80300Y13600D01*
X81300Y13100D01*
X80800Y14100D02*
X81300Y13100D01*
X80800Y14100D02*
X81300Y15100D01*
X80300Y14600D02*
X81300Y15100D01*
X79300D02*
X80300Y14600D01*
X79300Y15100D02*
X79800Y14100D01*
X79300Y13100D02*
X79800Y14100D01*
X62800Y25500D02*
X63800Y26000D01*
X64800Y25500D01*
X64300Y26500D02*
X64800Y25500D01*
X64300Y26500D02*
X64800Y27500D01*
X63800Y27000D02*
X64800Y27500D01*
X62800D02*
X63800Y27000D01*
X62800Y27500D02*
X63300Y26500D01*
X62800Y25500D02*
X63300Y26500D01*
X56900Y52600D02*
X57900Y53100D01*
X58900Y52600D01*
X58400Y53600D02*
X58900Y52600D01*
X58400Y53600D02*
X58900Y54600D01*
X57900Y54100D02*
X58900Y54600D01*
X56900D02*
X57900Y54100D01*
X56900Y54600D02*
X57400Y53600D01*
X56900Y52600D02*
X57400Y53600D01*
X55200Y47800D02*
X56200Y48300D01*
X57200Y47800D01*
X56700Y48800D02*
X57200Y47800D01*
X56700Y48800D02*
X57200Y49800D01*
X56200Y49300D02*
X57200Y49800D01*
X55200D02*
X56200Y49300D01*
X55200Y49800D02*
X55700Y48800D01*
X55200Y47800D02*
X55700Y48800D01*
X81100Y41200D02*
X82100Y41700D01*
X83100Y41200D01*
X82600Y42200D02*
X83100Y41200D01*
X82600Y42200D02*
X83100Y43200D01*
X82100Y42700D02*
X83100Y43200D01*
X81100D02*
X82100Y42700D01*
X81100Y43200D02*
X81600Y42200D01*
X81100Y41200D02*
X81600Y42200D01*
X62100Y32200D02*
X63100Y32700D01*
X64100Y32200D01*
X63600Y33200D02*
X64100Y32200D01*
X63600Y33200D02*
X64100Y34200D01*
X63100Y33700D02*
X64100Y34200D01*
X62100D02*
X63100Y33700D01*
X62100Y34200D02*
X62600Y33200D01*
X62100Y32200D02*
X62600Y33200D01*
X40600Y31000D02*
X41600Y31500D01*
X42600Y31000D01*
X42100Y32000D02*
X42600Y31000D01*
X42100Y32000D02*
X42600Y33000D01*
X41600Y32500D02*
X42600Y33000D01*
X40600D02*
X41600Y32500D01*
X40600Y33000D02*
X41100Y32000D01*
X40600Y31000D02*
X41100Y32000D01*
X54300Y25900D02*
X55300Y26400D01*
X56300Y25900D01*
X55800Y26900D02*
X56300Y25900D01*
X55800Y26900D02*
X56300Y27900D01*
X55300Y27400D02*
X56300Y27900D01*
X54300D02*
X55300Y27400D01*
X54300Y27900D02*
X54800Y26900D01*
X54300Y25900D02*
X54800Y26900D01*
X48000Y40600D02*
X49000Y41100D01*
X50000Y40600D01*
X49500Y41600D02*
X50000Y40600D01*
X49500Y41600D02*
X50000Y42600D01*
X49000Y42100D02*
X50000Y42600D01*
X48000D02*
X49000Y42100D01*
X48000Y42600D02*
X48500Y41600D01*
X48000Y40600D02*
X48500Y41600D01*
X82400Y44900D02*
X83400Y45400D01*
X84400Y44900D01*
X83900Y45900D02*
X84400Y44900D01*
X83900Y45900D02*
X84400Y46900D01*
X83400Y46400D02*
X84400Y46900D01*
X82400D02*
X83400Y46400D01*
X82400Y46900D02*
X82900Y45900D01*
X82400Y44900D02*
X82900Y45900D01*
X50300Y40500D02*
X51300Y41000D01*
X52300Y40500D01*
X51800Y41500D02*
X52300Y40500D01*
X51800Y41500D02*
X52300Y42500D01*
X51300Y42000D02*
X52300Y42500D01*
X50300D02*
X51300Y42000D01*
X50300Y42500D02*
X50800Y41500D01*
X50300Y40500D02*
X50800Y41500D01*
X96200Y42400D02*
X97200Y42900D01*
X98200Y42400D01*
X97700Y43400D02*
X98200Y42400D01*
X97700Y43400D02*
X98200Y44400D01*
X97200Y43900D02*
X98200Y44400D01*
X96200D02*
X97200Y43900D01*
X96200Y44400D02*
X96700Y43400D01*
X96200Y42400D02*
X96700Y43400D01*
X79500Y70600D02*
X80500Y71100D01*
X81500Y70600D01*
X81000Y71600D02*
X81500Y70600D01*
X81000Y71600D02*
X81500Y72600D01*
X80500Y72100D02*
X81500Y72600D01*
X79500D02*
X80500Y72100D01*
X79500Y72600D02*
X80000Y71600D01*
X79500Y70600D02*
X80000Y71600D01*
X72000Y71000D02*
X73000Y71500D01*
X74000Y71000D01*
X73500Y72000D02*
X74000Y71000D01*
X73500Y72000D02*
X74000Y73000D01*
X73000Y72500D02*
X74000Y73000D01*
X72000D02*
X73000Y72500D01*
X72000Y73000D02*
X72500Y72000D01*
X72000Y71000D02*
X72500Y72000D01*
X79900Y26600D02*
X80900Y27100D01*
X81900Y26600D01*
X81400Y27600D02*
X81900Y26600D01*
X81400Y27600D02*
X81900Y28600D01*
X80900Y28100D02*
X81900Y28600D01*
X79900D02*
X80900Y28100D01*
X79900Y28600D02*
X80400Y27600D01*
X79900Y26600D02*
X80400Y27600D01*
X86100Y72300D02*
X87100Y72800D01*
X88100Y72300D01*
X87600Y73300D02*
X88100Y72300D01*
X87600Y73300D02*
X88100Y74300D01*
X87100Y73800D02*
X88100Y74300D01*
X86100D02*
X87100Y73800D01*
X86100Y74300D02*
X86600Y73300D01*
X86100Y72300D02*
X86600Y73300D01*
X85000Y83100D02*
X86000Y83600D01*
X87000Y83100D01*
X86500Y84100D02*
X87000Y83100D01*
X86500Y84100D02*
X87000Y85100D01*
X86000Y84600D02*
X87000Y85100D01*
X85000D02*
X86000Y84600D01*
X85000Y85100D02*
X85500Y84100D01*
X85000Y83100D02*
X85500Y84100D01*
X47800Y69900D02*
X48800Y70400D01*
X49800Y69900D01*
X49300Y70900D02*
X49800Y69900D01*
X49300Y70900D02*
X49800Y71900D01*
X48800Y71400D02*
X49800Y71900D01*
X47800D02*
X48800Y71400D01*
X47800Y71900D02*
X48300Y70900D01*
X47800Y69900D02*
X48300Y70900D01*
X53000Y65400D02*
X54000Y65900D01*
X55000Y65400D01*
X54500Y66400D02*
X55000Y65400D01*
X54500Y66400D02*
X55000Y67400D01*
X54000Y66900D02*
X55000Y67400D01*
X53000D02*
X54000Y66900D01*
X53000Y67400D02*
X53500Y66400D01*
X53000Y65400D02*
X53500Y66400D01*
X28300Y53700D02*
X29300Y54200D01*
X30300Y53700D01*
X29800Y54700D02*
X30300Y53700D01*
X29800Y54700D02*
X30300Y55700D01*
X29300Y55200D02*
X30300Y55700D01*
X28300D02*
X29300Y55200D01*
X28300Y55700D02*
X28800Y54700D01*
X28300Y53700D02*
X28800Y54700D01*
X24400Y48300D02*
X25400Y48800D01*
X26400Y48300D01*
X25900Y49300D02*
X26400Y48300D01*
X25900Y49300D02*
X26400Y50300D01*
X25400Y49800D02*
X26400Y50300D01*
X24400D02*
X25400Y49800D01*
X24400Y50300D02*
X24900Y49300D01*
X24400Y48300D02*
X24900Y49300D01*
X95342Y39422D02*
X96342Y41422D01*
X94342D02*
X96342D01*
X94342D02*
X95342Y39422D01*
Y62178D02*
X96342Y64178D01*
X94342D02*
X96342D01*
X94342D02*
X95342Y62178D01*
X92373Y67828D02*
X94373D01*
Y69828D01*
X92373D02*
X94373D01*
X92373Y67828D02*
Y69828D01*
Y33772D02*
X94373D01*
Y35772D01*
X92373D02*
X94373D01*
X92373Y33772D02*
Y35772D01*
D16*
X14396Y198228D02*
G03*
X14396Y198228I-3333J0D01*
G01*
X7729Y179894D02*
X14396D01*
Y186561D01*
X7729D02*
X14396D01*
X7729Y179894D02*
Y186561D01*
X11062Y164894D02*
X14396Y171561D01*
X7729D02*
X14396D01*
X7729D02*
X11062Y164894D01*
X7729Y149894D02*
X11062Y151561D01*
X14396Y149894D01*
X12729Y153227D02*
X14396Y149894D01*
X12729Y153227D02*
X14396Y156561D01*
X11062Y154894D02*
X14396Y156561D01*
X7729D02*
X11062Y154894D01*
X7729Y156561D02*
X9396Y153227D01*
X7729Y149894D02*
X9396Y153227D01*
X1190818Y194894D02*
X1186819D01*
X1190818Y198893D01*
Y199893D01*
X1189818Y200892D01*
X1187819D01*
X1186819Y199893D01*
X1192817D02*
X1193817Y200892D01*
X1195816D01*
X1196816Y199893D01*
Y198893D01*
X1195816Y197893D01*
X1194817D01*
X1195816D01*
X1196816Y196894D01*
Y195894D01*
X1195816Y194894D01*
X1193817D01*
X1192817Y195894D01*
X1198815Y194894D02*
Y195894D01*
X1199815D01*
Y194894D01*
X1198815D01*
X1207812Y200892D02*
X1205813Y199893D01*
X1203814Y197893D01*
Y195894D01*
X1204813Y194894D01*
X1206813D01*
X1207812Y195894D01*
Y196894D01*
X1206813Y197893D01*
X1203814D01*
X1213810Y194894D02*
X1209812D01*
X1213810Y198893D01*
Y199893D01*
X1212811Y200892D01*
X1210811D01*
X1209812Y199893D01*
X1215810Y194894D02*
Y198893D01*
X1216809D01*
X1217809Y197893D01*
Y194894D01*
Y197893D01*
X1218809Y198893D01*
X1219808Y197893D01*
Y194894D01*
X1221808D02*
X1223807D01*
X1222808D01*
Y198893D01*
X1221808D01*
X1226806Y194894D02*
X1228806D01*
X1227806D01*
Y200892D01*
X1226806D01*
X1239802Y194894D02*
X1237803Y196894D01*
Y198893D01*
X1239802Y200892D01*
X1242801Y199893D02*
X1243801Y200892D01*
X1245800D01*
X1246800Y199893D01*
Y195894D01*
X1245800Y194894D01*
X1243801D01*
X1242801Y195894D01*
Y199893D01*
X1248799Y194894D02*
Y195894D01*
X1249799D01*
Y194894D01*
X1248799D01*
X1257796Y200892D02*
X1255797Y199893D01*
X1253798Y197893D01*
Y195894D01*
X1254797Y194894D01*
X1256796D01*
X1257796Y195894D01*
Y196894D01*
X1256796Y197893D01*
X1253798D01*
X1259795Y199893D02*
X1260795Y200892D01*
X1262795D01*
X1263794Y199893D01*
Y195894D01*
X1262795Y194894D01*
X1260795D01*
X1259795Y195894D01*
Y199893D01*
X1265794D02*
X1266793Y200892D01*
X1268793D01*
X1269792Y199893D01*
Y195894D01*
X1268793Y194894D01*
X1266793D01*
X1265794Y195894D01*
Y199893D01*
X1271792Y194894D02*
Y198893D01*
X1272791D01*
X1273791Y197893D01*
Y194894D01*
Y197893D01*
X1274791Y198893D01*
X1275790Y197893D01*
Y194894D01*
X1277790D02*
Y198893D01*
X1278789D01*
X1279789Y197893D01*
Y194894D01*
Y197893D01*
X1280789Y198893D01*
X1281788Y197893D01*
Y194894D01*
X1283788D02*
X1285787Y196894D01*
Y198893D01*
X1283788Y200892D01*
X1189818Y179894D02*
Y185892D01*
X1186819Y182893D01*
X1190818D01*
X1192817Y184893D02*
X1193817Y185892D01*
X1195816D01*
X1196816Y184893D01*
Y183893D01*
X1195816Y182893D01*
X1194817D01*
X1195816D01*
X1196816Y181894D01*
Y180894D01*
X1195816Y179894D01*
X1193817D01*
X1192817Y180894D01*
X1198815Y179894D02*
Y180894D01*
X1199815D01*
Y179894D01*
X1198815D01*
X1203814Y184893D02*
X1204813Y185892D01*
X1206813D01*
X1207812Y184893D01*
Y183893D01*
X1206813Y182893D01*
X1205813D01*
X1206813D01*
X1207812Y181894D01*
Y180894D01*
X1206813Y179894D01*
X1204813D01*
X1203814Y180894D01*
X1209812Y179894D02*
X1211811D01*
X1210811D01*
Y185892D01*
X1209812Y184893D01*
X1214810Y179894D02*
Y183893D01*
X1215810D01*
X1216809Y182893D01*
Y179894D01*
Y182893D01*
X1217809Y183893D01*
X1218809Y182893D01*
Y179894D01*
X1220808D02*
X1222808D01*
X1221808D01*
Y183893D01*
X1220808D01*
X1225807Y179894D02*
X1227806D01*
X1226806D01*
Y185892D01*
X1225807D01*
X1238802Y179894D02*
X1236803Y181894D01*
Y183893D01*
X1238802Y185892D01*
X1241801Y179894D02*
X1243801D01*
X1242801D01*
Y185892D01*
X1241801Y184893D01*
X1246800Y179894D02*
Y180894D01*
X1247799D01*
Y179894D01*
X1246800D01*
X1251798D02*
X1253798D01*
X1252798D01*
Y185892D01*
X1251798Y184893D01*
X1256796D02*
X1257796Y185892D01*
X1259795D01*
X1260795Y184893D01*
Y180894D01*
X1259795Y179894D01*
X1257796D01*
X1256796Y180894D01*
Y184893D01*
X1262794D02*
X1263794Y185892D01*
X1265794D01*
X1266793Y184893D01*
Y180894D01*
X1265794Y179894D01*
X1263794D01*
X1262794Y180894D01*
Y184893D01*
X1268793Y179894D02*
Y183893D01*
X1269792D01*
X1270792Y182893D01*
Y179894D01*
Y182893D01*
X1271792Y183893D01*
X1272791Y182893D01*
Y179894D01*
X1274791D02*
Y183893D01*
X1275790D01*
X1276790Y182893D01*
Y179894D01*
Y182893D01*
X1277790Y183893D01*
X1278789Y182893D01*
Y179894D01*
X1280789D02*
X1282788Y181894D01*
Y183893D01*
X1280789Y185892D01*
X1186819Y167893D02*
X1190818D01*
X1186819Y152893D02*
X1190818D01*
X1080850Y194894D02*
Y200892D01*
X1077851Y197893D01*
X1081850D01*
X1083849Y200892D02*
X1087848D01*
Y199893D01*
X1083849Y195894D01*
Y194894D01*
X1089847D02*
Y195894D01*
X1090847D01*
Y194894D01*
X1089847D01*
X1098844D02*
X1094845D01*
X1098844Y198893D01*
Y199893D01*
X1097844Y200892D01*
X1095845D01*
X1094845Y199893D01*
X1103842Y194894D02*
Y200892D01*
X1100843Y197893D01*
X1104842D01*
X1106841Y194894D02*
Y198893D01*
X1107841D01*
X1108841Y197893D01*
Y194894D01*
Y197893D01*
X1109840Y198893D01*
X1110840Y197893D01*
Y194894D01*
X1112840D02*
X1114839D01*
X1113839D01*
Y198893D01*
X1112840D01*
X1117838Y194894D02*
X1119837D01*
X1118838D01*
Y200892D01*
X1117838D01*
X1130834Y194894D02*
X1128834Y196894D01*
Y198893D01*
X1130834Y200892D01*
X1133833Y194894D02*
X1135832D01*
X1134832D01*
Y200892D01*
X1133833Y199893D01*
X1138831Y194894D02*
Y195894D01*
X1139831D01*
Y194894D01*
X1138831D01*
X1147828D02*
X1143830D01*
X1147828Y198893D01*
Y199893D01*
X1146828Y200892D01*
X1144829D01*
X1143830Y199893D01*
X1149828D02*
X1150827Y200892D01*
X1152827D01*
X1153826Y199893D01*
Y195894D01*
X1152827Y194894D01*
X1150827D01*
X1149828Y195894D01*
Y199893D01*
X1155826D02*
X1156825Y200892D01*
X1158825D01*
X1159824Y199893D01*
Y195894D01*
X1158825Y194894D01*
X1156825D01*
X1155826Y195894D01*
Y199893D01*
X1161824Y194894D02*
Y198893D01*
X1162823D01*
X1163823Y197893D01*
Y194894D01*
Y197893D01*
X1164823Y198893D01*
X1165822Y197893D01*
Y194894D01*
X1167822D02*
Y198893D01*
X1168821D01*
X1169821Y197893D01*
Y194894D01*
Y197893D01*
X1170821Y198893D01*
X1171820Y197893D01*
Y194894D01*
X1173820D02*
X1175819Y196894D01*
Y198893D01*
X1173820Y200892D01*
X1081850Y185892D02*
X1079850Y184893D01*
X1077851Y182893D01*
Y180894D01*
X1078850Y179894D01*
X1080850D01*
X1081850Y180894D01*
Y181894D01*
X1080850Y182893D01*
X1077851D01*
X1087848Y185892D02*
X1085848Y184893D01*
X1083849Y182893D01*
Y180894D01*
X1084849Y179894D01*
X1086848D01*
X1087848Y180894D01*
Y181894D01*
X1086848Y182893D01*
X1083849D01*
X1089847Y179894D02*
Y180894D01*
X1090847D01*
Y179894D01*
X1089847D01*
X1094845Y180894D02*
X1095845Y179894D01*
X1097844D01*
X1098844Y180894D01*
Y184893D01*
X1097844Y185892D01*
X1095845D01*
X1094845Y184893D01*
Y183893D01*
X1095845Y182893D01*
X1098844D01*
X1100843Y184893D02*
X1101843Y185892D01*
X1103842D01*
X1104842Y184893D01*
Y183893D01*
X1103842Y182893D01*
X1102843D01*
X1103842D01*
X1104842Y181894D01*
Y180894D01*
X1103842Y179894D01*
X1101843D01*
X1100843Y180894D01*
X1106841Y179894D02*
Y183893D01*
X1107841D01*
X1108841Y182893D01*
Y179894D01*
Y182893D01*
X1109840Y183893D01*
X1110840Y182893D01*
Y179894D01*
X1112840D02*
X1114839D01*
X1113839D01*
Y183893D01*
X1112840D01*
X1117838Y179894D02*
X1119837D01*
X1118838D01*
Y185892D01*
X1117838D01*
X1130834Y179894D02*
X1128834Y181894D01*
Y183893D01*
X1130834Y185892D01*
X1133833Y179894D02*
X1135832D01*
X1134832D01*
Y185892D01*
X1133833Y184893D01*
X1138831Y179894D02*
Y180894D01*
X1139831D01*
Y179894D01*
X1138831D01*
X1143830Y185892D02*
X1147828D01*
Y184893D01*
X1143830Y180894D01*
Y179894D01*
X1149828Y184893D02*
X1150827Y185892D01*
X1152827D01*
X1153826Y184893D01*
Y180894D01*
X1152827Y179894D01*
X1150827D01*
X1149828Y180894D01*
Y184893D01*
X1155826D02*
X1156825Y185892D01*
X1158825D01*
X1159824Y184893D01*
Y180894D01*
X1158825Y179894D01*
X1156825D01*
X1155826Y180894D01*
Y184893D01*
X1161824Y179894D02*
Y183893D01*
X1162823D01*
X1163823Y182893D01*
Y179894D01*
Y182893D01*
X1164823Y183893D01*
X1165822Y182893D01*
Y179894D01*
X1167822D02*
Y183893D01*
X1168821D01*
X1169821Y182893D01*
Y179894D01*
Y182893D01*
X1170821Y183893D01*
X1171820Y182893D01*
Y179894D01*
X1173820D02*
X1175819Y181894D01*
Y183893D01*
X1173820Y185892D01*
X1077851Y167893D02*
X1081850D01*
X1077851Y152893D02*
X1081850D01*
X606788Y198893D02*
Y194894D01*
Y196894D01*
X607788Y197893D01*
X608787Y198893D01*
X609787D01*
X612786Y194894D02*
X614785D01*
X613786D01*
Y200892D01*
X612786Y199893D01*
X621783Y200892D02*
X619784Y199893D01*
X617784Y197893D01*
Y195894D01*
X618784Y194894D01*
X620783D01*
X621783Y195894D01*
Y196894D01*
X620783Y197893D01*
X617784D01*
X623782Y199893D02*
X624782Y200892D01*
X626781D01*
X627781Y199893D01*
Y195894D01*
X626781Y194894D01*
X624782D01*
X623782Y195894D01*
Y199893D01*
X629780Y193895D02*
X633779D01*
X635779Y194894D02*
X637778D01*
X636778D01*
Y200892D01*
X635779Y199893D01*
X640777D02*
X641777Y200892D01*
X643776D01*
X644776Y199893D01*
Y195894D01*
X643776Y194894D01*
X641777D01*
X640777Y195894D01*
Y199893D01*
X646775D02*
X647775Y200892D01*
X649774D01*
X650774Y199893D01*
Y195894D01*
X649774Y194894D01*
X647775D01*
X646775Y195894D01*
Y199893D01*
X652773Y200892D02*
Y194894D01*
Y197893D01*
X653773Y198893D01*
X655772D01*
X656772Y197893D01*
Y194894D01*
X662770Y200892D02*
X660770Y199893D01*
X658771Y197893D01*
Y195894D01*
X659771Y194894D01*
X661770D01*
X662770Y195894D01*
Y196894D01*
X661770Y197893D01*
X658771D01*
X664769Y199893D02*
X665769Y200892D01*
X667768D01*
X668768Y199893D01*
Y195894D01*
X667768Y194894D01*
X665769D01*
X664769Y195894D01*
Y199893D01*
X670767Y193895D02*
X674766D01*
X676765Y194894D02*
X678765D01*
X677765D01*
Y200892D01*
X676765Y199893D01*
X685762Y194894D02*
X681764D01*
X685762Y198893D01*
Y199893D01*
X684763Y200892D01*
X682763D01*
X681764Y199893D01*
X687762D02*
X688761Y200892D01*
X690761D01*
X691760Y199893D01*
Y195894D01*
X690761Y194894D01*
X688761D01*
X687762Y195894D01*
Y199893D01*
X693760Y198893D02*
Y194894D01*
Y196894D01*
X694760Y197893D01*
X695759Y198893D01*
X696759D01*
X699758Y194894D02*
X701757D01*
X700758D01*
Y200892D01*
X699758Y199893D01*
X704756D02*
X705756Y200892D01*
X707755D01*
X708755Y199893D01*
Y195894D01*
X707755Y194894D01*
X705756D01*
X704756Y195894D01*
Y199893D01*
X710754D02*
X711754Y200892D01*
X713753D01*
X714753Y199893D01*
Y195894D01*
X713753Y194894D01*
X711754D01*
X710754Y195894D01*
Y199893D01*
X606788Y183893D02*
Y179894D01*
Y181894D01*
X607788Y182893D01*
X608787Y183893D01*
X609787D01*
X616785Y179894D02*
X612786D01*
X616785Y183893D01*
Y184893D01*
X615785Y185892D01*
X613786D01*
X612786Y184893D01*
X618784Y179894D02*
X620783D01*
X619784D01*
Y185892D01*
X618784Y184893D01*
X623782D02*
X624782Y185892D01*
X626781D01*
X627781Y184893D01*
Y180894D01*
X626781Y179894D01*
X624782D01*
X623782Y180894D01*
Y184893D01*
X629780Y178894D02*
X633779D01*
X635779Y179894D02*
X637778D01*
X636778D01*
Y185892D01*
X635779Y184893D01*
X640777D02*
X641777Y185892D01*
X643776D01*
X644776Y184893D01*
Y180894D01*
X643776Y179894D01*
X641777D01*
X640777Y180894D01*
Y184893D01*
X646775D02*
X647775Y185892D01*
X649774D01*
X650774Y184893D01*
Y180894D01*
X649774Y179894D01*
X647775D01*
X646775Y180894D01*
Y184893D01*
X652773Y185892D02*
Y179894D01*
Y182893D01*
X653773Y183893D01*
X655772D01*
X656772Y182893D01*
Y179894D01*
X662770Y185892D02*
X660770Y184893D01*
X658771Y182893D01*
Y180894D01*
X659771Y179894D01*
X661770D01*
X662770Y180894D01*
Y181894D01*
X661770Y182893D01*
X658771D01*
X664769Y184893D02*
X665769Y185892D01*
X667768D01*
X668768Y184893D01*
Y180894D01*
X667768Y179894D01*
X665769D01*
X664769Y180894D01*
Y184893D01*
X670767Y178894D02*
X674766D01*
X676765Y179894D02*
X678765D01*
X677765D01*
Y185892D01*
X676765Y184893D01*
X681764Y185892D02*
X685762D01*
Y184893D01*
X681764Y180894D01*
Y179894D01*
X687762Y184893D02*
X688761Y185892D01*
X690761D01*
X691760Y184893D01*
Y180894D01*
X690761Y179894D01*
X688761D01*
X687762Y180894D01*
Y184893D01*
X693760Y183893D02*
Y179894D01*
Y181894D01*
X694760Y182893D01*
X695759Y183893D01*
X696759D01*
X699758Y179894D02*
X701757D01*
X700758D01*
Y185892D01*
X699758Y184893D01*
X704756D02*
X705756Y185892D01*
X707755D01*
X708755Y184893D01*
Y180894D01*
X707755Y179894D01*
X705756D01*
X704756Y180894D01*
Y184893D01*
X710754D02*
X711754Y185892D01*
X713753D01*
X714753Y184893D01*
Y180894D01*
X713753Y179894D01*
X711754D01*
X710754Y180894D01*
Y184893D01*
X610787Y168893D02*
X607788D01*
X606788Y167893D01*
Y165894D01*
X607788Y164894D01*
X610787D01*
X616785Y170892D02*
X614785Y169893D01*
X612786Y167893D01*
Y165894D01*
X613786Y164894D01*
X615785D01*
X616785Y165894D01*
Y166893D01*
X615785Y167893D01*
X612786D01*
X622783Y170892D02*
X618784D01*
Y167893D01*
X620783Y168893D01*
X621783D01*
X622783Y167893D01*
Y165894D01*
X621783Y164894D01*
X619784D01*
X618784Y165894D01*
X624782Y170892D02*
Y164894D01*
Y167893D01*
X625782Y168893D01*
X627781D01*
X628781Y167893D01*
Y164894D01*
X634779Y170892D02*
X632780Y169893D01*
X630780Y167893D01*
Y165894D01*
X631780Y164894D01*
X633779D01*
X634779Y165894D01*
Y166893D01*
X633779Y167893D01*
X630780D01*
X640777Y170892D02*
X636778D01*
Y167893D01*
X638778Y168893D01*
X639777D01*
X640777Y167893D01*
Y165894D01*
X639777Y164894D01*
X637778D01*
X636778Y165894D01*
X608787Y149894D02*
X606788Y151893D01*
Y153893D01*
X608787Y155892D01*
X611786Y149894D02*
Y155892D01*
X613786Y153893D01*
X615785Y155892D01*
Y149894D01*
X617784D02*
X619784D01*
X618784D01*
Y153893D01*
X617784D01*
X622783D02*
X626781Y149894D01*
X624782Y151893D01*
X626781Y153893D01*
X622783Y149894D01*
X631780D02*
X629780D01*
X628781Y150894D01*
Y152893D01*
X629780Y153893D01*
X631780D01*
X632780Y152893D01*
Y151893D01*
X628781D01*
X638778Y155892D02*
Y149894D01*
X635779D01*
X634779Y150894D01*
Y152893D01*
X635779Y153893D01*
X638778D01*
X640777Y149894D02*
X642776Y151893D01*
Y153893D01*
X640777Y155892D01*
X532208Y194894D02*
Y200892D01*
X535207D01*
X536207Y199893D01*
Y197893D01*
X535207Y196894D01*
X532208D01*
X534207D02*
X536207Y194894D01*
X539206D02*
X541205D01*
X542205Y195894D01*
Y197893D01*
X541205Y198893D01*
X539206D01*
X538206Y197893D01*
Y195894D01*
X539206Y194894D01*
X544204Y198893D02*
Y195894D01*
X545204Y194894D01*
X548203D01*
Y198893D01*
X550202Y194894D02*
Y198893D01*
X553201D01*
X554201Y197893D01*
Y194894D01*
X560199Y200892D02*
Y194894D01*
X557200D01*
X556200Y195894D01*
Y197893D01*
X557200Y198893D01*
X560199D01*
X565197Y194894D02*
X563198D01*
X562198Y195894D01*
Y197893D01*
X563198Y198893D01*
X565197D01*
X566197Y197893D01*
Y196894D01*
X562198D01*
X572195Y200892D02*
Y194894D01*
X569196D01*
X568196Y195894D01*
Y197893D01*
X569196Y198893D01*
X572195D01*
X532208Y179894D02*
Y185892D01*
X535207D01*
X536207Y184893D01*
Y182893D01*
X535207Y181894D01*
X532208D01*
X534207D02*
X536207Y179894D01*
X539206D02*
X541205D01*
X542205Y180894D01*
Y182893D01*
X541205Y183893D01*
X539206D01*
X538206Y182893D01*
Y180894D01*
X539206Y179894D01*
X544204Y183893D02*
Y180894D01*
X545204Y179894D01*
X548203D01*
Y183893D01*
X550202Y179894D02*
Y183893D01*
X553201D01*
X554201Y182893D01*
Y179894D01*
X560199Y185892D02*
Y179894D01*
X557200D01*
X556200Y180894D01*
Y182893D01*
X557200Y183893D01*
X560199D01*
X565197Y179894D02*
X563198D01*
X562198Y180894D01*
Y182893D01*
X563198Y183893D01*
X565197D01*
X566197Y182893D01*
Y181894D01*
X562198D01*
X572195Y185892D02*
Y179894D01*
X569196D01*
X568196Y180894D01*
Y182893D01*
X569196Y183893D01*
X572195D01*
X532208Y164894D02*
Y170892D01*
X535207D01*
X536207Y169893D01*
Y167893D01*
X535207Y166893D01*
X532208D01*
X534207D02*
X536207Y164894D01*
X539206D02*
X541205D01*
X542205Y165894D01*
Y167893D01*
X541205Y168893D01*
X539206D01*
X538206Y167893D01*
Y165894D01*
X539206Y164894D01*
X544204Y168893D02*
Y165894D01*
X545204Y164894D01*
X548203D01*
Y168893D01*
X550202Y164894D02*
Y168893D01*
X553201D01*
X554201Y167893D01*
Y164894D01*
X560199Y170892D02*
Y164894D01*
X557200D01*
X556200Y165894D01*
Y167893D01*
X557200Y168893D01*
X560199D01*
X565197Y164894D02*
X563198D01*
X562198Y165894D01*
Y167893D01*
X563198Y168893D01*
X565197D01*
X566197Y167893D01*
Y166893D01*
X562198D01*
X572195Y170892D02*
Y164894D01*
X569196D01*
X568196Y165894D01*
Y167893D01*
X569196Y168893D01*
X572195D01*
X532208Y149894D02*
Y155892D01*
X535207D01*
X536207Y154893D01*
Y152893D01*
X535207Y151893D01*
X532208D01*
X534207D02*
X536207Y149894D01*
X539206D02*
X541205D01*
X542205Y150894D01*
Y152893D01*
X541205Y153893D01*
X539206D01*
X538206Y152893D01*
Y150894D01*
X539206Y149894D01*
X544204Y153893D02*
Y150894D01*
X545204Y149894D01*
X548203D01*
Y153893D01*
X550202Y149894D02*
Y153893D01*
X553201D01*
X554201Y152893D01*
Y149894D01*
X560199Y155892D02*
Y149894D01*
X557200D01*
X556200Y150894D01*
Y152893D01*
X557200Y153893D01*
X560199D01*
X565197Y149894D02*
X563198D01*
X562198Y150894D01*
Y152893D01*
X563198Y153893D01*
X565197D01*
X566197Y152893D01*
Y151893D01*
X562198D01*
X572195Y155892D02*
Y149894D01*
X569196D01*
X568196Y150894D01*
Y152893D01*
X569196Y153893D01*
X572195D01*
X473223Y194894D02*
Y200892D01*
X476222D01*
X477222Y199893D01*
Y197893D01*
X476222Y196894D01*
X473223D01*
X480221Y198893D02*
X482220D01*
X483220Y197893D01*
Y194894D01*
X480221D01*
X479221Y195894D01*
X480221Y196894D01*
X483220D01*
X489218Y200892D02*
Y194894D01*
X486219D01*
X485219Y195894D01*
Y197893D01*
X486219Y198893D01*
X489218D01*
X473223Y179894D02*
Y185892D01*
X476222D01*
X477222Y184893D01*
Y182893D01*
X476222Y181894D01*
X473223D01*
X480221Y183893D02*
X482220D01*
X483220Y182893D01*
Y179894D01*
X480221D01*
X479221Y180894D01*
X480221Y181894D01*
X483220D01*
X489218Y185892D02*
Y179894D01*
X486219D01*
X485219Y180894D01*
Y182893D01*
X486219Y183893D01*
X489218D01*
X473223Y164894D02*
Y170892D01*
X476222D01*
X477222Y169893D01*
Y167893D01*
X476222Y166893D01*
X473223D01*
X480221Y168893D02*
X482220D01*
X483220Y167893D01*
Y164894D01*
X480221D01*
X479221Y165894D01*
X480221Y166893D01*
X483220D01*
X489218Y170892D02*
Y164894D01*
X486219D01*
X485219Y165894D01*
Y167893D01*
X486219Y168893D01*
X489218D01*
X473223Y155892D02*
Y151893D01*
X475223Y149894D01*
X477222Y151893D01*
Y155892D01*
X479221Y149894D02*
X481221D01*
X480221D01*
Y153893D01*
X479221D01*
X485219D02*
X487219D01*
X488218Y152893D01*
Y149894D01*
X485219D01*
X484220Y150894D01*
X485219Y151893D01*
X488218D01*
X354258Y200892D02*
X358257D01*
X356257D01*
Y194894D01*
X361256D02*
X363255D01*
X364255Y195894D01*
Y197893D01*
X363255Y198893D01*
X361256D01*
X360256Y197893D01*
Y195894D01*
X361256Y194894D01*
X366254Y192895D02*
Y198893D01*
X369253D01*
X370253Y197893D01*
Y195894D01*
X369253Y194894D01*
X366254D01*
X372252D02*
X374251D01*
X373252D01*
Y200892D01*
X372252Y199893D01*
X383248Y197893D02*
X387247D01*
X395245Y200892D02*
Y194894D01*
X398244D01*
X399243Y195894D01*
Y196894D01*
X398244Y197893D01*
X395245D01*
X398244D01*
X399243Y198893D01*
Y199893D01*
X398244Y200892D01*
X395245D01*
X402242Y194894D02*
X404242D01*
X405241Y195894D01*
Y197893D01*
X404242Y198893D01*
X402242D01*
X401243Y197893D01*
Y195894D01*
X402242Y194894D01*
X408240Y199893D02*
Y198893D01*
X407241D01*
X409240D01*
X408240D01*
Y195894D01*
X409240Y194894D01*
X413239Y199893D02*
Y198893D01*
X412239D01*
X414238D01*
X413239D01*
Y195894D01*
X414238Y194894D01*
X418237D02*
X420236D01*
X421236Y195894D01*
Y197893D01*
X420236Y198893D01*
X418237D01*
X417237Y197893D01*
Y195894D01*
X418237Y194894D01*
X423236D02*
Y198893D01*
X424235D01*
X425235Y197893D01*
Y194894D01*
Y197893D01*
X426234Y198893D01*
X427234Y197893D01*
Y194894D01*
X432233D02*
Y200892D01*
X429234Y197893D01*
X433232D01*
X354258Y185892D02*
X358257D01*
X356257D01*
Y179894D01*
X361256D02*
X363255D01*
X364255Y180894D01*
Y182893D01*
X363255Y183893D01*
X361256D01*
X360256Y182893D01*
Y180894D01*
X361256Y179894D01*
X366254Y177895D02*
Y183893D01*
X369253D01*
X370253Y182893D01*
Y180894D01*
X369253Y179894D01*
X366254D01*
X372252D02*
X374251D01*
X373252D01*
Y185892D01*
X372252Y184893D01*
X383248Y182893D02*
X387247D01*
X395245Y185892D02*
Y179894D01*
X398244D01*
X399243Y180894D01*
Y181894D01*
X398244Y182893D01*
X395245D01*
X398244D01*
X399243Y183893D01*
Y184893D01*
X398244Y185892D01*
X395245D01*
X402242Y179894D02*
X404242D01*
X405241Y180894D01*
Y182893D01*
X404242Y183893D01*
X402242D01*
X401243Y182893D01*
Y180894D01*
X402242Y179894D01*
X408240Y184893D02*
Y183893D01*
X407241D01*
X409240D01*
X408240D01*
Y180894D01*
X409240Y179894D01*
X413239Y184893D02*
Y183893D01*
X412239D01*
X414238D01*
X413239D01*
Y180894D01*
X414238Y179894D01*
X418237D02*
X420236D01*
X421236Y180894D01*
Y182893D01*
X420236Y183893D01*
X418237D01*
X417237Y182893D01*
Y180894D01*
X418237Y179894D01*
X423236D02*
Y183893D01*
X424235D01*
X425235Y182893D01*
Y179894D01*
Y182893D01*
X426234Y183893D01*
X427234Y182893D01*
Y179894D01*
X432233D02*
Y185892D01*
X429234Y182893D01*
X433232D01*
X354258Y170892D02*
X358257D01*
X356257D01*
Y164894D01*
X361256D02*
X363255D01*
X364255Y165894D01*
Y167893D01*
X363255Y168893D01*
X361256D01*
X360256Y167893D01*
Y165894D01*
X361256Y164894D01*
X366254Y162895D02*
Y168893D01*
X369253D01*
X370253Y167893D01*
Y165894D01*
X369253Y164894D01*
X366254D01*
X372252D02*
X374251D01*
X373252D01*
Y170892D01*
X372252Y169893D01*
X383248Y167893D02*
X387247D01*
X395245Y170892D02*
Y164894D01*
X398244D01*
X399243Y165894D01*
Y166893D01*
X398244Y167893D01*
X395245D01*
X398244D01*
X399243Y168893D01*
Y169893D01*
X398244Y170892D01*
X395245D01*
X402242Y164894D02*
X404242D01*
X405241Y165894D01*
Y167893D01*
X404242Y168893D01*
X402242D01*
X401243Y167893D01*
Y165894D01*
X402242Y164894D01*
X408240Y169893D02*
Y168893D01*
X407241D01*
X409240D01*
X408240D01*
Y165894D01*
X409240Y164894D01*
X413239Y169893D02*
Y168893D01*
X412239D01*
X414238D01*
X413239D01*
Y165894D01*
X414238Y164894D01*
X418237D02*
X420236D01*
X421236Y165894D01*
Y167893D01*
X420236Y168893D01*
X418237D01*
X417237Y167893D01*
Y165894D01*
X418237Y164894D01*
X423236D02*
Y168893D01*
X424235D01*
X425235Y167893D01*
Y164894D01*
Y167893D01*
X426234Y168893D01*
X427234Y167893D01*
Y164894D01*
X432233D02*
Y170892D01*
X429234Y167893D01*
X433232D01*
X354258Y155892D02*
X358257D01*
X356257D01*
Y149894D01*
X361256D02*
X363255D01*
X364255Y150894D01*
Y152893D01*
X363255Y153893D01*
X361256D01*
X360256Y152893D01*
Y150894D01*
X361256Y149894D01*
X366254Y147895D02*
Y153893D01*
X369253D01*
X370253Y152893D01*
Y150894D01*
X369253Y149894D01*
X366254D01*
X372252D02*
X374251D01*
X373252D01*
Y155892D01*
X372252Y154893D01*
X383248Y152893D02*
X387247D01*
X395245Y155892D02*
Y149894D01*
X398244D01*
X399243Y150894D01*
Y151893D01*
X398244Y152893D01*
X395245D01*
X398244D01*
X399243Y153893D01*
Y154893D01*
X398244Y155892D01*
X395245D01*
X402242Y149894D02*
X404242D01*
X405241Y150894D01*
Y152893D01*
X404242Y153893D01*
X402242D01*
X401243Y152893D01*
Y150894D01*
X402242Y149894D01*
X408240Y154893D02*
Y153893D01*
X407241D01*
X409240D01*
X408240D01*
Y150894D01*
X409240Y149894D01*
X413239Y154893D02*
Y153893D01*
X412239D01*
X414238D01*
X413239D01*
Y150894D01*
X414238Y149894D01*
X418237D02*
X420236D01*
X421236Y150894D01*
Y152893D01*
X420236Y153893D01*
X418237D01*
X417237Y152893D01*
Y150894D01*
X418237Y149894D01*
X423236D02*
Y153893D01*
X424235D01*
X425235Y152893D01*
Y149894D01*
Y152893D01*
X426234Y153893D01*
X427234Y152893D01*
Y149894D01*
X432233D02*
Y155892D01*
X429234Y152893D01*
X433232D01*
X284876Y199893D02*
X283877Y200892D01*
X281877D01*
X280878Y199893D01*
Y198893D01*
X281877Y197893D01*
X283877D01*
X284876Y196894D01*
Y195894D01*
X283877Y194894D01*
X281877D01*
X280878Y195894D01*
X286876Y194894D02*
X288875D01*
X287875D01*
Y200892D01*
X286876D01*
X292874Y194894D02*
X294873D01*
X295873Y195894D01*
Y197893D01*
X294873Y198893D01*
X292874D01*
X291874Y197893D01*
Y195894D01*
X292874Y194894D01*
X298872Y199893D02*
Y198893D01*
X297872D01*
X299871D01*
X298872D01*
Y195894D01*
X299871Y194894D01*
X284876Y184893D02*
X283877Y185892D01*
X281877D01*
X280878Y184893D01*
Y183893D01*
X281877Y182893D01*
X283877D01*
X284876Y181894D01*
Y180894D01*
X283877Y179894D01*
X281877D01*
X280878Y180894D01*
X286876Y179894D02*
X288875D01*
X287875D01*
Y185892D01*
X286876D01*
X292874Y179894D02*
X294873D01*
X295873Y180894D01*
Y182893D01*
X294873Y183893D01*
X292874D01*
X291874Y182893D01*
Y180894D01*
X292874Y179894D01*
X298872Y184893D02*
Y183893D01*
X297872D01*
X299871D01*
X298872D01*
Y180894D01*
X299871Y179894D01*
X280878Y164894D02*
Y170892D01*
X283877D01*
X284876Y169893D01*
Y167893D01*
X283877Y166893D01*
X280878D01*
X282877D02*
X284876Y164894D01*
X287875D02*
X289875D01*
X290874Y165894D01*
Y167893D01*
X289875Y168893D01*
X287875D01*
X286876Y167893D01*
Y165894D01*
X287875Y164894D01*
X292874Y168893D02*
Y165894D01*
X293873Y164894D01*
X296872D01*
Y168893D01*
X298872Y164894D02*
Y168893D01*
X301871D01*
X302870Y167893D01*
Y164894D01*
X308869Y170892D02*
Y164894D01*
X305870D01*
X304870Y165894D01*
Y167893D01*
X305870Y168893D01*
X308869D01*
X280878Y149894D02*
Y155892D01*
X283877D01*
X284876Y154893D01*
Y152893D01*
X283877Y151893D01*
X280878D01*
X282877D02*
X284876Y149894D01*
X287875D02*
X289875D01*
X290874Y150894D01*
Y152893D01*
X289875Y153893D01*
X287875D01*
X286876Y152893D01*
Y150894D01*
X287875Y149894D01*
X292874Y153893D02*
Y150894D01*
X293873Y149894D01*
X296872D01*
Y153893D01*
X298872Y149894D02*
Y153893D01*
X301871D01*
X302870Y152893D01*
Y149894D01*
X308869Y155892D02*
Y149894D01*
X305870D01*
X304870Y150894D01*
Y152893D01*
X305870Y153893D01*
X308869D01*
X230290Y194894D02*
Y200892D01*
X233289D01*
X234289Y199893D01*
Y197893D01*
X233289Y196894D01*
X230290D01*
X236288Y200892D02*
X240287D01*
X238287D01*
Y194894D01*
X242286Y200892D02*
Y194894D01*
Y197893D01*
X246285D01*
Y200892D01*
Y194894D01*
X230290Y179894D02*
Y185892D01*
X233289D01*
X234289Y184893D01*
Y182893D01*
X233289Y181894D01*
X230290D01*
X236288Y185892D02*
X240287D01*
X238287D01*
Y179894D01*
X242286Y185892D02*
Y179894D01*
Y182893D01*
X246285D01*
Y185892D01*
Y179894D01*
X230290Y164894D02*
Y170892D01*
X233289D01*
X234289Y169893D01*
Y167893D01*
X233289Y166893D01*
X230290D01*
X236288Y170892D02*
X240287D01*
X238287D01*
Y164894D01*
X242286Y170892D02*
Y164894D01*
Y167893D01*
X246285D01*
Y170892D01*
Y164894D01*
X230290Y149894D02*
Y155892D01*
X233289D01*
X234289Y154893D01*
Y152893D01*
X233289Y151893D01*
X230290D01*
X236288Y155892D02*
X240287D01*
X238287D01*
Y149894D01*
X242286Y155892D02*
Y149894D01*
Y152893D01*
X246285D01*
Y155892D01*
Y149894D01*
X124321Y194894D02*
X120322D01*
X124321Y198893D01*
Y199893D01*
X123321Y200892D01*
X121322D01*
X120322Y199893D01*
X126320D02*
X127320Y200892D01*
X129319D01*
X130319Y199893D01*
Y198893D01*
X129319Y197893D01*
X128320D01*
X129319D01*
X130319Y196894D01*
Y195894D01*
X129319Y194894D01*
X127320D01*
X126320Y195894D01*
X132318Y194894D02*
Y195894D01*
X133318D01*
Y194894D01*
X132318D01*
X141315Y200892D02*
X139316Y199893D01*
X137317Y197893D01*
Y195894D01*
X138316Y194894D01*
X140316D01*
X141315Y195894D01*
Y196894D01*
X140316Y197893D01*
X137317D01*
X147313Y194894D02*
X143315D01*
X147313Y198893D01*
Y199893D01*
X146314Y200892D01*
X144314D01*
X143315Y199893D01*
X149313Y194894D02*
Y198893D01*
X150312D01*
X151312Y197893D01*
Y194894D01*
Y197893D01*
X152312Y198893D01*
X153311Y197893D01*
Y194894D01*
X155311D02*
X157310D01*
X156310D01*
Y198893D01*
X155311D01*
X160309Y194894D02*
X162308D01*
X161309D01*
Y200892D01*
X160309D01*
X173305Y194894D02*
X171306Y196894D01*
Y198893D01*
X173305Y200892D01*
X176304Y199893D02*
X177304Y200892D01*
X179303D01*
X180303Y199893D01*
Y195894D01*
X179303Y194894D01*
X177304D01*
X176304Y195894D01*
Y199893D01*
X182302Y194894D02*
Y195894D01*
X183302D01*
Y194894D01*
X182302D01*
X191299Y200892D02*
X189300Y199893D01*
X187300Y197893D01*
Y195894D01*
X188300Y194894D01*
X190299D01*
X191299Y195894D01*
Y196894D01*
X190299Y197893D01*
X187300D01*
X193298Y199893D02*
X194298Y200892D01*
X196298D01*
X197297Y199893D01*
Y195894D01*
X196298Y194894D01*
X194298D01*
X193298Y195894D01*
Y199893D01*
X199296D02*
X200296Y200892D01*
X202295D01*
X203295Y199893D01*
Y195894D01*
X202295Y194894D01*
X200296D01*
X199296Y195894D01*
Y199893D01*
X205294Y194894D02*
Y198893D01*
X206294D01*
X207294Y197893D01*
Y194894D01*
Y197893D01*
X208294Y198893D01*
X209293Y197893D01*
Y194894D01*
X211293D02*
Y198893D01*
X212292D01*
X213292Y197893D01*
Y194894D01*
Y197893D01*
X214292Y198893D01*
X215291Y197893D01*
Y194894D01*
X217291D02*
X219290Y196894D01*
Y198893D01*
X217291Y200892D01*
X124321Y179894D02*
X120322D01*
X124321Y183893D01*
Y184893D01*
X123321Y185892D01*
X121322D01*
X120322Y184893D01*
X126320D02*
X127320Y185892D01*
X129319D01*
X130319Y184893D01*
Y183893D01*
X129319Y182893D01*
X128320D01*
X129319D01*
X130319Y181894D01*
Y180894D01*
X129319Y179894D01*
X127320D01*
X126320Y180894D01*
X132318Y179894D02*
Y180894D01*
X133318D01*
Y179894D01*
X132318D01*
X141315Y185892D02*
X139316Y184893D01*
X137317Y182893D01*
Y180894D01*
X138316Y179894D01*
X140316D01*
X141315Y180894D01*
Y181894D01*
X140316Y182893D01*
X137317D01*
X147313Y179894D02*
X143315D01*
X147313Y183893D01*
Y184893D01*
X146314Y185892D01*
X144314D01*
X143315Y184893D01*
X149313Y179894D02*
Y183893D01*
X150312D01*
X151312Y182893D01*
Y179894D01*
Y182893D01*
X152312Y183893D01*
X153311Y182893D01*
Y179894D01*
X155311D02*
X157310D01*
X156310D01*
Y183893D01*
X155311D01*
X160309Y179894D02*
X162308D01*
X161309D01*
Y185892D01*
X160309D01*
X173305Y179894D02*
X171306Y181894D01*
Y183893D01*
X173305Y185892D01*
X176304Y184893D02*
X177304Y185892D01*
X179303D01*
X180303Y184893D01*
Y180894D01*
X179303Y179894D01*
X177304D01*
X176304Y180894D01*
Y184893D01*
X182302Y179894D02*
Y180894D01*
X183302D01*
Y179894D01*
X182302D01*
X191299Y185892D02*
X189300Y184893D01*
X187300Y182893D01*
Y180894D01*
X188300Y179894D01*
X190299D01*
X191299Y180894D01*
Y181894D01*
X190299Y182893D01*
X187300D01*
X193298Y184893D02*
X194298Y185892D01*
X196298D01*
X197297Y184893D01*
Y180894D01*
X196298Y179894D01*
X194298D01*
X193298Y180894D01*
Y184893D01*
X199296D02*
X200296Y185892D01*
X202295D01*
X203295Y184893D01*
Y180894D01*
X202295Y179894D01*
X200296D01*
X199296Y180894D01*
Y184893D01*
X205294Y179894D02*
Y183893D01*
X206294D01*
X207294Y182893D01*
Y179894D01*
Y182893D01*
X208294Y183893D01*
X209293Y182893D01*
Y179894D01*
X211293D02*
Y183893D01*
X212292D01*
X213292Y182893D01*
Y179894D01*
Y182893D01*
X214292Y183893D01*
X215291Y182893D01*
Y179894D01*
X217291D02*
X219290Y181894D01*
Y183893D01*
X217291Y185892D01*
X124321Y164894D02*
X120322D01*
X124321Y168893D01*
Y169893D01*
X123321Y170892D01*
X121322D01*
X120322Y169893D01*
X130319Y170892D02*
X126320D01*
Y167893D01*
X128320Y168893D01*
X129319D01*
X130319Y167893D01*
Y165894D01*
X129319Y164894D01*
X127320D01*
X126320Y165894D01*
X132318Y164894D02*
Y165894D01*
X133318D01*
Y164894D01*
X132318D01*
X141315Y170892D02*
X137317D01*
Y167893D01*
X139316Y168893D01*
X140316D01*
X141315Y167893D01*
Y165894D01*
X140316Y164894D01*
X138316D01*
X137317Y165894D01*
X143315D02*
X144314Y164894D01*
X146314D01*
X147313Y165894D01*
Y169893D01*
X146314Y170892D01*
X144314D01*
X143315Y169893D01*
Y168893D01*
X144314Y167893D01*
X147313D01*
X149313Y164894D02*
Y168893D01*
X150312D01*
X151312Y167893D01*
Y164894D01*
Y167893D01*
X152312Y168893D01*
X153311Y167893D01*
Y164894D01*
X155311D02*
X157310D01*
X156310D01*
Y168893D01*
X155311D01*
X160309Y164894D02*
X162308D01*
X161309D01*
Y170892D01*
X160309D01*
X173305Y164894D02*
X171306Y166893D01*
Y168893D01*
X173305Y170892D01*
X176304Y169893D02*
X177304Y170892D01*
X179303D01*
X180303Y169893D01*
Y165894D01*
X179303Y164894D01*
X177304D01*
X176304Y165894D01*
Y169893D01*
X182302Y164894D02*
Y165894D01*
X183302D01*
Y164894D01*
X182302D01*
X191299Y170892D02*
X189300Y169893D01*
X187300Y167893D01*
Y165894D01*
X188300Y164894D01*
X190299D01*
X191299Y165894D01*
Y166893D01*
X190299Y167893D01*
X187300D01*
X197297Y170892D02*
X193298D01*
Y167893D01*
X195298Y168893D01*
X196298D01*
X197297Y167893D01*
Y165894D01*
X196298Y164894D01*
X194298D01*
X193298Y165894D01*
X199296Y169893D02*
X200296Y170892D01*
X202295D01*
X203295Y169893D01*
Y165894D01*
X202295Y164894D01*
X200296D01*
X199296Y165894D01*
Y169893D01*
X205294Y164894D02*
Y168893D01*
X206294D01*
X207294Y167893D01*
Y164894D01*
Y167893D01*
X208294Y168893D01*
X209293Y167893D01*
Y164894D01*
X211293D02*
Y168893D01*
X212292D01*
X213292Y167893D01*
Y164894D01*
Y167893D01*
X214292Y168893D01*
X215291Y167893D01*
Y164894D01*
X217291D02*
X219290Y166893D01*
Y168893D01*
X217291Y170892D01*
X120322Y149894D02*
X122321D01*
X121322D01*
Y155892D01*
X120322Y154893D01*
X125320D02*
X126320Y155892D01*
X128320D01*
X129319Y154893D01*
Y150894D01*
X128320Y149894D01*
X126320D01*
X125320Y150894D01*
Y154893D01*
X131318Y149894D02*
Y150894D01*
X132318D01*
Y149894D01*
X131318D01*
X136317Y154893D02*
X137317Y155892D01*
X139316D01*
X140316Y154893D01*
Y150894D01*
X139316Y149894D01*
X137317D01*
X136317Y150894D01*
Y154893D01*
X142315D02*
X143315Y155892D01*
X145314D01*
X146314Y154893D01*
Y150894D01*
X145314Y149894D01*
X143315D01*
X142315Y150894D01*
Y154893D01*
X148313Y149894D02*
Y153893D01*
X149313D01*
X150312Y152893D01*
Y149894D01*
Y152893D01*
X151312Y153893D01*
X152312Y152893D01*
Y149894D01*
X154311D02*
X156310D01*
X155311D01*
Y153893D01*
X154311D01*
X159309Y149894D02*
X161309D01*
X160309D01*
Y155892D01*
X159309D01*
X172305Y149894D02*
X170306Y151893D01*
Y153893D01*
X172305Y155892D01*
X175304Y154893D02*
X176304Y155892D01*
X178303D01*
X179303Y154893D01*
Y150894D01*
X178303Y149894D01*
X176304D01*
X175304Y150894D01*
Y154893D01*
X181302Y149894D02*
Y150894D01*
X182302D01*
Y149894D01*
X181302D01*
X190299D02*
X186301D01*
X190299Y153893D01*
Y154893D01*
X189300Y155892D01*
X187300D01*
X186301Y154893D01*
X196298Y155892D02*
X192299D01*
Y152893D01*
X194298Y153893D01*
X195298D01*
X196298Y152893D01*
Y150894D01*
X195298Y149894D01*
X193298D01*
X192299Y150894D01*
X201296Y149894D02*
Y155892D01*
X198297Y152893D01*
X202295D01*
X204295Y149894D02*
Y153893D01*
X205294D01*
X206294Y152893D01*
Y149894D01*
Y152893D01*
X207294Y153893D01*
X208294Y152893D01*
Y149894D01*
X210293D02*
Y153893D01*
X211293D01*
X212292Y152893D01*
Y149894D01*
Y152893D01*
X213292Y153893D01*
X214292Y152893D01*
Y149894D01*
X216291D02*
X218290Y151893D01*
Y153893D01*
X216291Y155892D01*
X61338Y134894D02*
X63337D01*
X62337D01*
Y140892D01*
X61338Y139893D01*
X70335Y134894D02*
X66336D01*
X70335Y138893D01*
Y139893D01*
X69335Y140892D01*
X67336D01*
X66336Y139893D01*
X72334D02*
X73334Y140892D01*
X75333D01*
X76333Y139893D01*
Y138893D01*
X75333Y137893D01*
X74333D01*
X75333D01*
X76333Y136893D01*
Y135894D01*
X75333Y134894D01*
X73334D01*
X72334Y135894D01*
X84330Y140892D02*
X88329D01*
X86330D01*
Y134894D01*
X91328D02*
X93327D01*
X94327Y135894D01*
Y137893D01*
X93327Y138893D01*
X91328D01*
X90328Y137893D01*
Y135894D01*
X91328Y134894D01*
X97326Y139893D02*
Y138893D01*
X96326D01*
X98326D01*
X97326D01*
Y135894D01*
X98326Y134894D01*
X102324Y138893D02*
X104324D01*
X105323Y137893D01*
Y134894D01*
X102324D01*
X101325Y135894D01*
X102324Y136893D01*
X105323D01*
X107323Y134894D02*
X109322D01*
X108322D01*
Y140892D01*
X107323D01*
X65336Y194894D02*
X61338D01*
X65336Y198893D01*
Y199893D01*
X64337Y200892D01*
X62337D01*
X61338Y199893D01*
X65336Y179894D02*
X61338D01*
X65336Y183893D01*
Y184893D01*
X64337Y185892D01*
X62337D01*
X61338Y184893D01*
X65336Y164894D02*
X61338D01*
X65336Y168893D01*
Y169893D01*
X64337Y170892D01*
X62337D01*
X61338Y169893D01*
Y149894D02*
X63337D01*
X62337D01*
Y155892D01*
X61338Y154893D01*
X66336Y149894D02*
X68335D01*
X67336D01*
Y155892D01*
X66336Y154893D01*
X71334Y155892D02*
X75333D01*
Y154893D01*
X71334Y150894D01*
Y149894D01*
X189297Y112399D02*
X193296D01*
X189297Y114398D02*
X193296D01*
X201293Y110399D02*
Y116397D01*
X204292D01*
X205292Y115398D01*
Y113398D01*
X204292Y112399D01*
X201293D01*
X203292D02*
X205292Y110399D01*
X208291D02*
X210290D01*
X211290Y111399D01*
Y113398D01*
X210290Y114398D01*
X208291D01*
X207291Y113398D01*
Y111399D01*
X208291Y110399D01*
X213289Y114398D02*
Y111399D01*
X214289Y110399D01*
X217288D01*
Y114398D01*
X220287Y115398D02*
Y114398D01*
X219287D01*
X221287D01*
X220287D01*
Y111399D01*
X221287Y110399D01*
X227285D02*
X225285D01*
X224286Y111399D01*
Y113398D01*
X225285Y114398D01*
X227285D01*
X228284Y113398D01*
Y112399D01*
X224286D01*
X234282Y116397D02*
Y110399D01*
X231283D01*
X230284Y111399D01*
Y113398D01*
X231283Y114398D01*
X234282D01*
X242280Y110399D02*
Y116397D01*
X245279D01*
X246279Y115398D01*
Y113398D01*
X245279Y112399D01*
X242280D01*
X249278Y114398D02*
X251277D01*
X252277Y113398D01*
Y110399D01*
X249278D01*
X248278Y111399D01*
X249278Y112399D01*
X252277D01*
X255276Y115398D02*
Y114398D01*
X254276D01*
X256275D01*
X255276D01*
Y111399D01*
X256275Y110399D01*
X259274Y116397D02*
Y110399D01*
Y113398D01*
X260274Y114398D01*
X262273D01*
X263273Y113398D01*
Y110399D01*
X271270Y116397D02*
Y110399D01*
X275269D01*
X280268D02*
X278268D01*
X277269Y111399D01*
Y113398D01*
X278268Y114398D01*
X280268D01*
X281267Y113398D01*
Y112399D01*
X277269D01*
X283267Y110399D02*
Y114398D01*
X286266D01*
X287265Y113398D01*
Y110399D01*
X291264Y108400D02*
X292264D01*
X293263Y109400D01*
Y114398D01*
X290264D01*
X289265Y113398D01*
Y111399D01*
X290264Y110399D01*
X293263D01*
X296262Y115398D02*
Y114398D01*
X295263D01*
X297262D01*
X296262D01*
Y111399D01*
X297262Y110399D01*
X300261Y116397D02*
Y110399D01*
Y113398D01*
X301261Y114398D01*
X303260D01*
X304260Y113398D01*
Y110399D01*
X312257Y113398D02*
X316256D01*
X314257Y115398D02*
Y111399D01*
X324253Y116397D02*
X328252D01*
X326253D01*
Y110399D01*
X331251D02*
X333250D01*
X334250Y111399D01*
Y113398D01*
X333250Y114398D01*
X331251D01*
X330251Y113398D01*
Y111399D01*
X331251Y110399D01*
X337249D02*
X339248D01*
X340248Y111399D01*
Y113398D01*
X339248Y114398D01*
X337249D01*
X336249Y113398D01*
Y111399D01*
X337249Y110399D01*
X342248D02*
X344247D01*
X343247D01*
Y116397D01*
X342248D01*
X357243Y115398D02*
X356243Y116397D01*
X354244D01*
X353244Y115398D01*
Y114398D01*
X354244Y113398D01*
X356243D01*
X357243Y112399D01*
Y111399D01*
X356243Y110399D01*
X354244D01*
X353244Y111399D01*
X359242Y110399D02*
X361241D01*
X360242D01*
Y114398D01*
X359242D01*
X364240D02*
X368239D01*
X364240Y110399D01*
X368239D01*
X373237D02*
X371238D01*
X370238Y111399D01*
Y113398D01*
X371238Y114398D01*
X373237D01*
X374237Y113398D01*
Y112399D01*
X370238D01*
X382235D02*
X386233D01*
X382235Y114398D02*
X386233D01*
X398229Y115398D02*
X397230Y116397D01*
X395230D01*
X394231Y115398D01*
Y114398D01*
X395230Y113398D01*
X397230D01*
X398229Y112399D01*
Y111399D01*
X397230Y110399D01*
X395230D01*
X394231Y111399D01*
X400229Y110399D02*
X402228D01*
X401228D01*
Y116397D01*
X400229D01*
X406227Y110399D02*
X408226D01*
X409226Y111399D01*
Y113398D01*
X408226Y114398D01*
X406227D01*
X405227Y113398D01*
Y111399D01*
X406227Y110399D01*
X412225Y115398D02*
Y114398D01*
X411225D01*
X413225D01*
X412225D01*
Y111399D01*
X413225Y110399D01*
X422222D02*
X424221D01*
X423221D01*
Y116397D01*
X422222D01*
X430219Y110399D02*
X428220D01*
X427220Y111399D01*
Y113398D01*
X428220Y114398D01*
X430219D01*
X431219Y113398D01*
Y112399D01*
X427220D01*
X433218Y110399D02*
Y114398D01*
X436217D01*
X437217Y113398D01*
Y110399D01*
X441215Y108400D02*
X442215D01*
X443215Y109400D01*
Y114398D01*
X440216D01*
X439216Y113398D01*
Y111399D01*
X440216Y110399D01*
X443215D01*
X446214Y115398D02*
Y114398D01*
X445214D01*
X447214D01*
X446214D01*
Y111399D01*
X447214Y110399D01*
X450212Y116397D02*
Y110399D01*
Y113398D01*
X451212Y114398D01*
X453212D01*
X454211Y113398D01*
Y110399D01*
X463208Y114398D02*
X465208D01*
X466207Y113398D01*
Y110399D01*
X463208D01*
X462209Y111399D01*
X463208Y112399D01*
X466207D01*
X468207Y110399D02*
X471206D01*
X472205Y111399D01*
X471206Y112399D01*
X469206D01*
X468207Y113398D01*
X469206Y114398D01*
X472205D01*
X484201Y116397D02*
Y110399D01*
X481203D01*
X480203Y111399D01*
Y113398D01*
X481203Y114398D01*
X484201D01*
X489200Y110399D02*
X487201D01*
X486201Y111399D01*
Y113398D01*
X487201Y114398D01*
X489200D01*
X490200Y113398D01*
Y112399D01*
X486201D01*
X493199Y110399D02*
Y115398D01*
Y113398D01*
X492199D01*
X494198D01*
X493199D01*
Y115398D01*
X494198Y116397D01*
X497197Y110399D02*
X499197D01*
X498197D01*
Y114398D01*
X497197D01*
X502196Y110399D02*
Y114398D01*
X505195D01*
X506194Y113398D01*
Y110399D01*
X511193D02*
X509194D01*
X508194Y111399D01*
Y113398D01*
X509194Y114398D01*
X511193D01*
X512192Y113398D01*
Y112399D01*
X508194D01*
X518190Y116397D02*
Y110399D01*
X515192D01*
X514192Y111399D01*
Y113398D01*
X515192Y114398D01*
X518190D01*
X526188Y110399D02*
X528187D01*
X527188D01*
Y114398D01*
X526188D01*
X531186Y110399D02*
Y114398D01*
X534185D01*
X535185Y113398D01*
Y110399D01*
X544182Y115398D02*
Y114398D01*
X543182D01*
X545182D01*
X544182D01*
Y111399D01*
X545182Y110399D01*
X548181Y116397D02*
Y110399D01*
Y113398D01*
X549181Y114398D01*
X551180D01*
X552179Y113398D01*
Y110399D01*
X557178D02*
X555179D01*
X554179Y111399D01*
Y113398D01*
X555179Y114398D01*
X557178D01*
X558178Y113398D01*
Y112399D01*
X554179D01*
X566175Y110399D02*
Y116397D01*
X569174D01*
X570174Y115398D01*
Y113398D01*
X569174Y112399D01*
X566175D01*
X576172Y115398D02*
X575172Y116397D01*
X573173D01*
X572173Y115398D01*
Y111399D01*
X573173Y110399D01*
X575172D01*
X576172Y111399D01*
X578171Y116397D02*
Y110399D01*
X581170D01*
X582170Y111399D01*
Y112399D01*
X581170Y113398D01*
X578171D01*
X581170D01*
X582170Y114398D01*
Y115398D01*
X581170Y116397D01*
X578171D01*
X590167Y110399D02*
X592167D01*
X591167D01*
Y116397D01*
X590167D01*
X596165Y114398D02*
X598165D01*
X599164Y113398D01*
Y110399D01*
X596165D01*
X595166Y111399D01*
X596165Y112399D01*
X599164D01*
X601164Y114398D02*
Y111399D01*
X602163Y110399D01*
X605162D01*
Y109400D01*
X604163Y108400D01*
X603163D01*
X605162Y110399D02*
Y114398D01*
X608161Y110399D02*
X610161D01*
X611161Y111399D01*
Y113398D01*
X610161Y114398D01*
X608161D01*
X607162Y113398D01*
Y111399D01*
X608161Y110399D01*
X613160Y114398D02*
Y111399D01*
X614159Y110399D01*
X617159D01*
Y114398D01*
X620157Y115398D02*
Y114398D01*
X619158D01*
X621157D01*
X620157D01*
Y111399D01*
X621157Y110399D01*
X224286Y122396D02*
X228284D01*
X224286Y124396D02*
X228284D01*
X240281Y125395D02*
X239281Y126395D01*
X237281D01*
X236282Y125395D01*
Y121396D01*
X237281Y120397D01*
X239281D01*
X240281Y121396D01*
X243280Y124396D02*
X245279D01*
X246279Y123396D01*
Y120397D01*
X243280D01*
X242280Y121396D01*
X243280Y122396D01*
X246279D01*
X248278Y120397D02*
X250277D01*
X249278D01*
Y126395D01*
X248278D01*
X257275Y124396D02*
X254276D01*
X253276Y123396D01*
Y121396D01*
X254276Y120397D01*
X257275D01*
X259274Y124396D02*
Y121396D01*
X260274Y120397D01*
X263273D01*
Y124396D01*
X265272Y120397D02*
X267272D01*
X266272D01*
Y126395D01*
X265272D01*
X271270Y124396D02*
X273270D01*
X274270Y123396D01*
Y120397D01*
X271270D01*
X270271Y121396D01*
X271270Y122396D01*
X274270D01*
X277269Y125395D02*
Y124396D01*
X276269D01*
X278268D01*
X277269D01*
Y121396D01*
X278268Y120397D01*
X284266D02*
X282267D01*
X281267Y121396D01*
Y123396D01*
X282267Y124396D01*
X284266D01*
X285266Y123396D01*
Y122396D01*
X281267D01*
X291264Y126395D02*
Y120397D01*
X288265D01*
X287265Y121396D01*
Y123396D01*
X288265Y124396D01*
X291264D01*
X300261Y120397D02*
Y125395D01*
Y123396D01*
X299261D01*
X301261D01*
X300261D01*
Y125395D01*
X301261Y126395D01*
X304260Y124396D02*
Y120397D01*
Y122396D01*
X305259Y123396D01*
X306259Y124396D01*
X307259D01*
X311258Y120397D02*
X313257D01*
X314257Y121396D01*
Y123396D01*
X313257Y124396D01*
X311258D01*
X310258Y123396D01*
Y121396D01*
X311258Y120397D01*
X316256D02*
Y124396D01*
X317255D01*
X318255Y123396D01*
Y120397D01*
Y123396D01*
X319255Y124396D01*
X320255Y123396D01*
Y120397D01*
X329252Y125395D02*
Y124396D01*
X328252D01*
X330251D01*
X329252D01*
Y121396D01*
X330251Y120397D01*
X334250D02*
X336249D01*
X337249Y121396D01*
Y123396D01*
X336249Y124396D01*
X334250D01*
X333250Y123396D01*
Y121396D01*
X334250Y120397D01*
X340248D02*
X342248D01*
X343247Y121396D01*
Y123396D01*
X342248Y124396D01*
X340248D01*
X339248Y123396D01*
Y121396D01*
X340248Y120397D01*
X345247D02*
X347246D01*
X346246D01*
Y126395D01*
X345247D01*
X356243Y120397D02*
X359242D01*
X360242Y121396D01*
X359242Y122396D01*
X357243D01*
X356243Y123396D01*
X357243Y124396D01*
X360242D01*
X363241Y125395D02*
Y124396D01*
X362241D01*
X364240D01*
X363241D01*
Y121396D01*
X364240Y120397D01*
X368239Y124396D02*
X370238D01*
X371238Y123396D01*
Y120397D01*
X368239D01*
X367239Y121396D01*
X368239Y122396D01*
X371238D01*
X373237Y124396D02*
Y120397D01*
Y122396D01*
X374237Y123396D01*
X375237Y124396D01*
X376237D01*
X380235Y125395D02*
Y124396D01*
X379236D01*
X381235D01*
X380235D01*
Y121396D01*
X381235Y120397D01*
X394231Y124396D02*
X391232D01*
X390232Y123396D01*
Y121396D01*
X391232Y120397D01*
X394231D01*
X399229D02*
X397230D01*
X396230Y121396D01*
Y123396D01*
X397230Y124396D01*
X399229D01*
X400229Y123396D01*
Y122396D01*
X396230D01*
X402228Y120397D02*
Y124396D01*
X405227D01*
X406227Y123396D01*
Y120397D01*
X409226Y125395D02*
Y124396D01*
X408226D01*
X410225D01*
X409226D01*
Y121396D01*
X410225Y120397D01*
X413225Y124396D02*
Y120397D01*
Y122396D01*
X414224Y123396D01*
X415224Y124396D01*
X416223D01*
X422222Y120397D02*
X420222D01*
X419222Y121396D01*
Y123396D01*
X420222Y124396D01*
X422222D01*
X423221Y123396D01*
Y122396D01*
X419222D01*
X431219Y118397D02*
Y124396D01*
X434218D01*
X435217Y123396D01*
Y121396D01*
X434218Y120397D01*
X431219D01*
X438216D02*
X440216D01*
X441215Y121396D01*
Y123396D01*
X440216Y124396D01*
X438216D01*
X437217Y123396D01*
Y121396D01*
X438216Y120397D01*
X443215D02*
X446214D01*
X447214Y121396D01*
X446214Y122396D01*
X444214D01*
X443215Y123396D01*
X444214Y124396D01*
X447214D01*
X449213Y120397D02*
X451212D01*
X450212D01*
Y124396D01*
X449213D01*
X455211Y125395D02*
Y124396D01*
X454211D01*
X456211D01*
X455211D01*
Y121396D01*
X456211Y120397D01*
X459210D02*
X461209D01*
X460209D01*
Y124396D01*
X459210D01*
X465208Y120397D02*
X467207D01*
X468207Y121396D01*
Y123396D01*
X467207Y124396D01*
X465208D01*
X464208Y123396D01*
Y121396D01*
X465208Y120397D01*
X470206D02*
Y124396D01*
X473205D01*
X474205Y123396D01*
Y120397D01*
X483202Y125395D02*
Y124396D01*
X482202D01*
X484201D01*
X483202D01*
Y121396D01*
X484201Y120397D01*
X488200D02*
X490200D01*
X491199Y121396D01*
Y123396D01*
X490200Y124396D01*
X488200D01*
X487201Y123396D01*
Y121396D01*
X488200Y120397D01*
X500196Y125395D02*
Y124396D01*
X499197D01*
X501196D01*
X500196D01*
Y121396D01*
X501196Y120397D01*
X505195D02*
X507194D01*
X508194Y121396D01*
Y123396D01*
X507194Y124396D01*
X505195D01*
X504195Y123396D01*
Y121396D01*
X505195Y120397D01*
X511193D02*
X513192D01*
X514192Y121396D01*
Y123396D01*
X513192Y124396D01*
X511193D01*
X510193Y123396D01*
Y121396D01*
X511193Y120397D01*
X516191D02*
X518190D01*
X517191D01*
Y126395D01*
X516191D01*
X530187Y120397D02*
X528187D01*
X527188Y121396D01*
Y123396D01*
X528187Y124396D01*
X530187D01*
X531186Y123396D01*
Y122396D01*
X527188D01*
X533186Y120397D02*
Y124396D01*
X536185D01*
X537184Y123396D01*
Y120397D01*
X543182Y126395D02*
Y120397D01*
X540183D01*
X539184Y121396D01*
Y123396D01*
X540183Y124396D01*
X543182D01*
X555179D02*
X552179D01*
X551180Y123396D01*
Y121396D01*
X552179Y120397D01*
X555179D01*
X560177D02*
X558178D01*
X557178Y121396D01*
Y123396D01*
X558178Y124396D01*
X560177D01*
X561177Y123396D01*
Y122396D01*
X557178D01*
X563176Y120397D02*
Y124396D01*
X566175D01*
X567175Y123396D01*
Y120397D01*
X570174Y125395D02*
Y124396D01*
X569174D01*
X571173D01*
X570174D01*
Y121396D01*
X571173Y120397D01*
X574172Y124396D02*
Y120397D01*
Y122396D01*
X575172Y123396D01*
X576172Y124396D01*
X577171D01*
X583170Y120397D02*
X581170D01*
X580170Y121396D01*
Y123396D01*
X581170Y124396D01*
X583170D01*
X584169Y123396D01*
Y122396D01*
X580170D01*
X592167Y118397D02*
Y124396D01*
X595166D01*
X596165Y123396D01*
Y121396D01*
X595166Y120397D01*
X592167D01*
X599164D02*
X601164D01*
X602163Y121396D01*
Y123396D01*
X601164Y124396D01*
X599164D01*
X598165Y123396D01*
Y121396D01*
X599164Y120397D01*
X604163D02*
X607162D01*
X608161Y121396D01*
X607162Y122396D01*
X605162D01*
X604163Y123396D01*
X605162Y124396D01*
X608161D01*
X610161Y120397D02*
X612160D01*
X611161D01*
Y124396D01*
X610161D01*
X616159Y125395D02*
Y124396D01*
X615159D01*
X617159D01*
X616159D01*
Y121396D01*
X617159Y120397D01*
X620157D02*
X622157D01*
X621157D01*
Y124396D01*
X620157D01*
X626156Y120397D02*
X628155D01*
X629155Y121396D01*
Y123396D01*
X628155Y124396D01*
X626156D01*
X625156Y123396D01*
Y121396D01*
X626156Y120397D01*
X631154D02*
Y124396D01*
X634153D01*
X635153Y123396D01*
Y120397D01*
X637152D02*
Y121396D01*
X638152D01*
Y120397D01*
X637152D01*
D81*
X1750Y205394D02*
X1322579D01*
X1750Y145394D02*
X1322579D01*
X1750Y130394D02*
X1322579D01*
Y220394D01*
X1750D02*
X1322579D01*
X1750Y130394D02*
Y220394D01*
X1182319Y130394D02*
Y220394D01*
X1073351Y130394D02*
Y220394D01*
X939990Y130394D02*
Y220394D01*
X806629Y130394D02*
Y220394D01*
X721253Y130394D02*
Y220394D01*
X602288Y130394D02*
Y220394D01*
X527708Y130394D02*
Y220394D01*
X468723Y130394D02*
Y220394D01*
X349758Y130394D02*
Y220394D01*
X276378Y130394D02*
Y220394D01*
X225790Y130394D02*
Y220394D01*
X115822Y130394D02*
Y220394D01*
X56838Y130394D02*
Y220394D01*
D82*
X1186819Y209894D02*
Y217092D01*
X1190418D01*
X1191618Y215892D01*
Y213493D01*
X1190418Y212293D01*
X1186819D01*
X1189218D02*
X1191618Y209894D01*
X1195216D02*
X1197616D01*
X1198815Y211094D01*
Y213493D01*
X1197616Y214693D01*
X1195216D01*
X1194017Y213493D01*
Y211094D01*
X1195216Y209894D01*
X1201215Y214693D02*
Y211094D01*
X1202414Y209894D01*
X1206013D01*
Y214693D01*
X1209612Y215892D02*
Y214693D01*
X1208412D01*
X1210811D01*
X1209612D01*
Y211094D01*
X1210811Y209894D01*
X1218009D02*
X1215610D01*
X1214410Y211094D01*
Y213493D01*
X1215610Y214693D01*
X1218009D01*
X1219209Y213493D01*
Y212293D01*
X1214410D01*
X1226406Y217092D02*
Y209894D01*
X1222808D01*
X1221608Y211094D01*
Y213493D01*
X1222808Y214693D01*
X1226406D01*
X1236003Y209894D02*
Y217092D01*
X1239602D01*
X1240802Y215892D01*
Y213493D01*
X1239602Y212293D01*
X1236003D01*
X1244401Y214693D02*
X1246800D01*
X1247999Y213493D01*
Y209894D01*
X1244401D01*
X1243201Y211094D01*
X1244401Y212293D01*
X1247999D01*
X1251598Y215892D02*
Y214693D01*
X1250399D01*
X1252798D01*
X1251598D01*
Y211094D01*
X1252798Y209894D01*
X1256397Y217092D02*
Y209894D01*
Y213493D01*
X1257596Y214693D01*
X1259995D01*
X1261195Y213493D01*
Y209894D01*
X1270792Y217092D02*
Y209894D01*
X1275590D01*
X1281588D02*
X1279189D01*
X1277990Y211094D01*
Y213493D01*
X1279189Y214693D01*
X1281588D01*
X1282788Y213493D01*
Y212293D01*
X1277990D01*
X1285187Y209894D02*
Y214693D01*
X1288786D01*
X1289986Y213493D01*
Y209894D01*
X1294784Y207495D02*
X1295984D01*
X1297183Y208695D01*
Y214693D01*
X1293585D01*
X1292385Y213493D01*
Y211094D01*
X1293585Y209894D01*
X1297183D01*
X1300782Y215892D02*
Y214693D01*
X1299583D01*
X1301982D01*
X1300782D01*
Y211094D01*
X1301982Y209894D01*
X1305581Y217092D02*
Y209894D01*
Y213493D01*
X1306780Y214693D01*
X1309180D01*
X1310379Y213493D01*
Y209894D01*
X1077851Y217092D02*
Y209894D01*
Y213493D01*
X1082649D01*
Y217092D01*
Y209894D01*
X1086248D02*
X1088647D01*
X1089847Y211094D01*
Y213493D01*
X1088647Y214693D01*
X1086248D01*
X1085048Y213493D01*
Y211094D01*
X1086248Y209894D01*
X1092246D02*
X1094645D01*
X1093446D01*
Y217092D01*
X1092246D01*
X1101843Y209894D02*
X1099444D01*
X1098244Y211094D01*
Y213493D01*
X1099444Y214693D01*
X1101843D01*
X1103043Y213493D01*
Y212293D01*
X1098244D01*
X1112640Y217092D02*
Y209894D01*
X1117438D01*
X1123436D02*
X1121037D01*
X1119837Y211094D01*
Y213493D01*
X1121037Y214693D01*
X1123436D01*
X1124636Y213493D01*
Y212293D01*
X1119837D01*
X1127035Y209894D02*
Y214693D01*
X1130634D01*
X1131833Y213493D01*
Y209894D01*
X1136632Y207495D02*
X1137831D01*
X1139031Y208695D01*
Y214693D01*
X1135432D01*
X1134233Y213493D01*
Y211094D01*
X1135432Y209894D01*
X1139031D01*
X1142630Y215892D02*
Y214693D01*
X1141430D01*
X1143830D01*
X1142630D01*
Y211094D01*
X1143830Y209894D01*
X1147428Y217092D02*
Y209894D01*
Y213493D01*
X1148628Y214693D01*
X1151027D01*
X1152227Y213493D01*
Y209894D01*
X944490Y217092D02*
Y209894D01*
Y213493D01*
X949288D01*
Y217092D01*
Y209894D01*
X952887D02*
X955287D01*
X956486Y211094D01*
Y213493D01*
X955287Y214693D01*
X952887D01*
X951688Y213493D01*
Y211094D01*
X952887Y209894D01*
X958885D02*
X961285D01*
X960085D01*
Y217092D01*
X958885D01*
X968482Y209894D02*
X966083D01*
X964884Y211094D01*
Y213493D01*
X966083Y214693D01*
X968482D01*
X969682Y213493D01*
Y212293D01*
X964884D01*
X979279Y217092D02*
X984077D01*
X981678D01*
Y209894D01*
X987676D02*
X990075D01*
X991275Y211094D01*
Y213493D01*
X990075Y214693D01*
X987676D01*
X986477Y213493D01*
Y211094D01*
X987676Y209894D01*
X993674D02*
X996073D01*
X994874D01*
Y217092D01*
X993674D01*
X1003271Y209894D02*
X1000872D01*
X999672Y211094D01*
Y213493D01*
X1000872Y214693D01*
X1003271D01*
X1004471Y213493D01*
Y212293D01*
X999672D01*
X1006870Y214693D02*
Y209894D01*
Y212293D01*
X1008070Y213493D01*
X1009269Y214693D01*
X1010469D01*
X1015267D02*
X1017666D01*
X1018866Y213493D01*
Y209894D01*
X1015267D01*
X1014068Y211094D01*
X1015267Y212293D01*
X1018866D01*
X1021265Y209894D02*
Y214693D01*
X1024864D01*
X1026064Y213493D01*
Y209894D01*
X1033261Y214693D02*
X1029663D01*
X1028463Y213493D01*
Y211094D01*
X1029663Y209894D01*
X1033261D01*
X1039259D02*
X1036860D01*
X1035661Y211094D01*
Y213493D01*
X1036860Y214693D01*
X1039259D01*
X1040459Y213493D01*
Y212293D01*
X1035661D01*
X1052455Y209894D02*
X1050056Y212293D01*
Y214693D01*
X1052455Y217092D01*
X1056054Y213493D02*
X1060852D01*
X1063252Y209894D02*
X1065651Y212293D01*
Y214693D01*
X1063252Y217092D01*
X811129D02*
Y209894D01*
Y213493D01*
X815928D01*
Y217092D01*
Y209894D01*
X819527D02*
X821926D01*
X823125Y211094D01*
Y213493D01*
X821926Y214693D01*
X819527D01*
X818327Y213493D01*
Y211094D01*
X819527Y209894D01*
X825525D02*
X827924D01*
X826724D01*
Y217092D01*
X825525D01*
X835122Y209894D02*
X832722D01*
X831523Y211094D01*
Y213493D01*
X832722Y214693D01*
X835122D01*
X836321Y213493D01*
Y212293D01*
X831523D01*
X845918Y217092D02*
X850716D01*
X848317D01*
Y209894D01*
X854315D02*
X856715D01*
X857914Y211094D01*
Y213493D01*
X856715Y214693D01*
X854315D01*
X853116Y213493D01*
Y211094D01*
X854315Y209894D01*
X860313D02*
X862713D01*
X861513D01*
Y217092D01*
X860313D01*
X869910Y209894D02*
X867511D01*
X866311Y211094D01*
Y213493D01*
X867511Y214693D01*
X869910D01*
X871110Y213493D01*
Y212293D01*
X866311D01*
X873509Y214693D02*
Y209894D01*
Y212293D01*
X874709Y213493D01*
X875908Y214693D01*
X877108D01*
X881906D02*
X884306D01*
X885505Y213493D01*
Y209894D01*
X881906D01*
X880707Y211094D01*
X881906Y212293D01*
X885505D01*
X887904Y209894D02*
Y214693D01*
X891503D01*
X892703Y213493D01*
Y209894D01*
X899901Y214693D02*
X896302D01*
X895102Y213493D01*
Y211094D01*
X896302Y209894D01*
X899901D01*
X905899D02*
X903499D01*
X902300Y211094D01*
Y213493D01*
X903499Y214693D01*
X905899D01*
X907098Y213493D01*
Y212293D01*
X902300D01*
X919094Y209894D02*
X916695Y212293D01*
Y214693D01*
X919094Y217092D01*
X922693Y213493D02*
X927492D01*
X925092Y215892D02*
Y211094D01*
X929891Y209894D02*
X932290Y212293D01*
Y214693D01*
X929891Y217092D01*
X725753D02*
Y209894D01*
X729352D01*
X730551Y211094D01*
Y215892D01*
X729352Y217092D01*
X725753D01*
X736550Y209894D02*
X734150D01*
X732951Y211094D01*
Y213493D01*
X734150Y214693D01*
X736550D01*
X737749Y213493D01*
Y212293D01*
X732951D01*
X740148Y209894D02*
X743747D01*
X744947Y211094D01*
X743747Y212293D01*
X741348D01*
X740148Y213493D01*
X741348Y214693D01*
X744947D01*
X752144D02*
X748546D01*
X747346Y213493D01*
Y211094D01*
X748546Y209894D01*
X752144D01*
X754544Y214693D02*
Y209894D01*
Y212293D01*
X755743Y213493D01*
X756943Y214693D01*
X758143D01*
X761741Y209894D02*
X764141D01*
X762941D01*
Y214693D01*
X761741D01*
X767739Y207495D02*
Y214693D01*
X771338D01*
X772538Y213493D01*
Y211094D01*
X771338Y209894D01*
X767739D01*
X776137Y215892D02*
Y214693D01*
X774937D01*
X777336D01*
X776137D01*
Y211094D01*
X777336Y209894D01*
X780935D02*
X783334D01*
X782135D01*
Y214693D01*
X780935D01*
X788133Y209894D02*
X790532D01*
X791732Y211094D01*
Y213493D01*
X790532Y214693D01*
X788133D01*
X786933Y213493D01*
Y211094D01*
X788133Y209894D01*
X794131D02*
Y214693D01*
X797730D01*
X798929Y213493D01*
Y209894D01*
X606788Y217092D02*
X611586D01*
X609187D01*
Y209894D01*
X617584D02*
X615185D01*
X613986Y211094D01*
Y213493D01*
X615185Y214693D01*
X617584D01*
X618784Y213493D01*
Y212293D01*
X613986D01*
X621183Y209894D02*
Y214693D01*
X622383D01*
X623583Y213493D01*
Y209894D01*
Y213493D01*
X624782Y214693D01*
X625982Y213493D01*
Y209894D01*
X628381Y207495D02*
Y214693D01*
X631980D01*
X633179Y213493D01*
Y211094D01*
X631980Y209894D01*
X628381D01*
X635579D02*
X637978D01*
X636778D01*
Y217092D01*
X635579D01*
X642776Y214693D02*
X645176D01*
X646375Y213493D01*
Y209894D01*
X642776D01*
X641577Y211094D01*
X642776Y212293D01*
X646375D01*
X649974Y215892D02*
Y214693D01*
X648774D01*
X651173D01*
X649974D01*
Y211094D01*
X651173Y209894D01*
X658371D02*
X655972D01*
X654772Y211094D01*
Y213493D01*
X655972Y214693D01*
X658371D01*
X659571Y213493D01*
Y212293D01*
X654772D01*
X532208Y209894D02*
Y217092D01*
X535807D01*
X537007Y215892D01*
Y213493D01*
X535807Y212293D01*
X532208D01*
X540605Y214693D02*
X543005D01*
X544204Y213493D01*
Y209894D01*
X540605D01*
X539406Y211094D01*
X540605Y212293D01*
X544204D01*
X551402Y217092D02*
Y209894D01*
X547803D01*
X546603Y211094D01*
Y213493D01*
X547803Y214693D01*
X551402D01*
X565797Y215892D02*
X564598Y217092D01*
X562198D01*
X560999Y215892D01*
Y214693D01*
X562198Y213493D01*
X564598D01*
X565797Y212293D01*
Y211094D01*
X564598Y209894D01*
X562198D01*
X560999Y211094D01*
X568196Y217092D02*
Y209894D01*
Y213493D01*
X569396Y214693D01*
X571795D01*
X572995Y213493D01*
Y209894D01*
X576594Y214693D02*
X578993D01*
X580193Y213493D01*
Y209894D01*
X576594D01*
X575394Y211094D01*
X576594Y212293D01*
X580193D01*
X582592Y207495D02*
Y214693D01*
X586191D01*
X587390Y213493D01*
Y211094D01*
X586191Y209894D01*
X582592D01*
X593388D02*
X590989D01*
X589789Y211094D01*
Y213493D01*
X590989Y214693D01*
X593388D01*
X594588Y213493D01*
Y212293D01*
X589789D01*
X473223Y217092D02*
Y212293D01*
X475623Y209894D01*
X478022Y212293D01*
Y217092D01*
X480421Y209894D02*
X482820D01*
X481621D01*
Y214693D01*
X480421D01*
X487619D02*
X490018D01*
X491217Y213493D01*
Y209894D01*
X487619D01*
X486419Y211094D01*
X487619Y212293D01*
X491217D01*
X493617Y209894D02*
X498415Y214693D01*
X500814Y209894D02*
Y217092D01*
X504413D01*
X505613Y215892D01*
Y213493D01*
X504413Y212293D01*
X500814D01*
X509212Y214693D02*
X511611D01*
X512810Y213493D01*
Y209894D01*
X509212D01*
X508012Y211094D01*
X509212Y212293D01*
X512810D01*
X520008Y217092D02*
Y209894D01*
X516409D01*
X515210Y211094D01*
Y213493D01*
X516409Y214693D01*
X520008D01*
X354258Y217092D02*
Y209894D01*
X357857D01*
X359056Y211094D01*
Y215892D01*
X357857Y217092D01*
X354258D01*
X361455Y214693D02*
Y209894D01*
Y212293D01*
X362655Y213493D01*
X363855Y214693D01*
X365054D01*
X368653Y209894D02*
X371052D01*
X369853D01*
Y214693D01*
X368653D01*
X374651Y209894D02*
X377050D01*
X375851D01*
Y217092D01*
X374651D01*
X380649Y209894D02*
X383049D01*
X381849D01*
Y217092D01*
X380649D01*
X393845D02*
Y209894D01*
X398643D01*
X402242Y214693D02*
X404641D01*
X405841Y213493D01*
Y209894D01*
X402242D01*
X401043Y211094D01*
X402242Y212293D01*
X405841D01*
X408240Y214693D02*
Y211094D01*
X409440Y209894D01*
X413039D01*
Y208695D01*
X411839Y207495D01*
X410639D01*
X413039Y209894D02*
Y214693D01*
X419037Y209894D02*
X416638D01*
X415438Y211094D01*
Y213493D01*
X416638Y214693D01*
X419037D01*
X420236Y213493D01*
Y212293D01*
X415438D01*
X422636Y214693D02*
Y209894D01*
Y212293D01*
X423835Y213493D01*
X425035Y214693D01*
X426234D01*
X437031Y209894D02*
Y217092D01*
X440630D01*
X441829Y215892D01*
Y213493D01*
X440630Y212293D01*
X437031D01*
X445428Y214693D02*
X447827D01*
X449027Y213493D01*
Y209894D01*
X445428D01*
X444229Y211094D01*
X445428Y212293D01*
X449027D01*
X451426Y209894D02*
X453826D01*
X452626D01*
Y214693D01*
X451426D01*
X457424D02*
Y209894D01*
Y212293D01*
X458624Y213493D01*
X459824Y214693D01*
X461023D01*
X280878Y217092D02*
Y209894D01*
Y213493D01*
X285676D01*
Y217092D01*
Y209894D01*
X289275D02*
X291674D01*
X292874Y211094D01*
Y213493D01*
X291674Y214693D01*
X289275D01*
X288075Y213493D01*
Y211094D01*
X289275Y209894D01*
X295273D02*
X297672D01*
X296473D01*
Y217092D01*
X295273D01*
X304870Y209894D02*
X302471D01*
X301271Y211094D01*
Y213493D01*
X302471Y214693D01*
X304870D01*
X306069Y213493D01*
Y212293D01*
X301271D01*
X315666Y217092D02*
X320465D01*
X318066D01*
Y209894D01*
X322864Y214693D02*
Y211094D01*
X324064Y209894D01*
X327662D01*
Y208695D01*
X326463Y207495D01*
X325263D01*
X327662Y209894D02*
Y214693D01*
X330062Y207495D02*
Y214693D01*
X333661D01*
X334860Y213493D01*
Y211094D01*
X333661Y209894D01*
X330062D01*
X340858D02*
X338459D01*
X337259Y211094D01*
Y213493D01*
X338459Y214693D01*
X340858D01*
X342058Y213493D01*
Y212293D01*
X337259D01*
X230290Y209894D02*
Y217092D01*
X233889D01*
X235088Y215892D01*
Y213493D01*
X233889Y212293D01*
X230290D01*
X237488Y209894D02*
X239887D01*
X238687D01*
Y217092D01*
X237488D01*
X244685Y214693D02*
X247085D01*
X248284Y213493D01*
Y209894D01*
X244685D01*
X243486Y211094D01*
X244685Y212293D01*
X248284D01*
X251883Y215892D02*
Y214693D01*
X250683D01*
X253083D01*
X251883D01*
Y211094D01*
X253083Y209894D01*
X260280D02*
X257881D01*
X256681Y211094D01*
Y213493D01*
X257881Y214693D01*
X260280D01*
X261480Y213493D01*
Y212293D01*
X256681D01*
X268678Y217092D02*
Y209894D01*
X265079D01*
X263879Y211094D01*
Y213493D01*
X265079Y214693D01*
X268678D01*
X120322Y217092D02*
Y209894D01*
Y213493D01*
X125120D01*
Y217092D01*
Y209894D01*
X128719D02*
X131119D01*
X132318Y211094D01*
Y213493D01*
X131119Y214693D01*
X128719D01*
X127520Y213493D01*
Y211094D01*
X128719Y209894D01*
X134717D02*
X137117D01*
X135917D01*
Y217092D01*
X134717D01*
X144314Y209894D02*
X141915D01*
X140715Y211094D01*
Y213493D01*
X141915Y214693D01*
X144314D01*
X145514Y213493D01*
Y212293D01*
X140715D01*
X159909Y215892D02*
X158710Y217092D01*
X156310D01*
X155111Y215892D01*
Y214693D01*
X156310Y213493D01*
X158710D01*
X159909Y212293D01*
Y211094D01*
X158710Y209894D01*
X156310D01*
X155111Y211094D01*
X162308Y209894D02*
X164708D01*
X163508D01*
Y214693D01*
X162308D01*
X168307D02*
X173105D01*
X168307Y209894D01*
X173105D01*
X179103D02*
X176704D01*
X175504Y211094D01*
Y213493D01*
X176704Y214693D01*
X179103D01*
X180303Y213493D01*
Y212293D01*
X175504D01*
X66136Y215892D02*
X64936Y217092D01*
X62537D01*
X61338Y215892D01*
Y211094D01*
X62537Y209894D01*
X64936D01*
X66136Y211094D01*
X69735Y209894D02*
X72134D01*
X73334Y211094D01*
Y213493D01*
X72134Y214693D01*
X69735D01*
X68535Y213493D01*
Y211094D01*
X69735Y209894D01*
X75733Y214693D02*
Y211094D01*
X76933Y209894D01*
X80531D01*
Y214693D01*
X82931Y209894D02*
Y214693D01*
X86529D01*
X87729Y213493D01*
Y209894D01*
X91328Y215892D02*
Y214693D01*
X90128D01*
X92528D01*
X91328D01*
Y211094D01*
X92528Y209894D01*
X15548Y215892D02*
X14349Y217092D01*
X11950D01*
X10750Y215892D01*
Y214693D01*
X11950Y213493D01*
X14349D01*
X15548Y212293D01*
Y211094D01*
X14349Y209894D01*
X11950D01*
X10750Y211094D01*
X17948Y214693D02*
Y211094D01*
X19147Y209894D01*
X22746D01*
Y208695D01*
X21546Y207495D01*
X20347D01*
X22746Y209894D02*
Y214693D01*
X25145Y209894D02*
Y214693D01*
X26345D01*
X27545Y213493D01*
Y209894D01*
Y213493D01*
X28744Y214693D01*
X29944Y213493D01*
Y209894D01*
X32343Y217092D02*
Y209894D01*
X35942D01*
X37141Y211094D01*
Y212293D01*
Y213493D01*
X35942Y214693D01*
X32343D01*
X40740Y209894D02*
X43139D01*
X44339Y211094D01*
Y213493D01*
X43139Y214693D01*
X40740D01*
X39541Y213493D01*
Y211094D01*
X40740Y209894D01*
X46738D02*
X49138D01*
X47938D01*
Y217092D01*
X46738D01*
D83*
X114019Y116397D02*
Y110399D01*
Y113398D01*
X118018D01*
Y116397D01*
Y110399D01*
X121017D02*
X123016D01*
X124016Y111399D01*
Y113398D01*
X123016Y114398D01*
X121017D01*
X120017Y113398D01*
Y111399D01*
X121017Y110399D01*
X126015D02*
X128014D01*
X127015D01*
Y116397D01*
X126015D01*
X134012Y110399D02*
X132013D01*
X131013Y111399D01*
Y113398D01*
X132013Y114398D01*
X134012D01*
X135012Y113398D01*
Y112399D01*
X131013D01*
X143010Y116397D02*
Y110399D01*
X147008D01*
X152007D02*
X150007D01*
X149008Y111399D01*
Y113398D01*
X150007Y114398D01*
X152007D01*
X153006Y113398D01*
Y112399D01*
X149008D01*
X155006Y110399D02*
Y114398D01*
X158005D01*
X159004Y113398D01*
Y110399D01*
X163003Y108400D02*
X164003D01*
X165002Y109400D01*
Y114398D01*
X162003D01*
X161004Y113398D01*
Y111399D01*
X162003Y110399D01*
X165002D01*
X168001Y115398D02*
Y114398D01*
X167002D01*
X169001D01*
X168001D01*
Y111399D01*
X169001Y110399D01*
X172000Y116397D02*
Y110399D01*
Y113398D01*
X173000Y114398D01*
X174999D01*
X175999Y113398D01*
Y110399D01*
X114019Y120397D02*
Y126395D01*
X117018D01*
X118018Y125395D01*
Y123396D01*
X117018Y122396D01*
X114019D01*
X116018D02*
X118018Y120397D01*
X121017D02*
X123016D01*
X124016Y121396D01*
Y123396D01*
X123016Y124396D01*
X121017D01*
X120017Y123396D01*
Y121396D01*
X121017Y120397D01*
X126015Y124396D02*
Y121396D01*
X127015Y120397D01*
X130014D01*
Y124396D01*
X133013Y125395D02*
Y124396D01*
X132013D01*
X134012D01*
X133013D01*
Y121396D01*
X134012Y120397D01*
X140010D02*
X138011D01*
X137012Y121396D01*
Y123396D01*
X138011Y124396D01*
X140010D01*
X141010Y123396D01*
Y122396D01*
X137012D01*
X147008Y126395D02*
Y120397D01*
X144009D01*
X143010Y121396D01*
Y123396D01*
X144009Y124396D01*
X147008D01*
X155006Y120397D02*
Y126395D01*
X158005D01*
X159004Y125395D01*
Y123396D01*
X158005Y122396D01*
X155006D01*
X162003Y124396D02*
X164003D01*
X165002Y123396D01*
Y120397D01*
X162003D01*
X161004Y121396D01*
X162003Y122396D01*
X165002D01*
X168001Y125395D02*
Y124396D01*
X167002D01*
X169001D01*
X168001D01*
Y121396D01*
X169001Y120397D01*
X172000Y126395D02*
Y120397D01*
Y123396D01*
X173000Y124396D01*
X174999D01*
X175999Y123396D01*
Y120397D01*
X183996Y126395D02*
Y120397D01*
X187995D01*
X192993D02*
X190994D01*
X189994Y121396D01*
Y123396D01*
X190994Y124396D01*
X192993D01*
X193993Y123396D01*
Y122396D01*
X189994D01*
X195992Y120397D02*
Y124396D01*
X198992D01*
X199991Y123396D01*
Y120397D01*
X203990Y118397D02*
X204990D01*
X205989Y119397D01*
Y124396D01*
X202990D01*
X201991Y123396D01*
Y121396D01*
X202990Y120397D01*
X205989D01*
X208988Y125395D02*
Y124396D01*
X207989D01*
X209988D01*
X208988D01*
Y121396D01*
X209988Y120397D01*
X212987Y126395D02*
Y120397D01*
Y123396D01*
X213987Y124396D01*
X215986D01*
X216986Y123396D01*
Y120397D01*
X14749Y125395D02*
X13749Y126395D01*
X11750D01*
X10750Y125395D01*
Y124396D01*
X11750Y123396D01*
X13749D01*
X14749Y122396D01*
Y121396D01*
X13749Y120397D01*
X11750D01*
X10750Y121396D01*
X16748Y120397D02*
X18747D01*
X17748D01*
Y126395D01*
X16748D01*
X22746Y120397D02*
X24746D01*
X25745Y121396D01*
Y123396D01*
X24746Y124396D01*
X22746D01*
X21746Y123396D01*
Y121396D01*
X22746Y120397D01*
X28744Y125395D02*
Y124396D01*
X27744D01*
X29744D01*
X28744D01*
Y121396D01*
X29744Y120397D01*
X42740Y126395D02*
Y120397D01*
X39741D01*
X38741Y121396D01*
Y123396D01*
X39741Y124396D01*
X42740D01*
X47738Y120397D02*
X45739D01*
X44739Y121396D01*
Y123396D01*
X45739Y124396D01*
X47738D01*
X48738Y123396D01*
Y122396D01*
X44739D01*
X51737Y120397D02*
Y125395D01*
Y123396D01*
X50737D01*
X52736D01*
X51737D01*
Y125395D01*
X52736Y126395D01*
X55735Y120397D02*
X57735D01*
X56735D01*
Y124396D01*
X55735D01*
X60734Y120397D02*
Y124396D01*
X63733D01*
X64732Y123396D01*
Y120397D01*
X66732D02*
X68731D01*
X67732D01*
Y124396D01*
X66732D01*
X72730Y125395D02*
Y124396D01*
X71730D01*
X73730D01*
X72730D01*
Y121396D01*
X73730Y120397D01*
X76729D02*
X78728D01*
X77728D01*
Y124396D01*
X76729D01*
X82727Y120397D02*
X84726D01*
X85726Y121396D01*
Y123396D01*
X84726Y124396D01*
X82727D01*
X81727Y123396D01*
Y121396D01*
X82727Y120397D01*
X87725D02*
Y124396D01*
X90724D01*
X91724Y123396D01*
Y120397D01*
X93723D02*
X96722D01*
X97722Y121396D01*
X96722Y122396D01*
X94723D01*
X93723Y123396D01*
X94723Y124396D01*
X97722D01*
X105719D02*
X106719D01*
Y123396D01*
X105719D01*
Y124396D01*
Y121396D02*
X106719D01*
Y120397D01*
X105719D01*
Y121396D01*
M02*
