G04*
G04 #@! TF.GenerationSoftware,Altium Limited,Altium Designer,21.0.8 (223)*
G04*
G04 Layer_Color=8388736*
%FSLAX25Y25*%
%MOIN*%
G70*
G04*
G04 #@! TF.SameCoordinates,8E059B7F-88B0-49DF-8ED0-AD27087E488A*
G04*
G04*
G04 #@! TF.FilePolarity,Positive*
G04*
G01*
G75*
%ADD14C,0.00200*%
D14*
X35600Y72100D02*
X42600D01*
X35600Y68700D02*
Y72100D01*
X42600Y68700D02*
Y72100D01*
X35600Y68700D02*
X42600D01*
X35600Y75600D02*
X42600D01*
X35600Y72200D02*
Y75600D01*
X42600Y72200D02*
Y75600D01*
X35600Y72200D02*
X42600D01*
X35600Y68600D02*
X42600D01*
X35600Y65200D02*
Y68600D01*
X42600Y65200D02*
Y68600D01*
X35600Y65200D02*
X42600D01*
X35600Y65100D02*
X42600D01*
X35600Y61700D02*
Y65100D01*
X42600Y61700D02*
Y65100D01*
X35600Y61700D02*
X42600D01*
X87500Y6900D02*
X94500D01*
X87500D02*
Y10300D01*
X94500Y6900D02*
Y10300D01*
X87500D02*
X94500D01*
X5000Y63200D02*
X28000D01*
Y40200D02*
Y63200D01*
X5000Y40200D02*
X28000D01*
X5000D02*
Y63200D01*
X87500Y88300D02*
X94500D01*
X87500D02*
Y91700D01*
X94500Y88300D02*
Y91700D01*
X87500D02*
X94500D01*
X29200Y75200D02*
X54700D01*
Y28200D02*
Y75200D01*
X29200Y28200D02*
X54700D01*
X29200D02*
Y75200D01*
X97500Y73800D02*
X104500D01*
X97500D02*
Y77200D01*
X104500Y73800D02*
Y77200D01*
X97500D02*
X104500D01*
X86200Y69500D02*
Y76500D01*
X82800Y69500D02*
X86200D01*
X82800Y76500D02*
X86200D01*
X82800Y69500D02*
Y76500D01*
X94800Y10400D02*
X101800D01*
X94800D02*
Y13800D01*
X101800Y10400D02*
Y13800D01*
X94800D02*
X101800D01*
X94800Y6900D02*
X101800D01*
X94800D02*
Y10300D01*
X101800Y6900D02*
Y10300D01*
X94800D02*
X101800D01*
X87500Y13800D02*
X94500D01*
Y10400D02*
Y13800D01*
X87500Y10400D02*
Y13800D01*
Y10400D02*
X94500D01*
X98500Y29300D02*
X105500D01*
X98500D02*
Y32700D01*
X105500Y29300D02*
Y32700D01*
X98500D02*
X105500D01*
X47500Y27700D02*
X54500D01*
Y24300D02*
Y27700D01*
X47500Y24300D02*
Y27700D01*
Y24300D02*
X54500D01*
X59700Y72500D02*
Y79500D01*
X56300Y72500D02*
X59700D01*
X56300Y79500D02*
X59700D01*
X56300Y72500D02*
Y79500D01*
X46650Y79800D02*
X53650D01*
Y76400D02*
Y79800D01*
X46650Y76400D02*
Y79800D01*
Y76400D02*
X53650D01*
X39150D02*
X46150D01*
X39150D02*
Y79800D01*
X46150Y76400D02*
Y79800D01*
X39150D02*
X46150D01*
X40500Y27700D02*
X47500D01*
Y24300D02*
Y27700D01*
X40500Y24300D02*
Y27700D01*
Y24300D02*
X47500D01*
X33500D02*
X40500D01*
X33500D02*
Y27700D01*
X40500Y24300D02*
Y27700D01*
X33500D02*
X40500D01*
X73350Y67100D02*
X80350D01*
Y63700D02*
Y67100D01*
X73350Y63700D02*
Y67100D01*
Y63700D02*
X80350D01*
X66350D02*
X73350D01*
X66350D02*
Y67100D01*
X73350Y63700D02*
Y67100D01*
X66350D02*
X73350D01*
X58700Y40500D02*
Y47500D01*
X55300Y40500D02*
X58700D01*
X55300Y47500D02*
X58700D01*
X55300Y40500D02*
Y47500D01*
X59350Y67100D02*
X66350D01*
Y63700D02*
Y67100D01*
X59350Y63700D02*
Y67100D01*
Y63700D02*
X66350D01*
M02*
